<?xml version="1.0" encoding="utf-8"?>
<!-- Generator: Adobe Illustrator 26.3.1, SVG Export Plug-In . SVG Version: 6.00 Build 0)  -->
<svg version="1.1" id="Layer_1" xmlns="http://www.w3.org/2000/svg" xmlns:xlink="http://www.w3.org/1999/xlink" width="54" height="54"
	 viewBox="0 0 54 54" style="enable-background:new 0 0 54 54;" xml:space="preserve">
<style type="text/css">
	.st0{fill:#FCB900;}
	.st1{fill:#FFFFFF;}
</style>
<g>
	<path id="사각형_2326_00000052104804663745169320000016334233248573809289_" class="st0" d="M14,8.91h26c2.76,0,5,2.24,5,5v26
		c0,2.76-2.24,5-5,5H14c-2.76,0.01-5-2.23-5-4.99V13.91C9,11.15,11.24,8.91,14,8.91z"/>
	<polygon class="st1" points="21.99,25.4 26.8,20.69 31.63,25.4 34.4,22.58 26.8,15.01 19.08,22.67 	"/>
	<polygon class="st1" points="21.99,29.45 26.8,34.17 31.63,29.45 34.4,32.27 26.8,39.85 19.08,32.18 	"/>
	
		<rect x="24.67" y="25.31" transform="matrix(0.7071 -0.7071 0.7071 0.7071 -11.532 26.9314)" class="st1" width="4.15" height="4.15"/>
	
		<rect x="34.28" y="25.31" transform="matrix(0.7071 -0.7071 0.7071 0.7071 -8.7176 33.728)" class="st1" width="4.15" height="4.15"/>
	
		<rect x="15.15" y="25.31" transform="matrix(0.7071 -0.7071 0.7071 0.7071 -14.3207 20.2009)" class="st1" width="4.15" height="4.15"/>
</g>
</svg>
