<svg xmlns="http://www.w3.org/2000/svg" width="146.012" height="34.229" viewBox="0 0 146.012 34.229">
  <g id="그룹_2132" data-name="그룹 2132" transform="translate(-233.398 -319.599)">
    <path id="패스_2010" data-name="패스 2010" d="M314.346,407.3l-.156-.058v0Z" transform="translate(-64.341 -69.795)" fill="#00bfff"/>
    <path id="패스_2011" data-name="패스 2011" d="M467.359,363.846a1.188,1.188,0,0,0-.31-.616,1.067,1.067,0,0,0-.785-.242h-6.787v3.469H471.19a.5.5,0,0,0,.438-.205,2.233,2.233,0,0,0,.219-.914h.438v6.378h-.438a.991.991,0,0,0-.219-.6.714.714,0,0,0-.438-.112H452.981v-.448a1.608,1.608,0,0,0,.857-.243.588.588,0,0,0,.164-.429V352.507a.589.589,0,0,0-.164-.429,1.612,1.612,0,0,0-.857-.242v-.448H471.19a.5.5,0,0,0,.438-.205,2.023,2.023,0,0,0,.219-.839h.438v6.49h-.438a2.03,2.03,0,0,0-.219-.839.5.5,0,0,0-.438-.205H459.476v3.1h6.787a1.065,1.065,0,0,0,.785-.242,1.184,1.184,0,0,0,.31-.616h.438v5.819Z" transform="translate(-174.871 -24.484)" fill="#00bfff"/>
    <path id="패스_2012" data-name="패스 2012" d="M593.174,370.543a.5.5,0,0,0,.438-.205,2.03,2.03,0,0,0,.219-.84h.438v6.453h-.438a1.34,1.34,0,0,0-.219-.728.638.638,0,0,0-.438-.13H574.125v-.448a1.608,1.608,0,0,0,.858-.243.588.588,0,0,0,.164-.429V356.593a.589.589,0,0,0-.164-.429,1.614,1.614,0,0,0-.858-.242v-.448h7.517v.448a1.611,1.611,0,0,0-.857.242.589.589,0,0,0-.164.429v13.95Z" transform="translate(-271.347 -28.57)" fill="#00bfff"/>
    <path id="패스_2013" data-name="패스 2013" d="M693.686,355.474v.448a.662.662,0,0,0-.493.205,3.755,3.755,0,0,0-.383.466L685.8,366.7v7.273a.588.588,0,0,0,.164.429,1.6,1.6,0,0,0,.858.243v.448h-7.517v-.448a1.608,1.608,0,0,0,.858-.243.588.588,0,0,0,.164-.429V367.41l-6.97-10.22q-.583-.858-.766-1.063a.569.569,0,0,0-.438-.205v-.448h8.028v.448a2.518,2.518,0,0,0-.62.074.351.351,0,0,0-.292.373,3.2,3.2,0,0,0,.474.9q.474.746,1.113,1.716t1.332,1.977q.693,1.007,1.131,1.716.109-.186.474-.69t.821-1.175q.456-.671.985-1.417t.949-1.38q.419-.634.711-1.1a2.248,2.248,0,0,0,.292-.541.347.347,0,0,0-.273-.373,2.032,2.032,0,0,0-.529-.074v-.448Z" transform="translate(-349.417 -28.57)" fill="#00bfff"/>
    <path id="패스_2014" data-name="패스 2014" d="M814.972,356.834a1.6,1.6,0,0,0-.219-.709.522.522,0,0,0-.438-.187H802.273v3.32h8.1a.552.552,0,0,0,.438-.168,1.45,1.45,0,0,0,.219-.69h.438v6.266h-.438a1.869,1.869,0,0,0-.219-.82.524.524,0,0,0-.438-.186h-8.1v6.229a.588.588,0,0,0,.164.429,1.605,1.605,0,0,0,.857.243v.448h-7.664v-.448a1.608,1.608,0,0,0,.857-.243.587.587,0,0,0,.164-.429V352.507a.588.588,0,0,0-.164-.429,1.612,1.612,0,0,0-.857-.242v-.448h18.684a.5.5,0,0,0,.438-.205,2.023,2.023,0,0,0,.219-.839h.438v6.49Z" transform="translate(-447.749 -24.484)" fill="#00bfff"/>
    <path id="패스_2015" data-name="패스 2015" d="M913.551,374.646a1.607,1.607,0,0,0,.858-.243.589.589,0,0,0,.164-.429V356.593a.59.59,0,0,0-.164-.429,1.613,1.613,0,0,0-.858-.242v-.448h7.517v.448a1.61,1.61,0,0,0-.858.242.589.589,0,0,0-.164.429v17.381a.588.588,0,0,0,.164.429,1.6,1.6,0,0,0,.858.243v.448h-7.517Z" transform="translate(-541.658 -28.57)" fill="#00bfff"/>
    <path id="패스_2016" data-name="패스 2016" d="M252.279,347.96l14.873-7.226a17.114,17.114,0,1,1-1.177-11.365l-14.449,7.02-10.149-4.371a1.63,1.63,0,1,0-1.289,2.994l10.834,4.667a1.63,1.63,0,0,0,1.357-.031l14.812-7.2a17.169,17.169,0,0,1,.521,3.568q.018.432.014.86l-16.1,7.823-10.149-4.371a1.63,1.63,0,1,0-1.289,2.994l10.834,4.667a1.629,1.629,0,0,0,1.357-.031Z" transform="translate(0 0)" fill="#00bfff"/>
  </g>
</svg>
