<svg id="그룹_6681" data-name="그룹 6681" xmlns="http://www.w3.org/2000/svg" width="106.226" height="106.226" viewBox="0 0 106.226 106.226">
  <path id="패스_2092" data-name="패스 2092" d="M0,0H106.226V106.226H0Z" fill="none"/>
  <line id="선_9957" data-name="선 9957" x2="80.091" y2="80.091" transform="translate(12.967 12.967)" fill="none" stroke="#b7b7b7" stroke-linecap="round" stroke-linejoin="round" stroke-width="5"/>
  <line id="선_9958" data-name="선 9958" transform="translate(66.361 35.088)" fill="none" stroke="#b7b7b7" stroke-linecap="round" stroke-linejoin="round" stroke-width="5"/>
  <path id="패스_2093" data-name="패스 2093" d="M70.927,70.931a13.278,13.278,0,0,1-9.388,3.886H17.278A13.278,13.278,0,0,1,4,61.539V17.278A13.252,13.252,0,0,1,7.93,7.846M21.7,4H61.539A13.278,13.278,0,0,1,74.817,17.278V57.113" transform="translate(13.704 13.704)" fill="none" stroke="#b7b7b7" stroke-linecap="round" stroke-linejoin="round" stroke-width="5"/>
  <path id="패스_2094" data-name="패스 2094" d="M4,31l17.7-17.7c4.107-3.952,9.171-3.952,13.278,0l22.13,22.13" transform="translate(13.704 35.392)" fill="none" stroke="#b7b7b7" stroke-linecap="round" stroke-linejoin="round" stroke-width="5"/>
  <path id="패스_2095" data-name="패스 2095" d="M16.32,12.372a9.319,9.319,0,0,1,7.436,2.921l8.852,8.852" transform="translate(55.914 42.246)" fill="none" stroke="#b7b7b7" stroke-linecap="round" stroke-linejoin="round" stroke-width="5"/>
</svg>
