<svg xmlns="http://www.w3.org/2000/svg" width="25.741" height="25.741" viewBox="0 0 25.741 25.741"><defs><style>.a{fill:rgba(0,0,0,0);}.b{fill:#fff;}</style></defs><path class="a" d="M0,0H25.741V25.741H0Z"/><path class="b" d="M23.451,4.018A19.244,19.244,0,0,1,20.233,5.08c-1.2-1.357-2.985-1.432-4.7-.79A4.218,4.218,0,0,0,12.725,8.3V9.37a10.074,10.074,0,0,1-8.58-4.29s-4.485,7.972,4.29,11.8A10.571,10.571,0,0,1,2,19.023,14.4,14.4,0,0,0,12.762,20.65a11.8,11.8,0,0,0,8.206-8.3A14.844,14.844,0,0,0,21.5,8.321c0-.267,1.62-2.973,1.95-4.3Z" transform="translate(0.145 0.283)"/></svg>