<svg xmlns="http://www.w3.org/2000/svg" width="28" height="28" viewBox="0 0 28 28">
  <g id="그룹_2359" data-name="그룹 2359" transform="translate(-1239 -34)">
    <rect id="사각형_2326" data-name="사각형 2326" width="28" height="28" rx="14" transform="translate(1239 34)" fill="#627eea"/>
    <g id="ethereum-eth" transform="translate(1242.111 37.111)">
      <circle id="타원_434" data-name="타원 434" cx="11" cy="11" r="11" transform="translate(-0.111 -0.111)" fill="#627eea"/>
      <g id="그룹_2145" data-name="그룹 2145" transform="translate(6.125 2.722)">
        <path id="패스_2022" data-name="패스 2022" d="M21.654,5.25v6.037l5.1,2.28Z" transform="translate(-16.551 -5.25)" fill="rgba(255,255,255,0.6)"/>
        <path id="패스_2023" data-name="패스 2023" d="M16.915,5.25l-5.1,8.316,5.1-2.28Z" transform="translate(-11.813 -5.25)" fill="#fff"/>
        <path id="패스_2024" data-name="패스 2024" d="M21.654,26.083v4.1l5.106-7.063Z" transform="translate(-16.551 -13.855)" fill="rgba(255,255,255,0.6)"/>
        <path id="패스_2025" data-name="패스 2025" d="M16.915,30.184v-4.1l-5.1-2.961Z" transform="translate(-11.813 -13.855)" fill="#fff"/>
        <path id="패스_2026" data-name="패스 2026" d="M21.654,22.135l5.1-2.962-5.1-2.278Z" transform="translate(-16.551 -10.857)" fill="rgba(255,255,255,0.2)"/>
        <path id="패스_2027" data-name="패스 2027" d="M11.813,19.173l5.1,2.962V16.894Z" transform="translate(-11.813 -10.857)" fill="rgba(255,255,255,0.6)"/>
      </g>
    </g>
  </g>
</svg>
