<svg id="그룹_2297" data-name="그룹 2297" xmlns="http://www.w3.org/2000/svg" width="22.878" height="23.501" viewBox="0 0 22.878 23.501">
  <path id="패스_2076" data-name="패스 2076" d="M0,0H22.878V23.5H0Z" fill="none"/>
  <path id="패스_2077" data-name="패스 2077" d="M17.018,16.373,12.36,21.107c-.744.764-.8.764-1.542,0L6.233,16.373a7.985,7.985,0,0,1,0-11.078,7.484,7.484,0,0,1,10.785,0,7.985,7.985,0,0,1,0,11.078Z" transform="translate(-0.187 -0.062)" fill="#3679b5"/>
  <path id="패스_2078" data-name="패스 2078" d="M2.541,0A2.576,2.576,0,0,1,5.081,2.61,2.576,2.576,0,0,1,2.541,5.22,2.576,2.576,0,0,1,0,2.61,2.576,2.576,0,0,1,2.541,0Z" transform="translate(8.896 6.87)" fill="#fff"/>
</svg>
