<svg xmlns="http://www.w3.org/2000/svg" width="191.069" height="652.828" viewBox="0 0 191.069 652.828">
  <g id="그룹_7043" data-name="그룹 7043" transform="translate(-476.783 -3424)">
    <g id="그룹_7021" data-name="그룹 7021" transform="translate(499.274 3424)">
      <g id="사각형_7200" data-name="사각형 7200" transform="translate(-0.422)" fill="#e0f4ff" stroke="#d3f0ff" stroke-width="1">
        <rect width="166" height="41" rx="5" stroke="none"/>
        <rect x="0.5" y="0.5" width="165" height="40" rx="4.5" fill="none"/>
      </g>
      <text id="Buyer" transform="translate(81.578 24)" fill="#333" font-size="12" font-family="SpoqaHanSansNeo-Bold, Spoqa Han Sans Neo" font-weight="700"><tspan x="-17" y="0">Buyer</tspan></text>
    </g>
    <rect id="사각형_7200-2" data-name="사각형 7200" width="166" height="41" rx="5" transform="translate(498.853 3536)" fill="#00a6ff"/>
    <text id="ELYFI" transform="translate(579.853 3559)" fill="#fff" font-size="11" font-family="SpoqaHanSansNeo-Bold, Spoqa Han Sans Neo" font-weight="700"><tspan x="-14" y="0">ELYFI</tspan></text>
    <g id="그룹_7022" data-name="그룹 7022" transform="translate(593.662 3465.318) rotate(90)">
      <line id="선_10036" data-name="선 10036" x2="58.397" transform="translate(0 3.305)" fill="none" stroke="#707070" stroke-width="1"/>
      <g id="다각형_51" data-name="다각형 51" transform="translate(61.202) rotate(90)" fill="#707070">
        <path d="M 5.667368412017822 4.371035575866699 L 0.9435468912124634 4.371035575866699 L 3.305457592010498 0.8904421925544739 L 5.667368412017822 4.371035575866699 Z" stroke="none"/>
        <path d="M 3.305457592010498 1.780893802642822 L 1.887099266052246 3.87103533744812 L 4.72381591796875 3.87103533744812 L 3.305457592010498 1.780893802642822 M 3.305457592010498 -4.76837158203125e-06 L 6.610917568206787 4.871035575866699 L -2.384185791015625e-06 4.871035575866699 L 3.305457592010498 -4.76837158203125e-06 Z" stroke="none" fill="#707070"/>
      </g>
    </g>
    <g id="그룹_7034" data-name="그룹 7034" transform="translate(593.662 3576.464) rotate(90)">
      <line id="선_10036-2" data-name="선 10036" x2="88.559" transform="translate(0 3.305)" fill="none" stroke="#707070" stroke-width="1"/>
      <g id="다각형_51-2" data-name="다각형 51" transform="translate(91.364) rotate(90)" fill="#707070">
        <path d="M 5.667368412017822 4.371035575866699 L 0.9435468912124634 4.371035575866699 L 3.305457592010498 0.8904421925544739 L 5.667368412017822 4.371035575866699 Z" stroke="none"/>
        <path d="M 3.305457592010498 1.780893802642822 L 1.887099266052246 3.87103533744812 L 4.72381591796875 3.87103533744812 L 3.305457592010498 1.780893802642822 M 3.305457592010498 -4.76837158203125e-06 L 6.610917568206787 4.871035575866699 L -2.384185791015625e-06 4.871035575866699 L 3.305457592010498 -4.76837158203125e-06 Z" stroke="none" fill="#707070"/>
      </g>
    </g>
    <g id="그룹_7035" data-name="그룹 7035" transform="translate(593.662 3717.772) rotate(90)">
      <line id="선_10036-3" data-name="선 10036" x2="98.425" transform="translate(0 3.305)" fill="none" stroke="#707070" stroke-width="1"/>
      <g id="다각형_51-3" data-name="다각형 51" transform="translate(101.23) rotate(90)" fill="#707070">
        <path d="M 5.667368412017822 4.371035575866699 L 0.9435468912124634 4.371035575866699 L 3.305457592010498 0.8904421925544739 L 5.667368412017822 4.371035575866699 Z" stroke="none"/>
        <path d="M 3.305457592010498 1.780893802642822 L 1.887099266052246 3.87103533744812 L 4.72381591796875 3.87103533744812 L 3.305457592010498 1.780893802642822 M 3.305457592010498 -4.76837158203125e-06 L 6.610917568206787 4.871035575866699 L -2.384185791015625e-06 4.871035575866699 L 3.305457592010498 -4.76837158203125e-06 Z" stroke="none" fill="#707070"/>
      </g>
    </g>
    <g id="그룹_7023" data-name="그룹 7023" transform="translate(566.031 3535.559) rotate(-90)">
      <line id="선_10036-4" data-name="선 10036" x2="58.397" transform="translate(0 3.305)" fill="none" stroke="#707070" stroke-width="1"/>
      <g id="다각형_51-4" data-name="다각형 51" transform="translate(61.202) rotate(90)" fill="#707070">
        <path d="M 5.667368412017822 4.371035575866699 L 0.9435468912124634 4.371035575866699 L 3.305457592010498 0.8904421925544739 L 5.667368412017822 4.371035575866699 Z" stroke="none"/>
        <path d="M 3.305457592010498 1.780893802642822 L 1.887099266052246 3.87103533744812 L 4.72381591796875 3.87103533744812 L 3.305457592010498 1.780893802642822 M 3.305457592010498 -4.76837158203125e-06 L 6.610917568206787 4.871035575866699 L -2.384185791015625e-06 4.871035575866699 L 3.305457592010498 -4.76837158203125e-06 Z" stroke="none" fill="#707070"/>
      </g>
    </g>
    <g id="그룹_7033" data-name="그룹 7033" transform="translate(566.031 3675.628) rotate(-90)">
      <line id="선_10036-5" data-name="선 10036" x2="86.906" y2="0.234" transform="translate(0 3.071)" fill="none" stroke="#707070" stroke-width="1"/>
      <g id="다각형_51-5" data-name="다각형 51" transform="translate(89.711) rotate(90)" fill="#707070">
        <path d="M 5.667368412017822 4.371035575866699 L 0.9435468912124634 4.371035575866699 L 3.305457592010498 0.8904421925544739 L 5.667368412017822 4.371035575866699 Z" stroke="none"/>
        <path d="M 3.305457592010498 1.780893802642822 L 1.887099266052246 3.87103533744812 L 4.72381591796875 3.87103533744812 L 3.305457592010498 1.780893802642822 M 3.305457592010498 -4.76837158203125e-06 L 6.610917568206787 4.871035575866699 L -2.384185791015625e-06 4.871035575866699 L 3.305457592010498 -4.76837158203125e-06 Z" stroke="none" fill="#707070"/>
      </g>
    </g>
    <g id="그룹_7036" data-name="그룹 7036" transform="translate(566.031 3830.158) rotate(-90)">
      <line id="선_10036-6" data-name="선 10036" x2="99.302" transform="translate(0 3.305)" fill="none" stroke="#707070" stroke-width="1"/>
      <g id="다각형_51-6" data-name="다각형 51" transform="translate(102.107) rotate(90)" fill="#707070">
        <path d="M 5.667368412017822 4.371035575866699 L 0.9435468912124634 4.371035575866699 L 3.305457592010498 0.8904421925544739 L 5.667368412017822 4.371035575866699 Z" stroke="none"/>
        <path d="M 3.305457592010498 1.780893802642822 L 1.887099266052246 3.87103533744812 L 4.72381591796875 3.87103533744812 L 3.305457592010498 1.780893802642822 M 3.305457592010498 -4.76837158203125e-06 L 6.610917568206787 4.871035575866699 L -2.384185791015625e-06 4.871035575866699 L 3.305457592010498 -4.76837158203125e-06 Z" stroke="none" fill="#707070"/>
      </g>
    </g>
    <text id="_4._Purchase_Bond_NFTs_ETH_USDC_" data-name="4. Purchase
Bond NFTs
(ETH, USDC)" transform="translate(554.853 3492)" fill="#333" font-size="10" font-family="SpoqaHanSansNeo-Bold, Spoqa Han Sans Neo" font-weight="700"><tspan x="-54" y="0">4.</tspan><tspan y="0" xml:space="preserve" font-family="SpoqaHanSansNeo-Regular, Spoqa Han Sans Neo" font-weight="400"> Purchase</tspan><tspan font-family="SpoqaHanSansNeo-Regular, Spoqa Han Sans Neo" font-weight="400"><tspan x="-49" y="14">Bond NFTs</tspan><tspan x="-56" y="28">(</tspan><tspan y="28" fill="#6284f5">ETH</tspan><tspan y="28">, </tspan><tspan y="28" fill="#3679b5">USDC</tspan><tspan y="28">)</tspan></tspan></text>
    <text id="_8._Receive_repayment_USDC_" data-name="8.  Receive
repayment
(USDC)" transform="translate(605.875 3483.434)" fill="#333" font-size="10" font-family="SpoqaHanSansNeo-Bold, Spoqa Han Sans Neo" font-weight="700"><tspan x="0" y="0">8.</tspan><tspan y="0" xml:space="preserve" font-family="SpoqaHanSansNeo-Regular, Spoqa Han Sans Neo" font-weight="400">  Receive</tspan><tspan font-family="SpoqaHanSansNeo-Regular, Spoqa Han Sans Neo" font-weight="400"><tspan x="0" y="14">repayment</tspan><tspan x="0" y="28">(</tspan><tspan y="28" fill="#3679b5">USDC</tspan><tspan y="28">)</tspan></tspan></text>
    <rect id="사각형_7199" data-name="사각형 7199" width="166" height="41" rx="5" transform="translate(498.853 3677)" fill="#3679b5"/>
    <text id="Elyloan_Inc." data-name="Elyloan Inc." transform="translate(580.853 3701)" fill="#fff" font-size="12" font-family="SpoqaHanSansNeo-Bold, Spoqa Han Sans Neo" font-weight="700"><tspan x="-34" y="0">Elyloan Inc.</tspan></text>
    <text id="_7._Repay_USDC_" data-name="7. Repay
(USDC)" transform="translate(605.875 3617.098)" fill="#333" font-size="10" font-family="SpoqaHanSansNeo-Bold, Spoqa Han Sans Neo" font-weight="700"><tspan x="0" y="0">7.</tspan><tspan y="0" xml:space="preserve" font-family="SpoqaHanSansNeo-Regular, Spoqa Han Sans Neo" font-weight="400"> Repay</tspan><tspan font-family="SpoqaHanSansNeo-Regular, Spoqa Han Sans Neo" font-weight="400"><tspan x="0" y="14">(</tspan><tspan y="14" fill="#3679b5">USDC</tspan><tspan y="14">)</tspan></tspan></text>
    <text id="_5._Collateralize_a_loan_bond_Borrow_cryptocurrency_USDC_" data-name="5. Collateralize
a loan bond
&amp; Borrow
cryptocurrency
(USDC)" transform="translate(552.921 3602.198)" fill="#333" font-size="10" font-family="SpoqaHanSansNeo-Bold, Spoqa Han Sans Neo" font-weight="700"><tspan x="-68" y="0">5.</tspan><tspan y="0" xml:space="preserve" font-family="SpoqaHanSansNeo-Regular, Spoqa Han Sans Neo" font-weight="400"> Collateralize</tspan><tspan font-family="SpoqaHanSansNeo-Regular, Spoqa Han Sans Neo" font-weight="400"><tspan x="-55" y="14">a loan bond</tspan><tspan x="-43" y="28">&amp; Borrow</tspan><tspan x="-71" y="42">cryptocurrency</tspan><tspan x="-33" y="56">(</tspan><tspan y="56" fill="#3679b5">USDC</tspan><tspan y="56">)</tspan></tspan></text>
    <rect id="사각형_7201" data-name="사각형 7201" width="166" height="41" rx="5" transform="translate(498.853 3831)" fill="#3679b5"/>
    <text id="Elysia_Co._Ltd." data-name="Elysia Co., Ltd." transform="translate(580.853 3855)" fill="#fff" font-size="12" font-family="SpoqaHanSansNeo-Bold, Spoqa Han Sans Neo" font-weight="700"><tspan x="-41" y="0">Elysia Co., Ltd.</tspan></text>
    <text id="_6._Repay_USDC_" data-name="6. Repay
(USDC)" transform="translate(625.853 3764)" fill="#333" font-size="10" font-family="SpoqaHanSansNeo-Bold, Spoqa Han Sans Neo" font-weight="700"><tspan x="-19" y="0">6.</tspan><tspan y="0" xml:space="preserve" font-family="SpoqaHanSansNeo-Regular, Spoqa Han Sans Neo" font-weight="400"> Repay</tspan><tspan font-family="SpoqaHanSansNeo-Regular, Spoqa Han Sans Neo" font-weight="400"><tspan x="-16" y="14">(</tspan><tspan y="14" fill="#3679b5">USDC</tspan><tspan y="14">)</tspan></tspan></text>
    <text id="_3._Loan_Agreement_Pledge_Agreement_USDC_" data-name="3. Loan
Agreement
&amp; Pledge
Agreement
(USDC)" transform="translate(554.853 3753)" fill="#333" font-size="10" font-family="SpoqaHanSansNeo-Bold, Spoqa Han Sans Neo" font-weight="700"><tspan x="-34" y="0">3.</tspan><tspan y="0" xml:space="preserve" font-family="SpoqaHanSansNeo-Regular, Spoqa Han Sans Neo" font-weight="400"> Loan</tspan><tspan font-family="SpoqaHanSansNeo-Regular, Spoqa Han Sans Neo" font-weight="400"><tspan x="-51" y="14">Agreement</tspan><tspan x="-40" y="28">&amp; Pledge</tspan><tspan x="-51" y="42">Agreement</tspan><tspan x="-33" y="56">(</tspan><tspan y="56" fill="#3679b5">USDC</tspan><tspan y="56">)</tspan></tspan></text>
    <rect id="사각형_7198" data-name="사각형 7198" width="166" height="42" rx="5" transform="translate(498.853 3932)" fill="#e6e6e6"/>
    <text id="ELYLOAN_LLC" data-name="ELYLOAN LLC" transform="translate(576.853 3957)" fill="#333" font-size="12" font-family="SpoqaHanSansNeo-Bold, Spoqa Han Sans Neo" font-weight="700"><tspan x="-38" y="0">ELYLOAN LLC</tspan></text>
    <g id="그룹_7025" data-name="그룹 7025" transform="translate(587.051 3869.36) rotate(90)">
      <line id="선_10036-7" data-name="선 10036" x2="58.397" transform="translate(0 3.305)" fill="none" stroke="#707070" stroke-width="1"/>
      <g id="다각형_51-7" data-name="다각형 51" transform="translate(61.202) rotate(90)" fill="#707070">
        <path d="M 5.667368412017822 4.371035575866699 L 0.9435468912124634 4.371035575866699 L 3.305457592010498 0.8904421925544739 L 5.667368412017822 4.371035575866699 Z" stroke="none"/>
        <path d="M 3.305457592010498 1.780893802642822 L 1.887099266052246 3.87103533744812 L 4.72381591796875 3.87103533744812 L 3.305457592010498 1.780893802642822 M 3.305457592010498 -4.76837158203125e-06 L 6.610917568206787 4.871035575866699 L -2.384185791015625e-06 4.871035575866699 L 3.305457592010498 -4.76837158203125e-06 Z" stroke="none" fill="#707070"/>
      </g>
    </g>
    <g id="그룹_7037" data-name="그룹 7037" transform="translate(587.051 3973.532) rotate(90)">
      <line id="선_10036-8" data-name="선 10036" x2="58.397" transform="translate(0 3.305)" fill="none" stroke="#707070" stroke-width="1"/>
      <g id="다각형_51-8" data-name="다각형 51" transform="translate(61.202) rotate(90)" fill="#707070">
        <path d="M 5.667368412017822 4.371035575866699 L 0.9435468912124634 4.371035575866699 L 3.305457592010498 0.8904421925544739 L 5.667368412017822 4.371035575866699 Z" stroke="none"/>
        <path d="M 3.305457592010498 1.780893802642822 L 1.887099266052246 3.87103533744812 L 4.72381591796875 3.87103533744812 L 3.305457592010498 1.780893802642822 M 3.305457592010498 -4.76837158203125e-06 L 6.610917568206787 4.871035575866699 L -2.384185791015625e-06 4.871035575866699 L 3.305457592010498 -4.76837158203125e-06 Z" stroke="none" fill="#707070"/>
      </g>
    </g>
    <text id="_2._99_ownership" data-name="2. 99% ownership" transform="translate(525.394 3902.763)" fill="#333" font-size="10" font-family="SpoqaHanSansNeo-Bold, Spoqa Han Sans Neo" font-weight="700"><tspan x="-41" y="0">2.</tspan><tspan y="0" xml:space="preserve" font-family="SpoqaHanSansNeo-Regular, Spoqa Han Sans Neo" font-weight="400"> 99% ownership</tspan></text>
    <g id="패스_10565" data-name="패스 10565" transform="translate(502.58 4035.51)" fill="#e0f4ff">
      <path d="M 161.411376953125 40.81821441650391 L 3.861519813537598 40.81821441650391 C 2.007978200912476 40.81821441650391 0.4999989569187164 39.59444427490234 0.4999989569187164 38.09023284912109 L 0.4999989569187164 3.227984189987183 C 0.4999989569187164 1.723775744438171 2.007978200912476 0.5000049471855164 3.861519813537598 0.5000049471855164 L 161.411376953125 0.5000049471855164 C 163.2649230957031 0.5000049471855164 164.7728729248047 1.723775744438171 164.7728729248047 3.227984189987183 L 164.7728729248047 38.09023284912109 C 164.7728729248047 39.59444427490234 163.2649230957031 40.81821441650391 161.411376953125 40.81821441650391 Z" stroke="none"/>
      <path d="M 3.861495971679688 1 C 2.283676147460938 1 1 1.999458312988281 1 3.227977752685547 L 1 38.09024047851562 C 1 39.31875991821289 2.283676147460938 40.31821823120117 3.861495971679688 40.31821823120117 L 161.4113464355469 40.31821823120117 C 162.9891967773438 40.31821823120117 164.2728729248047 39.31875991821289 164.2728729248047 38.09024047851562 L 164.2728729248047 3.227977752685547 C 164.2728729248047 1.999458312988281 162.9891967773438 1 161.4113464355469 1 L 3.861495971679688 1 M 3.861495971679688 0 L 161.4113464355469 0 C 163.5440216064453 0 165.2728729248047 1.445217132568359 165.2728729248047 3.227977752685547 L 165.2728729248047 38.09024047851562 C 165.2728729248047 39.87300109863281 163.5440216064453 41.31821823120117 161.4113464355469 41.31821823120117 L 3.861495971679688 41.31821823120117 C 1.728866577148438 41.31821823120117 0 39.87300109863281 0 38.09024047851562 L 0 3.227977752685547 C 0 1.445217132568359 1.728866577148438 0 3.861495971679688 0 Z" stroke="none" fill="#d3f0ff"/>
    </g>
    <text id="US_Real_Estate" data-name="US Real Estate" transform="translate(583.853 4060)" fill="#333" font-size="12" font-family="SpoqaHanSansNeo-Bold, Spoqa Han Sans Neo" font-weight="700"><tspan x="-42" y="0">US Real Estate</tspan></text>
    <text id="_1._100_ownership" data-name="1. 100% ownership" transform="translate(521.783 4004.406)" fill="#333" font-size="10" font-family="SpoqaHanSansNeo-Bold, Spoqa Han Sans Neo" font-weight="700"><tspan x="-44" y="0">1.</tspan><tspan y="0" xml:space="preserve" font-family="SpoqaHanSansNeo-Regular, Spoqa Han Sans Neo" font-weight="400"> 100% ownership</tspan></text>
  </g>
</svg>
