<svg xmlns="http://www.w3.org/2000/svg" width="225" height="700" viewBox="0 0 225 700">
  <g id="그룹_7038" data-name="그룹 7038" transform="translate(-1240 -3424)">
    <g id="그룹_7021" data-name="그룹 7021" transform="translate(1 2087)">
      <g id="사각형_7200" data-name="사각형 7200" transform="translate(1260 1337)" fill="#e0f4ff" stroke="#d3f0ff" stroke-width="1">
        <rect width="200" height="50" rx="5" stroke="none"/>
        <rect x="0.5" y="0.5" width="199" height="49" rx="4.5" fill="none"/>
      </g>
      <text id="구매자" transform="translate(1360 1367.844)" fill="#333" font-size="15" font-family="SpoqaHanSansNeo-Bold, Spoqa Han Sans Neo" font-weight="700"><tspan x="-20" y="0">구매자</tspan></text>
    </g>
    <rect id="사각형_7200-2" data-name="사각형 7200" width="200" height="50" rx="5" transform="translate(1261 3559)" fill="#00a6ff"/>
    <text id="엘리파이" transform="translate(1368 3589)" fill="#fff" font-size="15" font-family="SpoqaHanSansNeo-Bold, Spoqa Han Sans Neo" font-weight="700"><tspan x="-27" y="0">엘리파이</tspan></text>
    <g id="그룹_7022" data-name="그룹 7022" transform="translate(1375.221 3346.938) rotate(90)">
      <line id="선_10036" data-name="선 10036" x2="70.667" transform="translate(127.062 4)" fill="none" stroke="#707070" stroke-width="1"/>
      <g id="다각형_51" data-name="다각형 51" transform="translate(201.123) rotate(90)" fill="#707070">
        <path d="M 7.056450843811035 5.394535541534424 L 0.943548858165741 5.394535541534424 L 3.999999761581421 0.8904426097869873 L 7.056450843811035 5.394535541534424 Z" stroke="none"/>
        <path d="M 3.999999761581421 1.78089427947998 L 1.887101173400879 4.894535541534424 L 6.112898349761963 4.894535541534424 L 3.999999761581421 1.78089427947998 M 3.999999761581421 -4.291534423828125e-06 L 8 5.894535541534424 L -4.76837158203125e-07 5.894535541534424 L 3.999999761581421 -4.291534423828125e-06 Z" stroke="none" fill="#707070"/>
      </g>
    </g>
    <g id="그룹_7034" data-name="그룹 7034" transform="translate(1375.221 3481.938) rotate(90)">
      <line id="선_10036-2" data-name="선 10036" x2="70.667" transform="translate(127.062 4)" fill="none" stroke="#707070" stroke-width="1"/>
      <g id="다각형_51-2" data-name="다각형 51" transform="translate(201.123) rotate(90)" fill="#707070">
        <path d="M 7.056450843811035 5.394535541534424 L 0.943548858165741 5.394535541534424 L 3.999999761581421 0.8904426097869873 L 7.056450843811035 5.394535541534424 Z" stroke="none"/>
        <path d="M 3.999999761581421 1.78089427947998 L 1.887101173400879 4.894535541534424 L 6.112898349761963 4.894535541534424 L 3.999999761581421 1.78089427947998 M 3.999999761581421 -4.291534423828125e-06 L 8 5.894535541534424 L -4.76837158203125e-07 5.894535541534424 L 3.999999761581421 -4.291534423828125e-06 Z" stroke="none" fill="#707070"/>
      </g>
    </g>
    <g id="그룹_7035" data-name="그룹 7035" transform="translate(1375.221 3613.938) rotate(90)">
      <line id="선_10036-3" data-name="선 10036" x2="70.667" transform="translate(127.062 4)" fill="none" stroke="#707070" stroke-width="1"/>
      <g id="다각형_51-3" data-name="다각형 51" transform="translate(201.123) rotate(90)" fill="#707070">
        <path d="M 7.056450843811035 5.394535541534424 L 0.943548858165741 5.394535541534424 L 3.999999761581421 0.8904426097869873 L 7.056450843811035 5.394535541534424 Z" stroke="none"/>
        <path d="M 3.999999761581421 1.78089427947998 L 1.887101173400879 4.894535541534424 L 6.112898349761963 4.894535541534424 L 3.999999761581421 1.78089427947998 M 3.999999761581421 -4.291534423828125e-06 L 8 5.894535541534424 L -4.76837158203125e-07 5.894535541534424 L 3.999999761581421 -4.291534423828125e-06 Z" stroke="none" fill="#707070"/>
      </g>
    </g>
    <g id="그룹_7023" data-name="그룹 7023" transform="translate(1341.783 3552.5) rotate(-90)">
      <line id="선_10036-4" data-name="선 10036" x2="70.667" transform="translate(-6.5 4)" fill="none" stroke="#707070" stroke-width="1"/>
      <g id="다각형_51-4" data-name="다각형 51" transform="translate(67.562) rotate(90)" fill="#707070">
        <path d="M 7.056450843811035 5.394535541534424 L 0.943548858165741 5.394535541534424 L 3.999999761581421 0.8904426097869873 L 7.056450843811035 5.394535541534424 Z" stroke="none"/>
        <path d="M 3.999999761581421 1.78089427947998 L 1.887101173400879 4.894535541534424 L 6.112898349761963 4.894535541534424 L 3.999999761581421 1.78089427947998 M 3.999999761581421 -4.291534423828125e-06 L 8 5.894535541534424 L -4.76837158203125e-07 5.894535541534424 L 3.999999761581421 -4.291534423828125e-06 Z" stroke="none" fill="#707070"/>
      </g>
    </g>
    <g id="그룹_7033" data-name="그룹 7033" transform="translate(1341.783 3687.5) rotate(-90)">
      <line id="선_10036-5" data-name="선 10036" x2="70.667" transform="translate(-6.5 4)" fill="none" stroke="#707070" stroke-width="1"/>
      <g id="다각형_51-5" data-name="다각형 51" transform="translate(67.562) rotate(90)" fill="#707070">
        <path d="M 7.056450843811035 5.394535541534424 L 0.943548858165741 5.394535541534424 L 3.999999761581421 0.8904426097869873 L 7.056450843811035 5.394535541534424 Z" stroke="none"/>
        <path d="M 3.999999761581421 1.78089427947998 L 1.887101173400879 4.894535541534424 L 6.112898349761963 4.894535541534424 L 3.999999761581421 1.78089427947998 M 3.999999761581421 -4.291534423828125e-06 L 8 5.894535541534424 L -4.76837158203125e-07 5.894535541534424 L 3.999999761581421 -4.291534423828125e-06 Z" stroke="none" fill="#707070"/>
      </g>
    </g>
    <g id="그룹_7036" data-name="그룹 7036" transform="translate(1341.783 3819.5) rotate(-90)">
      <line id="선_10036-6" data-name="선 10036" x2="70.667" transform="translate(-6.5 4)" fill="none" stroke="#707070" stroke-width="1"/>
      <g id="다각형_51-6" data-name="다각형 51" transform="translate(67.562) rotate(90)" fill="#707070">
        <path d="M 7.056450843811035 5.394535541534424 L 0.943548858165741 5.394535541534424 L 3.999999761581421 0.8904426097869873 L 7.056450843811035 5.394535541534424 Z" stroke="none"/>
        <path d="M 3.999999761581421 1.78089427947998 L 1.887101173400879 4.894535541534424 L 6.112898349761963 4.894535541534424 L 3.999999761581421 1.78089427947998 M 3.999999761581421 -4.291534423828125e-06 L 8 5.894535541534424 L -4.76837158203125e-07 5.894535541534424 L 3.999999761581421 -4.291534423828125e-06 Z" stroke="none" fill="#707070"/>
      </g>
    </g>
    <text id="_4._채권_NFT_구매_ETH_USDC_" data-name="4. 채권 NFT 구매
(ETH, USDC)" transform="translate(1287 3517.25)" fill="#333" font-size="13" font-family="SpoqaHanSansNeo-Bold, Spoqa Han Sans Neo" font-weight="700"><tspan x="-46" y="0">4.</tspan><tspan y="0" xml:space="preserve" font-family="SpoqaHanSansNeo-Regular, Spoqa Han Sans Neo" font-weight="400"> 채권 </tspan><tspan y="0" font-family="SpoqaHanSansNeo-Regular, Spoqa Han Sans Neo" font-weight="400">NFT </tspan><tspan y="0" font-family="SpoqaHanSansNeo-Regular, Spoqa Han Sans Neo" font-weight="400">구매</tspan><tspan font-family="SpoqaHanSansNeo-Regular, Spoqa Han Sans Neo" font-weight="400"><tspan x="-36" y="18">(</tspan><tspan y="18" fill="#6284f5">ETH</tspan><tspan y="18">, </tspan><tspan y="18" fill="#3679b5">USDC</tspan><tspan y="18">)</tspan></tspan></text>
    <text id="_8._상환금_수령_ETH_USDC_" data-name="8. 상환금 수령
(ETH, USDC)" transform="translate(1423 3511.25)" fill="#333" font-size="13" font-family="SpoqaHanSansNeo-Bold, Spoqa Han Sans Neo" font-weight="700"><tspan x="-38" y="0">8.</tspan><tspan y="0" xml:space="preserve" font-family="SpoqaHanSansNeo-Regular, Spoqa Han Sans Neo" font-weight="400"> 상환금 수령</tspan><tspan font-family="SpoqaHanSansNeo-Regular, Spoqa Han Sans Neo" font-weight="400"><tspan x="-36" y="18">(</tspan><tspan y="18" fill="#6284f5">ETH</tspan><tspan y="18">, </tspan><tspan y="18" fill="#3679b5">USDC</tspan><tspan y="18">)</tspan></tspan></text>
    <rect id="사각형_7199" data-name="사각형 7199" width="200" height="50" rx="5" transform="translate(1261 3690)" fill="#3679b5"/>
    <text id="_주_엘리파이대부" data-name="(주)엘리파이대부" transform="translate(1361 3721)" fill="#fff" font-size="15" font-family="SpoqaHanSansNeo-Bold, Spoqa Han Sans Neo" font-weight="700"><tspan x="-53" y="0">(주)엘리파이대부</tspan></text>
    <text id="_7._원리금_상환_USDC_" data-name="7. 원리금 상환
(USDC)" transform="translate(1423 3641.5)" fill="#333" font-size="13" font-family="SpoqaHanSansNeo-Bold, Spoqa Han Sans Neo" font-weight="700"><tspan x="-38" y="0">7.</tspan><tspan y="0" xml:space="preserve" font-family="SpoqaHanSansNeo-Regular, Spoqa Han Sans Neo" font-weight="400"> 원리금 상환</tspan><tspan font-family="SpoqaHanSansNeo-Regular, Spoqa Han Sans Neo" font-weight="400"><tspan x="-21" y="18">(</tspan><tspan y="18" fill="#3679b5">USDC</tspan><tspan y="18">)</tspan></tspan></text>
    <text id="_5._대출채권_담보_및_가상화폐_대출_USDC_" data-name="5. 대출채권 담보
및 가상화폐 대출
(USDC)" transform="translate(1287.004 3640.75)" fill="#333" font-size="13" font-family="SpoqaHanSansNeo-Bold, Spoqa Han Sans Neo" font-weight="700"><tspan x="-44" y="0">5.</tspan><tspan y="0" xml:space="preserve" font-family="SpoqaHanSansNeo-Regular, Spoqa Han Sans Neo" font-weight="400"> 대출채권 담보</tspan><tspan font-family="SpoqaHanSansNeo-Regular, Spoqa Han Sans Neo" font-weight="400"><tspan x="-44" y="18">및 가상화폐 대출</tspan><tspan x="-21" y="36">(</tspan><tspan y="36" fill="#3679b5">USDC</tspan><tspan y="36">)</tspan></tspan></text>
    <rect id="사각형_7201" data-name="사각형 7201" width="200" height="50" rx="5" transform="translate(1261 3826)" fill="#3679b5"/>
    <text id="_주_엘리시아" data-name="(주)엘리시아" transform="translate(1357 3857)" fill="#fff" font-size="15" font-family="SpoqaHanSansNeo-Bold, Spoqa Han Sans Neo" font-weight="700"><tspan x="-40" y="0">(주)엘리시아</tspan></text>
    <text id="_6._원리금_상환_USDC_" data-name="6. 원리금 상환
(USDC)" transform="translate(1423 3774)" fill="#333" font-size="13" font-family="SpoqaHanSansNeo-Bold, Spoqa Han Sans Neo" font-weight="700"><tspan x="-38" y="0">6.</tspan><tspan y="0" xml:space="preserve" font-family="SpoqaHanSansNeo-Regular, Spoqa Han Sans Neo" font-weight="400"> 원리금 상환</tspan><tspan font-family="SpoqaHanSansNeo-Regular, Spoqa Han Sans Neo" font-weight="400"><tspan x="-21" y="18">(</tspan><tspan y="18" fill="#3679b5">USDC</tspan><tspan y="18">)</tspan></tspan></text>
    <text id="_3._대출계약_및_담보설정계약_USDC_" data-name="3. 대출계약
및 담보설정계약
(USDC)" transform="translate(1289 3775)" fill="#333" font-size="13" font-family="SpoqaHanSansNeo-Bold, Spoqa Han Sans Neo" font-weight="700"><tspan x="-31" y="0">3.</tspan><tspan y="0" xml:space="preserve" font-family="SpoqaHanSansNeo-Regular, Spoqa Han Sans Neo" font-weight="400"> 대출계약</tspan><tspan font-family="SpoqaHanSansNeo-Regular, Spoqa Han Sans Neo" font-weight="400"><tspan x="-43" y="18">및 담보설정계약</tspan><tspan x="-21" y="36">(</tspan><tspan y="36" fill="#3679b5">USDC</tspan><tspan y="36">)</tspan></tspan></text>
    <rect id="사각형_7198" data-name="사각형 7198" width="200" height="50" rx="5" transform="translate(1261 3949)" fill="#e6e6e6"/>
    <text id="ELYLOAN_LLC" data-name="ELYLOAN LLC" transform="translate(1357 3980)" fill="#333" font-size="15" font-family="SpoqaHanSansNeo-Bold, Spoqa Han Sans Neo" font-weight="700"><tspan x="-47" y="0">ELYLOAN LLC</tspan></text>
    <g id="그룹_7025" data-name="그룹 7025" transform="translate(1367.221 3745.877) rotate(90)">
      <line id="선_10036-7" data-name="선 10036" x2="70.667" transform="translate(127.062 4)" fill="none" stroke="#707070" stroke-width="1"/>
      <g id="다각형_51-7" data-name="다각형 51" transform="translate(201.123) rotate(90)" fill="#707070">
        <path d="M 7.056450843811035 5.394535541534424 L 0.943548858165741 5.394535541534424 L 3.999999761581421 0.8904426097869873 L 7.056450843811035 5.394535541534424 Z" stroke="none"/>
        <path d="M 3.999999761581421 1.78089427947998 L 1.887101173400879 4.894535541534424 L 6.112898349761963 4.894535541534424 L 3.999999761581421 1.78089427947998 M 3.999999761581421 -4.291534423828125e-06 L 8 5.894535541534424 L -4.76837158203125e-07 5.894535541534424 L 3.999999761581421 -4.291534423828125e-06 Z" stroke="none" fill="#707070"/>
      </g>
    </g>
    <g id="그룹_7037" data-name="그룹 7037" transform="translate(1367.221 3871.938) rotate(90)">
      <line id="선_10036-8" data-name="선 10036" x2="70.667" transform="translate(127.062 4)" fill="none" stroke="#707070" stroke-width="1"/>
      <g id="다각형_51-8" data-name="다각형 51" transform="translate(201.123) rotate(90)" fill="#707070">
        <path d="M 7.056450843811035 5.394535541534424 L 0.943548858165741 5.394535541534424 L 3.999999761581421 0.8904426097869873 L 7.056450843811035 5.394535541534424 Z" stroke="none"/>
        <path d="M 3.999999761581421 1.78089427947998 L 1.887101173400879 4.894535541534424 L 6.112898349761963 4.894535541534424 L 3.999999761581421 1.78089427947998 M 3.999999761581421 -4.291534423828125e-06 L 8 5.894535541534424 L -4.76837158203125e-07 5.894535541534424 L 3.999999761581421 -4.291534423828125e-06 Z" stroke="none" fill="#707070"/>
      </g>
    </g>
    <text id="_2._99_소유" data-name="2. 99% 소유" transform="translate(1316.438 3914.469)" fill="#333" font-size="13" font-family="SpoqaHanSansNeo-Bold, Spoqa Han Sans Neo" font-weight="700"><tspan x="-34" y="0">2.</tspan><tspan y="0" xml:space="preserve" font-family="SpoqaHanSansNeo-Regular, Spoqa Han Sans Neo" font-weight="400"> 99% 소유</tspan></text>
    <g id="패스_10565" data-name="패스 10565" transform="translate(1265 4074)" fill="#e0f4ff">
      <path d="M 195.3271026611328 49.5 L 4.672900199890137 49.5 C 2.371949911117554 49.5 0.5 47.97197341918945 0.5 46.09375 L 0.5 3.90625 C 0.5 2.028024911880493 2.371949911117554 0.5 4.672900199890137 0.5 L 195.3271026611328 0.5 C 197.6280517578125 0.5 199.5 2.028024911880493 199.5 3.90625 L 199.5 46.09375 C 199.5 47.97197341918945 197.6280517578125 49.5 195.3271026611328 49.5 Z" stroke="none"/>
      <path d="M 4.672897338867188 1 C 2.647659301757812 1 1 2.303737640380859 1 3.906238555908203 L 1 46.0937385559082 C 1 47.69626235961914 2.647659301757812 49 4.672897338867188 49 L 195.3271026611328 49 C 197.3523406982422 49 199 47.69626235961914 199 46.0937385559082 L 199 3.906238555908203 C 199 2.303737640380859 197.3523406982422 1 195.3271026611328 1 L 4.672897338867188 1 M 4.672897338867188 0 L 195.3271026611328 0 C 197.9078674316406 0 200 1.748893737792969 200 3.906238555908203 L 200 46.0937385559082 C 200 48.25110626220703 197.9078674316406 50 195.3271026611328 50 L 4.672897338867188 50 C 2.092132568359375 50 0 48.25110626220703 0 46.0937385559082 L 0 3.906238555908203 C 0 1.748893737792969 2.092132568359375 0 4.672897338867188 0 Z" stroke="none" fill="#d3f0ff"/>
    </g>
    <text id="미국_부동산" data-name="미국 부동산" transform="translate(1361 4105)" fill="#333" font-size="15" font-family="SpoqaHanSansNeo-Bold, Spoqa Han Sans Neo" font-weight="700"><tspan x="-36" y="0">미국 부동산</tspan></text>
    <text id="_1._100_소유" data-name="1. 100% 소유" transform="translate(1312.438 4037.469)" fill="#333" font-size="13" font-family="SpoqaHanSansNeo-Bold, Spoqa Han Sans Neo" font-weight="700"><tspan x="-38" y="0">1.</tspan><tspan y="0" xml:space="preserve" font-family="SpoqaHanSansNeo-Regular, Spoqa Han Sans Neo" font-weight="400"> 100% 소유</tspan></text>
  </g>
</svg>
