<svg id="그룹_6965" data-name="그룹 6965" xmlns="http://www.w3.org/2000/svg" xmlns:xlink="http://www.w3.org/1999/xlink" width="76.523" height="90.252" viewBox="0 0 76.523 90.252">
  <defs>
    <clipPath id="clip-path">
      <rect id="사각형_7167" data-name="사각형 7167" width="76.523" height="90.252" fill="none"/>
    </clipPath>
  </defs>
  <g id="그룹_6964" data-name="그룹 6964" transform="translate(0 0)" clip-path="url(#clip-path)">
    <path id="패스_10539" data-name="패스 10539" d="M39.731,28.508A25.095,25.095,0,0,0,15.266,59.241L1.339,73.168,22.316,94.145l15.506-15.5c.631.047,1.266.079,1.909.079a25.106,25.106,0,1,0,0-50.211" transform="translate(-0.235 -4.997)" fill="#fff"/>
    <path id="패스_10540" data-name="패스 10540" d="M22.229,94.468a.41.41,0,0,1-.29-.12L.962,73.371a.41.41,0,0,1,0-.581L14.729,59.024A25.514,25.514,0,1,1,39.643,79.043c-.54,0-1.1-.021-1.752-.067L22.52,94.348a.412.412,0,0,1-.29.12M1.832,73.081l20.4,20.4L37.445,78.263a.414.414,0,0,1,.321-.119c.71.053,1.307.078,1.878.078a24.708,24.708,0,1,0-24.065-19.16.409.409,0,0,1-.11.382Z" transform="translate(-0.148 -4.91)"/>
    <rect id="사각형_7165" data-name="사각형 7165" width="12.362" height="31.629" transform="translate(0.411 67.477) rotate(-45)" fill="#cfeeff"/>
    <path id="패스_10541" data-name="패스 10541" d="M22.775,102.648a.409.409,0,0,1-.29-.12L.12,80.163a.41.41,0,0,1,0-.581l8.741-8.741a.41.41,0,0,1,.581,0L31.807,93.206a.411.411,0,0,1,0,.581l-8.741,8.741a.408.408,0,0,1-.29.12M.99,79.873l21.785,21.785L30.937,93.5,9.152,71.711Z" transform="translate(0 -12.396)"/>
    <path id="패스_10542" data-name="패스 10542" d="M40.6,25.137" transform="translate(-7.116 -4.406)" fill="#fff"/>
    <path id="패스_10543" data-name="패스 10543" d="M40.521,25.461a.41.41,0,0,1,0-.821h0a.41.41,0,1,1,0,.821" transform="translate(-7.03 -4.319)"/>
    <path id="패스_10544" data-name="패스 10544" d="M68.76,68.772H34.22a4.012,4.012,0,0,1-4.012-4.013V4.51A4.012,4.012,0,0,1,34.22.5H68.76A4.013,4.013,0,0,1,72.773,4.51V64.759a4.013,4.013,0,0,1-4.013,4.013" transform="translate(-5.295 -0.087)" fill="#00a6ff"/>
    <path id="패스_10545" data-name="패스 10545" d="M68.582,69.1H34.225a4.519,4.519,0,0,1-4.515-4.514V4.514A4.519,4.519,0,0,1,34.225,0H68.582A4.519,4.519,0,0,1,73.1,4.514V64.581A4.519,4.519,0,0,1,68.582,69.1M34.225.821a3.7,3.7,0,0,0-3.693,3.693V64.581a3.7,3.7,0,0,0,3.693,3.693H68.582a3.7,3.7,0,0,0,3.693-3.693V4.514A3.7,3.7,0,0,0,68.582.821Z" transform="translate(-5.208 0)"/>
    <rect id="사각형_7166" data-name="사각형 7166" width="42.565" height="50.043" transform="translate(24.913 6.225)" fill="#cfeeff"/>
    <path id="패스_10546" data-name="패스 10546" d="M72.685,57.915H30.121a.411.411,0,0,1-.411-.411V7.461a.411.411,0,0,1,.411-.41H72.685a.41.41,0,0,1,.41.41V57.5a.41.41,0,0,1-.41.411m-42.155-.821H72.275V7.872H30.531Z" transform="translate(-5.208 -1.236)"/>
    <path id="패스_10547" data-name="패스 10547" d="M58.812,74.513a3.554,3.554,0,1,1-3.555-3.555,3.554,3.554,0,0,1,3.555,3.555" transform="translate(-9.063 -12.438)" fill="#82d3ff"/>
    <path id="패스_10548" data-name="패스 10548" d="M55.17,78.39a3.964,3.964,0,1,1,3.964-3.964A3.969,3.969,0,0,1,55.17,78.39m0-7.108a3.144,3.144,0,1,0,3.144,3.144,3.147,3.147,0,0,0-3.144-3.144" transform="translate(-8.975 -12.35)"/>
    <path id="패스_10549" data-name="패스 10549" d="M39.836,57.591H46.75L69.392,7.548H62.477Z" transform="translate(-6.982 -1.323)" fill="#fff"/>
    <path id="패스_10550" data-name="패스 10550" d="M46.663,57.914H39.749a.411.411,0,0,1-.374-.579L62.017,7.292a.411.411,0,0,1,.374-.242h6.914a.41.41,0,0,1,.374.58L47.037,57.673a.41.41,0,0,1-.374.241m-6.279-.821H46.4L68.669,7.871H62.656Z" transform="translate(-6.895 -1.236)"/>
    <path id="패스_10551" data-name="패스 10551" d="M80.549,35.194H72.544a4.4,4.4,0,0,1-4.4-4.4v-1.1a4.4,4.4,0,0,1,4.4-4.4h8.006a4.4,4.4,0,0,1,4.4,4.4v1.1a4.4,4.4,0,0,1-4.4,4.4" transform="translate(-11.944 -4.434)" fill="#fff"/>
    <path id="패스_10552" data-name="패스 10552" d="M79.912,35.517H73.006a5.36,5.36,0,1,1,0-10.72h6.906a5.36,5.36,0,1,1,0,10.72m-6.906-9.9a4.539,4.539,0,0,0,0,9.079h6.906a4.539,4.539,0,1,0,0-9.079Z" transform="translate(-11.857 -4.346)"/>
    <path id="패스_10553" data-name="패스 10553" d="M83.657,47.2H72.543a4.4,4.4,0,0,1-4.4-4.4V41.7a4.4,4.4,0,0,1,4.4-4.4H83.657a4.4,4.4,0,0,1,4.4,4.4v1.1a4.4,4.4,0,0,1-4.4,4.4" transform="translate(-11.944 -6.538)" fill="#fff"/>
    <path id="패스_10554" data-name="패스 10554" d="M83.02,47.52H73.006a5.36,5.36,0,0,1,0-10.72H83.02a5.36,5.36,0,0,1,0,10.72m-10.015-9.9a4.539,4.539,0,0,0,0,9.079H83.02a4.539,4.539,0,0,0,0-9.079Z" transform="translate(-11.857 -6.45)"/>
    <path id="패스_10555" data-name="패스 10555" d="M83.657,59.2H72.543a4.4,4.4,0,0,1-4.4-4.4V53.7a4.4,4.4,0,0,1,4.4-4.4H83.657a4.4,4.4,0,0,1,4.4,4.4v1.1a4.4,4.4,0,0,1-4.4,4.4" transform="translate(-11.944 -8.641)" fill="#fff"/>
    <path id="패스_10556" data-name="패스 10556" d="M83.02,59.523H73.006a5.36,5.36,0,0,1,0-10.72H83.02a5.36,5.36,0,0,1,0,10.72m-10.015-9.9a4.539,4.539,0,0,0,0,9.079H83.02a4.539,4.539,0,0,0,0-9.079Z" transform="translate(-11.857 -8.554)"/>
    <path id="패스_10557" data-name="패스 10557" d="M80.549,71.2H72.544a4.4,4.4,0,0,1-4.4-4.4V65.7a4.4,4.4,0,0,1,4.4-4.4h8.006a4.4,4.4,0,0,1,4.4,4.4v1.1a4.4,4.4,0,0,1-4.4,4.4" transform="translate(-11.944 -10.745)" fill="#fff"/>
    <path id="패스_10558" data-name="패스 10558" d="M79.912,71.526H73.006a5.36,5.36,0,0,1,0-10.72h6.906a5.36,5.36,0,1,1,0,10.72m-6.906-9.9a4.539,4.539,0,0,0,0,9.079h6.906a4.539,4.539,0,1,0,0-9.079Z" transform="translate(-11.857 -10.658)"/>
    <path id="패스_10559" data-name="패스 10559" d="M27.914,57.526A16.493,16.493,0,0,1,38.44,37.109a4.949,4.949,0,0,0-3.155-9.383A26.394,26.394,0,0,0,18.525,60.682" transform="translate(-3.032 -4.814)" fill="#fff"/>
    <path id="패스_10560" data-name="패스 10560" d="M18.437,61a.41.41,0,0,1-.391-.287A26.8,26.8,0,0,1,35.067,27.249,5.36,5.36,0,1,1,38.482,37.41,16,16,0,0,0,28.219,57.318a.41.41,0,0,1-.785.238A16.817,16.817,0,0,1,38.221,36.632a4.539,4.539,0,0,0-2.893-8.605,25.983,25.983,0,0,0-16.5,32.443.411.411,0,0,1-.267.515.429.429,0,0,1-.124.019" transform="translate(-2.943 -4.727)"/>
  </g>
</svg>
