<svg id="그룹_6927" data-name="그룹 6927" xmlns="http://www.w3.org/2000/svg" xmlns:xlink="http://www.w3.org/1999/xlink" width="89.529" height="89.494" viewBox="0 0 89.529 89.494">
  <defs>
    <clipPath id="clip-path">
      <rect id="사각형_7130" data-name="사각형 7130" width="89.529" height="89.494" fill="none"/>
    </clipPath>
  </defs>
  <g id="그룹_6926" data-name="그룹 6926" clip-path="url(#clip-path)">
    <path id="패스_10330" data-name="패스 10330" d="M64.581,26.653A26.151,26.151,0,0,0,22.055,6.258v0l-.026.025a26.6,26.6,0,0,0-2.34,2.138l-.005-.005L8.364,19.76l4.658.669a26.157,26.157,0,0,0-.754,6.223V52.02A26.175,26.175,0,0,0,43.717,77.639l.635,5.283,12.453-12.3.178-.175.043-.043h0A26.069,26.069,0,0,0,64.581,52.02ZM35.153,61.706a7.494,7.494,0,0,1-6.39-7.408V29.9a7.5,7.5,0,0,1,6.39,7.409Z" transform="translate(-1.064 -0.063)" fill="#82d3ff"/>
    <path id="패스_10331" data-name="패스 10331" d="M26.654,12.837A26.157,26.157,0,0,0,.5,38.993V64.36a26.156,26.156,0,0,0,52.313,0V38.993A26.157,26.157,0,0,0,26.654,12.837m7.5,50.439a7.494,7.494,0,0,1-6.39-7.408v-24.4a7.5,7.5,0,0,1,6.39,7.409Z" transform="translate(-0.063 -1.633)" fill="#cfeeff"/>
    <path id="패스_10332" data-name="패스 10332" d="M38.362,0A26.3,26.3,0,0,0,21.72,5.858h0a.22.22,0,0,0-.029.021A27.27,27.27,0,0,0,19.369,8a.368.368,0,0,0-.057.048L7.994,19.391a.426.426,0,0,0,.023.63,26.3,26.3,0,0,1,4.822-4.258l7.034-7.052a.363.363,0,0,0,.063-.053,26.449,26.449,0,0,1,2.3-2.1l.006-.005.02-.015A25.438,25.438,0,0,1,38.362.868,25.752,25.752,0,0,1,64.084,26.591V51.956a25.566,25.566,0,0,1-7.431,18.081l-.024.026-7.3,7.2a26.292,26.292,0,0,1-5.384,5.862.434.434,0,0,0,.2.141.451.451,0,0,0,.143.024.436.436,0,0,0,.305-.125l12.453-12.3.221-.219a.362.362,0,0,0,.031-.033,26.425,26.425,0,0,0,7.653-18.662V26.591A26.62,26.62,0,0,0,38.362,0" transform="translate(-1)"/>
    <path id="패스_10333" data-name="패스 10333" d="M30.482,58.57v-24.4a7.448,7.448,0,0,0-8.608,7.408v25.6a7.5,7.5,0,1,0,15,0v-1.2a7.493,7.493,0,0,1-6.39-7.408" transform="translate(-2.782 -4.334)" fill="#00a6ff"/>
    <path id="패스_10334" data-name="패스 10334" d="M29.309,75.047a7.942,7.942,0,0,1-7.933-7.933v-25.6a7.884,7.884,0,0,1,9.106-7.838.435.435,0,0,1,.37.43v24.4a7.1,7.1,0,0,0,6.02,6.978.434.434,0,0,1,.37.429v1.2a7.942,7.942,0,0,1-7.933,7.933m0-40.6a7.073,7.073,0,0,0-7.065,7.065v25.6a7.065,7.065,0,1,0,14.129,0V66.28a7.976,7.976,0,0,1-6.39-7.773V34.489a6.21,6.21,0,0,0-.675-.038" transform="translate(-2.719 -4.271)"/>
    <path id="패스_10335" data-name="패스 10335" d="M38.062,66.362A.4.4,0,0,1,38,66.357a7.971,7.971,0,0,1-6.76-7.837v-24.4a.434.434,0,0,1,.5-.43,7.973,7.973,0,0,1,6.76,7.838v24.4a.435.435,0,0,1-.435.435M32.106,34.643V58.519a7.1,7.1,0,0,0,5.521,6.886V41.528a7.1,7.1,0,0,0-5.521-6.886" transform="translate(-3.973 -4.284)"/>
    <rect id="사각형_7128" data-name="사각형 7128" width="23.877" height="6.035" transform="translate(66.099 80.123) rotate(-45)" fill="#00a6ff"/>
    <path id="패스_10336" data-name="패스 10336" d="M79.934,93.976a.437.437,0,0,1-.307-.127L75.36,89.582a.434.434,0,0,1,0-.614L92.243,72.083a.435.435,0,0,1,.614,0l4.267,4.267a.434.434,0,0,1,0,.614L80.241,93.849a.435.435,0,0,1-.307.127m-3.653-4.7,3.653,3.654L96.2,76.658l-3.654-3.653Z" transform="translate(-9.568 -9.151)"/>
    <rect id="사각형_7129" data-name="사각형 7129" width="23.877" height="6.035" transform="translate(63.274 82.949) rotate(-45)" fill="#82d3ff"/>
    <path id="패스_10337" data-name="패스 10337" d="M76.7,97.214a.436.436,0,0,1-.307-.127l-4.266-4.267a.434.434,0,0,1,0-.614L89.006,75.321a.447.447,0,0,1,.614,0l4.267,4.267a.435.435,0,0,1,0,.614L77,97.087a.433.433,0,0,1-.307.127m-3.653-4.7L76.7,96.165,92.967,79.9l-3.654-3.653Z" transform="translate(-9.156 -9.564)"/>
    <path id="패스_10338" data-name="패스 10338" d="M82.033,71.82a5.044,5.044,0,0,0-7.134,0l-2.825,2.825,7.134,7.134,2.825-2.825a5.044,5.044,0,0,0,0-7.134" transform="translate(-9.166 -8.946)" fill="#00a6ff"/>
    <path id="패스_10339" data-name="패스 10339" d="M79.145,82.149a.433.433,0,0,1-.307-.127L71.7,74.888a.434.434,0,0,1,0-.614l2.825-2.825A5.479,5.479,0,0,1,82.278,79.2l-2.825,2.825a.436.436,0,0,1-.307.127m-6.52-7.568,6.52,6.52,2.518-2.518a4.61,4.61,0,0,0-6.52-6.52Z" transform="translate(-9.103 -8.883)"/>
    <path id="패스_10340" data-name="패스 10340" d="M98.924,88.718a5.044,5.044,0,0,0-7.134,0l-2.877,2.911,7.134,7.134,2.877-2.912a5.044,5.044,0,0,0,0-7.134" transform="translate(-11.308 -11.095)" fill="#00a6ff"/>
    <path id="패스_10341" data-name="패스 10341" d="M95.985,99.135a.43.43,0,0,1-.307-.127l-7.134-7.134a.433.433,0,0,1,0-.612l2.876-2.912a5.479,5.479,0,1,1,7.75,7.746l-2.875,2.909a.43.43,0,0,1-.307.129Zm-6.522-7.57,6.52,6.52,2.569-2.6a4.61,4.61,0,1,0-6.517-6.522Z" transform="translate(-11.245 -11.032)"/>
    <path id="패스_10342" data-name="패스 10342" d="M78.992,82.19a5.044,5.044,0,1,1,0-7.134,5.044,5.044,0,0,1,0,7.134" transform="translate(-8.951 -9.358)" fill="#82d3ff"/>
    <path id="패스_10343" data-name="패스 10343" d="M75.363,84.039a5.479,5.479,0,1,1,3.874-1.6,5.444,5.444,0,0,1-3.874,1.6m0-10.086a4.606,4.606,0,1,0,3.26,1.348,4.6,4.6,0,0,0-3.26-1.348" transform="translate(-8.888 -9.295)"/>
    <path id="패스_10344" data-name="패스 10344" d="M95.891,99.089a5.044,5.044,0,1,1,0-7.134,5.044,5.044,0,0,1,0,7.134" transform="translate(-11.1 -11.507)" fill="#82d3ff"/>
    <path id="패스_10345" data-name="패스 10345" d="M92.261,100.937a5.478,5.478,0,1,1,3.874-1.6,5.442,5.442,0,0,1-3.874,1.6m0-10.088a4.609,4.609,0,1,0,3.26,1.349,4.582,4.582,0,0,0-3.26-1.349m3.567,8.177h0Z" transform="translate(-11.037 -11.444)"/>
    <path id="패스_10346" data-name="패스 10346" d="M26.591,90.887A26.62,26.62,0,0,1,0,64.3V38.93a26.591,26.591,0,0,1,53.181,0V64.3A26.62,26.62,0,0,1,26.591,90.887m0-77.679A25.751,25.751,0,0,0,.868,38.93V64.3a25.722,25.722,0,0,0,51.444,0V38.93A25.751,25.751,0,0,0,26.591,13.208" transform="translate(0 -1.569)"/>
  </g>
</svg>
