<svg id="그룹_6943" data-name="그룹 6943" xmlns="http://www.w3.org/2000/svg" xmlns:xlink="http://www.w3.org/1999/xlink" width="90.184" height="89.494" viewBox="0 0 90.184 89.494">
  <defs>
    <clipPath id="clip-path">
      <rect id="사각형_7148" data-name="사각형 7148" width="90.184" height="89.494" fill="none"/>
    </clipPath>
  </defs>
  <rect id="사각형_7135" data-name="사각형 7135" width="60.109" height="9.346" transform="translate(29.66 0.414)" fill="#cfeeff"/>
  <g id="그룹_6942" data-name="그룹 6942" transform="translate(0 0)">
    <g id="그룹_6941" data-name="그룹 6941" clip-path="url(#clip-path)">
      <path id="패스_10374" data-name="패스 10374" d="M95.608,10.175H35.5a.415.415,0,0,1-.415-.414V.414A.414.414,0,0,1,35.5,0H95.608a.414.414,0,0,1,.415.414V9.76a.415.415,0,0,1-.415.414m-59.7-.829h59.28V.829H35.912Z" transform="translate(-5.839 0)"/>
      <rect id="사각형_7136" data-name="사각형 7136" width="53.101" height="59.047" transform="translate(33.164 9.76)" fill="#fff"/>
      <path id="패스_10375" data-name="패스 10375" d="M92.8,71.088H39.7a.414.414,0,0,1-.414-.414V11.626a.414.414,0,0,1,.414-.415H92.8a.415.415,0,0,1,.415.415V70.674a.414.414,0,0,1-.415.414m-52.685-.829h52.27V12.04H40.117Z" transform="translate(-6.538 -1.866)"/>
      <rect id="사각형_7137" data-name="사각형 7137" width="8.046" height="9.951" transform="translate(41.932 32.709)" fill="#82d3ff"/>
      <path id="패스_10376" data-name="패스 10376" d="M58.266,49.522H50.221a.414.414,0,0,1-.415-.414V39.155a.414.414,0,0,1,.415-.414h8.045a.414.414,0,0,1,.415.414v9.952a.415.415,0,0,1-.415.414m-7.631-.829h7.215V39.57H50.635Z" transform="translate(-8.289 -6.447)"/>
      <rect id="사각형_7138" data-name="사각형 7138" width="8.046" height="9.951" transform="translate(55.691 32.709)" fill="#82d3ff"/>
      <path id="패스_10377" data-name="패스 10377" d="M74.773,49.522H66.727a.415.415,0,0,1-.415-.414V39.155a.414.414,0,0,1,.415-.414h8.046a.414.414,0,0,1,.414.414v9.952a.414.414,0,0,1-.414.414m-7.631-.829h7.215V39.57H67.142Z" transform="translate(-11.036 -6.447)"/>
      <rect id="사각형_7139" data-name="사각형 7139" width="8.046" height="9.951" transform="translate(69.45 32.709)" fill="#82d3ff"/>
      <path id="패스_10378" data-name="패스 10378" d="M91.279,49.522H83.234a.415.415,0,0,1-.415-.414V39.155a.414.414,0,0,1,.415-.414h8.045a.414.414,0,0,1,.415.414v9.952a.415.415,0,0,1-.415.414m-7.631-.829h7.215V39.57H83.648Z" transform="translate(-13.783 -6.447)"/>
      <rect id="사각형_7140" data-name="사각형 7140" width="8.046" height="9.951" transform="translate(41.932 16.633)" fill="#82d3ff"/>
      <path id="패스_10379" data-name="패스 10379" d="M58.266,30.237H50.221a.414.414,0,0,1-.415-.414V19.87a.415.415,0,0,1,.415-.415h8.045a.415.415,0,0,1,.415.415v9.952a.415.415,0,0,1-.415.414m-7.631-.829h7.215V20.285H50.635Z" transform="translate(-8.289 -3.238)"/>
      <rect id="사각형_7141" data-name="사각형 7141" width="8.046" height="9.951" transform="translate(55.691 16.633)" fill="#82d3ff"/>
      <path id="패스_10380" data-name="패스 10380" d="M74.773,30.237H66.727a.415.415,0,0,1-.415-.414V19.87a.415.415,0,0,1,.415-.415h8.046a.414.414,0,0,1,.414.415v9.952a.414.414,0,0,1-.414.414m-7.631-.829h7.215V20.285H67.142Z" transform="translate(-11.036 -3.238)"/>
      <rect id="사각형_7142" data-name="사각형 7142" width="8.046" height="9.951" transform="translate(69.45 16.633)" fill="#82d3ff"/>
      <path id="패스_10381" data-name="패스 10381" d="M91.279,30.237H83.234a.415.415,0,0,1-.415-.414V19.87a.415.415,0,0,1,.415-.415h8.045a.415.415,0,0,1,.415.415v9.952a.415.415,0,0,1-.415.414m-7.631-.829h7.215V20.285H83.648Z" transform="translate(-13.783 -3.238)"/>
      <rect id="사각형_7143" data-name="사각형 7143" width="8.046" height="9.951" transform="translate(41.932 48.784)" fill="#82d3ff"/>
      <path id="패스_10382" data-name="패스 10382" d="M58.266,68.807H50.221a.414.414,0,0,1-.415-.414V58.44a.414.414,0,0,1,.415-.414h8.045a.414.414,0,0,1,.415.414v9.952a.414.414,0,0,1-.415.414m-7.631-.829h7.215V58.855H50.635Z" transform="translate(-8.289 -9.657)"/>
      <rect id="사각형_7144" data-name="사각형 7144" width="8.046" height="9.951" transform="translate(55.691 48.784)" fill="#82d3ff"/>
      <path id="패스_10383" data-name="패스 10383" d="M74.773,68.807H66.727a.414.414,0,0,1-.415-.414V58.44a.414.414,0,0,1,.415-.414h8.046a.414.414,0,0,1,.414.414v9.952a.414.414,0,0,1-.414.414m-7.631-.829h7.215V58.855H67.142Z" transform="translate(-11.036 -9.657)"/>
      <rect id="사각형_7145" data-name="사각형 7145" width="8.046" height="13.744" transform="translate(69.45 48.784)" fill="#00a6ff"/>
      <path id="패스_10384" data-name="패스 10384" d="M91.279,72.6H83.234a.415.415,0,0,1-.415-.415V58.44a.414.414,0,0,1,.415-.414h8.045a.414.414,0,0,1,.415.414V72.184a.415.415,0,0,1-.415.415m-7.631-.829h7.215V58.855H83.648Z" transform="translate(-13.783 -9.657)"/>
      <rect id="사각형_7146" data-name="사각형 7146" width="10.442" height="3.14" transform="translate(68.253 62.528)" fill="#cfeeff"/>
      <path id="패스_10385" data-name="패스 10385" d="M92.239,78.484H81.8a.414.414,0,0,1-.414-.415v-3.14a.414.414,0,0,1,.414-.414H92.239a.414.414,0,0,1,.415.414v3.14a.415.415,0,0,1-.415.415m-10.027-.83h9.613v-2.31H82.211Z" transform="translate(-13.544 -12.401)"/>
      <rect id="사각형_7147" data-name="사각형 7147" width="11.699" height="3.14" transform="translate(67.624 65.668)" fill="#cfeeff"/>
      <path id="패스_10386" data-name="패스 10386" d="M92.741,82.25h-11.7a.414.414,0,0,1-.415-.414V78.7a.415.415,0,0,1,.415-.415h11.7a.415.415,0,0,1,.415.415v3.14a.414.414,0,0,1-.415.414M81.456,81.42h10.87V79.109H81.456Z" transform="translate(-13.418 -13.027)"/>
      <path id="패스_10387" data-name="패스 10387" d="M40.474,87.748H9.328l-6.9-10.767C-2.94,67.153,3.552,54.725,14.447,54.344q.273-.01.548-.01H33.362q.275,0,.548.01c10.561.369,17.323,11.858,13.109,21.895Z" transform="translate(-0.084 -9.042)" fill="#fff"/>
      <path id="패스_10388" data-name="패스 10388" d="M40.389,88.079H9.244a.413.413,0,0,1-.349-.191l-6.9-10.767a16.029,16.029,0,0,1,.147-15.734,14.639,14.639,0,0,1,12.211-7.541q.28-.01.562-.01H33.277q.283,0,.562.01A14.941,14.941,0,0,1,46,60.919a16.627,16.627,0,0,1,1.318,15.4.31.31,0,0,1-.022.044L40.75,87.869a.415.415,0,0,1-.361.21M9.47,87.25H40.148l6.413-11.277A15.8,15.8,0,0,0,45.3,61.367a14.122,14.122,0,0,0-11.488-6.692c-.177-.006-.355-.009-.533-.009H14.91q-.268,0-.533.009A13.814,13.814,0,0,0,2.858,61.8,15.194,15.194,0,0,0,2.7,76.7Z" transform="translate(0 -8.959)"/>
      <path id="패스_10389" data-name="패스 10389" d="M11.178,32.572a2.469,2.469,0,0,1,1.455-.182,4.49,4.49,0,0,1,1.93,1.965l0,0c.058.1.114.2.17.294l.039.071c.046.082.089.164.133.248.012.021.023.042.033.063.107.208.208.416.3.622.008.019.017.038.026.057l.113.253.027.063c.087.2.168.4.241.584l.017.042c.032.078.061.156.088.231.008.018.015.037.022.056.029.078.058.154.083.227l.008.019.083.238.005.014c.023.067.045.128.064.188.005.014.01.028.014.043l.048.145.008.026.078.248.007.024c.007.021.011.037.016.049l0,.012.006.019-.361-3.671C24.632,27.406,23.6,24.38,23.6,24.38c.258.043.508.083.754.121l.27.04c.15.023.3.044.446.064l.333.044.34.043c.126.015.252.031.375.044l.215.023q1.105.119,2.069.163a23.944,23.944,0,0,0,2.662-.011l.038,0c.171-.011.335-.025.5-.04l.115-.012c.133-.013.263-.028.391-.044l.136-.018c.122-.017.239-.035.354-.053l.124-.02q.226-.039.439-.083c4.075-.853,4.21-3.136,4.21-3.136-4.393,1-5.175-2.041-5.175-2.041a11.954,11.954,0,0,0-1.27-3.23c-1.611-2.838-5.7-2.572-7.411-2a11.49,11.49,0,0,0-5.247,4.184s-10.822.651-10.782,7.406c.035,6,2.51,7.927,2.51,7.927h0a2.513,2.513,0,0,1,1.189-1.18" transform="translate(-1.245 -2.307)" fill="#00a6ff"/>
      <path id="패스_10390" data-name="패스 10390" d="M16.116,38.527a.415.415,0,0,1-.4-.3c0-.008-.01-.036-.012-.044l-.018-.053-.13-.405-.015-.045-.347-.953.349-.182v0l-.364.143c-.073-.183-.152-.374-.237-.572l-.137-.31.351-.228-.377.173c-.092-.2-.19-.4-.293-.605l.336-.253-.368.192c-.043-.08-.085-.16-.129-.24l-.038-.07c-.052-.093-.106-.187-.161-.28l0,0A4.189,4.189,0,0,0,12.44,32.71a2.023,2.023,0,0,0-1.17.156,2.1,2.1,0,0,0-.992.989.415.415,0,0,1-.472.217A.432.432,0,0,1,9.652,34c-.108-.084-2.634-2.121-2.67-8.252-.018-2.952,1.935-5.243,5.646-6.627a21.468,21.468,0,0,1,5.331-1.18,11.722,11.722,0,0,1,5.335-4.177c1.824-.615,6.158-.891,7.9,2.184a12.21,12.21,0,0,1,1.314,3.344c.025.093.756,2.622,4.677,1.727a.415.415,0,0,1,.507.429c-.007.106-.2,2.61-4.54,3.517-.147.031-.3.059-.454.086l-.128.021q-.178.029-.363.055l-.142.018c-.131.017-.264.033-.4.046l-.118.012c-.164.016-.332.03-.505.042a24.458,24.458,0,0,1-2.749.014c-.658-.031-1.361-.087-2.092-.165l-2-.262-.238-.037c-.063,1.255-1.067,4.36-7.778,9.83l.339,3.449a.415.415,0,0,1-.337.448.405.405,0,0,1-.077.008m-1.28-4.47,0,.005q.089.151.175.305l.041.074c.046.084.092.169.136.254l.035.067c.062.121.123.242.18.363l-.063-.644a.414.414,0,0,1,.153-.363c8.335-6.746,7.635-9.66,7.626-9.687a.414.414,0,0,1,.461-.543c.255.043.5.082.749.12l1.96.256c.714.078,1.4.132,2.043.162a23.636,23.636,0,0,0,2.616-.011c.2-.014.364-.028.522-.042l.1-.01c.146-.014.273-.029.4-.045L32.1,24.3c.116-.016.229-.033.342-.051l.122-.02q.219-.038.424-.08c2.467-.516,3.368-1.549,3.7-2.195-4.133.612-4.969-2.44-4.977-2.472a11.587,11.587,0,0,0-1.217-3.11c-1.487-2.619-5.38-2.349-6.929-1.826a10.942,10.942,0,0,0-5.045,4.035.418.418,0,0,1-.309.169c-.105.007-10.43.706-10.393,6.989C7.837,30.1,9.193,32.234,9.834,33a2.848,2.848,0,0,1,1.088-.888,2.911,2.911,0,0,1,1.7-.214.408.408,0,0,1,.082.022,4.783,4.783,0,0,1,2.136,2.137M11.1,32.49h0Z" transform="translate(-1.162 -2.225)"/>
      <path id="패스_10391" data-name="패스 10391" d="M28.488,26.735c-.147-.02-.3-.042-.446-.064.149.023.3.044.446.064" transform="translate(-4.667 -4.439)" fill="#00a6ff"/>
      <path id="패스_10392" data-name="패스 10392" d="M28.406,27.068a.346.346,0,0,1-.058,0L27.9,27a.415.415,0,0,1,.121-.821l.444.064a.415.415,0,0,1-.057.825" transform="translate(-4.584 -4.356)"/>
      <path id="패스_10393" data-name="패스 10393" d="M36.522,27.052l-.115.012.115-.012" transform="translate(-6.059 -4.502)" fill="#00a6ff"/>
      <path id="패스_10394" data-name="패스 10394" d="M36.323,27.4a.415.415,0,0,1-.413-.376.315.315,0,0,1,0-.039.415.415,0,0,1,.375-.413l.1-.009.058.411.025.414-.1.01-.04,0" transform="translate(-5.976 -4.42)"/>
      <path id="패스_10395" data-name="패스 10395" d="M30.05,26.93l-.215-.023.215.023" transform="translate(-4.965 -4.478)" fill="#00a6ff"/>
      <path id="패스_10396" data-name="패스 10396" d="M29.967,27.262l-.044,0-.218-.023a.415.415,0,0,1-.368-.412.3.3,0,0,1,0-.048.407.407,0,0,1,.458-.365l.213.023a.414.414,0,0,1,.371.411.434.434,0,0,1,0,.046.414.414,0,0,1-.412.37" transform="translate(-4.882 -4.395)"/>
      <path id="패스_10397" data-name="패스 10397" d="M37.726,26.889l-.125.02.125-.02" transform="translate(-6.258 -4.475)" fill="#00a6ff"/>
      <path id="패스_10398" data-name="패스 10398" d="M37.518,27.241a.416.416,0,0,1-.409-.348.46.46,0,0,1-.005-.068.415.415,0,0,1,.348-.408l.123-.019a.415.415,0,0,1,.138.818l-.128.021a.458.458,0,0,1-.067.005" transform="translate(-6.175 -4.392)"/>
      <path id="패스_10399" data-name="패스 10399" d="M37.151,26.977l-.137.018.137-.018" transform="translate(-6.16 -4.49)" fill="#00a6ff"/>
      <path id="패스_10400" data-name="패스 10400" d="M36.93,27.327a.414.414,0,0,1-.411-.362.39.39,0,0,1,0-.053.414.414,0,0,1,.362-.411l.134-.018a.415.415,0,1,1,.111.822l-.139.018a.39.39,0,0,1-.053,0" transform="translate(-6.077 -4.407)"/>
      <path id="패스_10401" data-name="패스 10401" d="M35.806,27.114l-.039,0,.039,0" transform="translate(-5.952 -4.512)" fill="#00a6ff"/>
      <path id="패스_10402" data-name="패스 10402" d="M35.8,27.447l-.071-.827.046,0a.416.416,0,0,1,.439.388v.025a.415.415,0,0,1-.39.414l-.025-.414Z" transform="translate(-5.946 -4.43)"/>
      <path id="패스_10403" data-name="패스 10403" d="M27.568,26.6c-.248-.038-.5-.078-.755-.121.257.043.508.083.755.121" transform="translate(-4.462 -4.407)" fill="#00a6ff"/>
      <path id="패스_10404" data-name="패스 10404" d="M27.486,26.932a.405.405,0,0,1-.063-.005h0c-.248-.038-.5-.078-.758-.122a.414.414,0,0,1-.345-.408.5.5,0,0,1,.006-.07.412.412,0,0,1,.478-.339l.018,0c.249.042.492.08.732.118a.415.415,0,0,1-.063.824" transform="translate(-4.38 -4.324)"/>
      <path id="패스_10405" data-name="패스 10405" d="M29.316,26.844l-.341-.043.341.043" transform="translate(-4.822 -4.46)" fill="#00a6ff"/>
      <path id="패스_10406" data-name="패스 10406" d="M29.234,27.177a.355.355,0,0,1-.051,0l-.344-.043a.415.415,0,0,1,.107-.823l.338.043a.415.415,0,0,1,.364.412.355.355,0,0,1,0,.051.414.414,0,0,1-.411.364" transform="translate(-4.739 -4.378)"/>
      <path id="패스_10407" data-name="패스 10407" d="M16.935,40.328q-.055-.125-.113-.253.058.128.113.253" transform="translate(-2.8 -6.669)" fill="#00a6ff"/>
      <path id="패스_10408" data-name="패스 10408" d="M16.853,40.66a.414.414,0,0,1-.38-.249l-.11-.248a.415.415,0,0,1,.755-.343h0l.115.258a.415.415,0,0,1-.214.546.421.421,0,0,1-.166.035" transform="translate(-2.717 -6.586)"/>
      <path id="패스_10409" data-name="패스 10409" d="M16.731,39.882c-.094-.206-.2-.414-.3-.622.107.208.208.416.3.622" transform="translate(-2.734 -6.534)" fill="#00a6ff"/>
      <path id="패스_10410" data-name="패스 10410" d="M16.648,40.214a.416.416,0,0,1-.378-.242c-.092-.2-.19-.4-.293-.605a.408.408,0,0,1-.046-.189.415.415,0,0,1,.784-.19c.109.213.213.428.31.639a.411.411,0,0,1,.038.173.414.414,0,0,1-.414.415" transform="translate(-2.651 -6.451)"/>
      <path id="패스_10411" data-name="패스 10411" d="M17.232,41.038c-.073-.187-.154-.383-.241-.584.087.2.168.4.241.584" transform="translate(-2.828 -6.732)" fill="#00a6ff"/>
      <path id="패스_10412" data-name="패스 10412" d="M17.149,41.371a.415.415,0,0,1-.386-.263c-.073-.183-.151-.375-.236-.572a.415.415,0,1,1,.761-.329c.088.2.169.4.243.589l0,.007a.415.415,0,0,1-.233.538.41.41,0,0,1-.153.029" transform="translate(-2.745 -6.65)"/>
      <path id="패스_10413" data-name="패스 10413" d="M16.15,38.744c-.055-.1-.113-.2-.171-.3.058.1.116.2.171.3" transform="translate(-2.659 -6.399)" fill="#00a6ff"/>
      <path id="패스_10414" data-name="패스 10414" d="M16.067,39.075a.415.415,0,0,1-.363-.213c-.053-.1-.108-.191-.163-.284a.415.415,0,1,1,.712-.425c.06.1.118.2.176.3a.416.416,0,0,1-.16.565.41.41,0,0,1-.2.053" transform="translate(-2.577 -6.316)"/>
      <path id="패스_10415" data-name="패스 10415" d="M37.76,34.831a11.806,11.806,0,0,0-4.174-8.092c-.142.03-.288.057-.439.083l-.125.02q-.173.028-.353.053l-.138.018c-.127.017-.258.032-.391.045l-.115.012q-.24.023-.493.04l-.039,0a27.685,27.685,0,0,1-4.731-.152l-.215-.023-.375-.045-.341-.043L25.5,26.7l-.447-.064-.268-.04c-.248-.038-.5-.078-.755-.121,0,0,1.036,3.026-7.757,10.144l.361,3.671-.006-.019,0-.013-.015-.048a.159.159,0,0,0-.007-.024c-.018-.06-.044-.143-.078-.248l-.008-.026c-.015-.045-.031-.094-.048-.146-.005-.014-.009-.028-.014-.043-.02-.058-.041-.121-.064-.187l0-.015c-.026-.075-.054-.154-.084-.238l-.008-.019c-.026-.073-.054-.149-.083-.228l-.022-.056c-.028-.075-.058-.152-.088-.231l-.017-.042c-.073-.187-.154-.383-.241-.584l-.028-.063q-.055-.125-.113-.253l-.026-.057c-.1-.206-.2-.415-.3-.622l-.033-.064c-.043-.083-.088-.165-.133-.247l-.039-.071q-.083-.149-.17-.3v0a4.5,4.5,0,0,0-1.931-1.966,2.476,2.476,0,0,0-1.455.183,2.513,2.513,0,0,0-1.189,1.18,3.707,3.707,0,0,0,.046,3.178c.806,1.743,2.625,2.617,4.062,1.951a2.413,2.413,0,0,0,.6-.4,11.88,11.88,0,0,0,5.621,5.837v2.224a4.456,4.456,0,0,0,4.456,4.455h2.164a3.931,3.931,0,0,0,3.931-3.931V46.339A11.836,11.836,0,0,0,37.76,34.831" transform="translate(-1.679 -4.407)" fill="#fff"/>
      <path id="패스_10416" data-name="패스 10416" d="M27.294,53.427H25.129a4.876,4.876,0,0,1-4.871-4.871V46.588a12.3,12.3,0,0,1-5.366-5.457,2.7,2.7,0,0,1-.269.144A3.027,3.027,0,0,1,12,41.2a4.27,4.27,0,0,1-1.991-2.078,4.126,4.126,0,0,1-.04-3.539A2.848,2.848,0,0,1,13.052,34a.464.464,0,0,1,.083.023,4.778,4.778,0,0,1,2.135,2.137l0,.005c.06.1.118.2.176.305l.021.038c.066.12.112.205.156.29l.035.066c.062.121.123.243.18.363l-.063-.644a.414.414,0,0,1,.153-.363c8.316-6.731,7.629-9.67,7.621-9.7a.425.425,0,0,1,.091-.393.417.417,0,0,1,.374-.138c.255.043.5.083.749.12l1.96.257a27.458,27.458,0,0,0,4.659.151c.2-.014.364-.027.521-.043l.1-.009c.145-.015.272-.029.4-.045l.134-.018c.116-.016.229-.033.342-.051L33,26.33c.144-.025.287-.052.423-.08a.416.416,0,0,1,.353.089A12.237,12.237,0,0,1,31.64,46.508V49.08a4.351,4.351,0,0,1-4.346,4.346M15.052,40.08a.376.376,0,0,1,.086.009.416.416,0,0,1,.293.238,11.467,11.467,0,0,0,5.425,5.633.413.413,0,0,1,.232.372v2.224a4.045,4.045,0,0,0,4.041,4.04h2.165a3.521,3.521,0,0,0,3.517-3.516V46.256a.414.414,0,0,1,.227-.369A11.42,11.42,0,0,0,37.264,34.78,11.3,11.3,0,0,0,33.387,27.1l-.251.046-.129.021c-.118.019-.239.038-.363.054l-.141.018c-.13.017-.264.032-.4.046l-.118.012c-.163.016-.333.03-.505.041a28.232,28.232,0,0,1-4.841-.15l-2-.262-.237-.037c-.064,1.255-1.067,4.36-7.778,9.83l.339,3.449a.415.415,0,0,1-.814.148c0-.006-.013-.043-.013-.048l-.006-.012-.139-.438-.015-.045-.365-1c-.07-.175-.148-.367-.233-.564l-.138-.309.352-.228-.377.173c-.093-.2-.19-.4-.294-.605l.336-.253-.367.193c-.043-.08-.085-.16-.129-.24l.325-.27-.363.2c-.053-.1-.107-.189-.162-.283l0,0a4.187,4.187,0,0,0-1.685-1.776,2.028,2.028,0,0,0-1.17.156,2.1,2.1,0,0,0-.992.99,3.291,3.291,0,0,0,.051,2.818,3.439,3.439,0,0,0,1.6,1.679,2.216,2.216,0,0,0,1.914.071,1.976,1.976,0,0,0,.5-.335.413.413,0,0,1,.278-.108" transform="translate(-1.596 -4.324)"/>
      <path id="패스_10417" data-name="패스 10417" d="M17.388,41.436c-.028-.075-.058-.152-.089-.231.031.078.061.156.089.231" transform="translate(-2.879 -6.857)" fill="#00a6ff"/>
      <path id="패스_10418" data-name="패스 10418" d="M17.305,41.768a.416.416,0,0,1-.388-.268l-.087-.227a.42.42,0,0,1-.028-.151.415.415,0,0,1,.8-.151l.091.235a.415.415,0,0,1-.388.562" transform="translate(-2.796 -6.775)"/>
      <path id="패스_10419" data-name="패스 10419" d="M16.363,39.135q-.065-.124-.133-.248.068.124.133.248" transform="translate(-2.701 -6.472)" fill="#00a6ff"/>
      <path id="패스_10420" data-name="패스 10420" d="M16.281,39.467a.414.414,0,0,1-.368-.223c-.043-.08-.085-.16-.129-.24a.415.415,0,0,1,.165-.563.414.414,0,0,1,.563.165c.046.084.092.169.136.254a.405.405,0,0,1,.048.192.414.414,0,0,1-.223.368.408.408,0,0,1-.192.048" transform="translate(-2.618 -6.389)"/>
      <path id="패스_10421" data-name="패스 10421" d="M17.926,43c0-.013-.008-.028-.015-.048l.015.048" transform="translate(-2.981 -7.149)" fill="#00a6ff"/>
      <path id="패스_10422" data-name="패스 10422" d="M17.844,43.337a.414.414,0,0,1-.4-.3L17.434,43a.415.415,0,0,1,.789-.253l.018.058a.413.413,0,0,1-.278.515.42.42,0,0,1-.118.018" transform="translate(-2.898 -7.066)"/>
      <path id="패스_10423" data-name="패스 10423" d="M17.789,42.569l-.048-.145c.018.052.034.1.048.145" transform="translate(-2.952 -7.06)" fill="#00a6ff"/>
      <path id="패스_10424" data-name="패스 10424" d="M17.707,42.9a.416.416,0,0,1-.393-.283l-.048-.145a.415.415,0,0,1,.787-.264h0l.049.148a.415.415,0,0,1-.394.543" transform="translate(-2.87 -6.977)"/>
      <path id="패스_10425" data-name="패스 10425" d="M17.887,42.877c-.018-.059-.044-.143-.078-.248.034.1.06.188.078.248" transform="translate(-2.964 -7.094)" fill="#00a6ff"/>
      <path id="패스_10426" data-name="패스 10426" d="M17.8,43.209a.416.416,0,0,1-.4-.293l-.076-.242a.415.415,0,0,1,.789-.254l.08.253a.405.405,0,0,1,.018.121.415.415,0,0,1-.415.415" transform="translate(-2.881 -7.012)"/>
      <path id="패스_10427" data-name="패스 10427" d="M17.939,43.048l-.006-.019.006.019" transform="translate(-2.984 -7.161)" fill="#00a6ff"/>
      <path id="패스_10428" data-name="패스 10428" d="M17.857,43.381a.416.416,0,0,1-.4-.3v-.006a.422.422,0,0,1,.279-.516.408.408,0,0,1,.512.268c0,.01.008.029.01.035a.416.416,0,0,1-.4.522" transform="translate(-2.903 -7.079)"/>
      <path id="패스_10429" data-name="패스 10429" d="M17.515,41.777c-.027-.073-.054-.149-.084-.228.03.078.058.154.084.228" transform="translate(-2.901 -6.915)" fill="#00a6ff"/>
      <path id="패스_10430" data-name="패스 10430" d="M17.432,42.109a.414.414,0,0,1-.39-.274l-.082-.221a.432.432,0,0,1-.026-.147.414.414,0,0,1,.8-.148l.087.234a.415.415,0,0,1-.249.53.423.423,0,0,1-.142.025" transform="translate(-2.818 -6.832)"/>
      <path id="패스_10431" data-name="패스 10431" d="M17.711,42.335c-.02-.059-.041-.121-.064-.187.023.066.044.128.064.187" transform="translate(-2.937 -7.014)" fill="#00a6ff"/>
      <path id="패스_10432" data-name="패스 10432" d="M17.628,42.667a.414.414,0,0,1-.393-.284l-.063-.181a.415.415,0,0,1,.784-.273l.066.193a.415.415,0,0,1-.263.524.42.42,0,0,1-.13.021" transform="translate(-2.854 -6.931)"/>
      <path id="패스_10433" data-name="패스 10433" d="M17.624,42.083c-.026-.075-.054-.154-.084-.238.03.083.058.163.084.238" transform="translate(-2.919 -6.964)" fill="#00a6ff"/>
      <path id="패스_10434" data-name="패스 10434" d="M17.541,42.415a.413.413,0,0,1-.391-.278l-.083-.234a.415.415,0,1,1,.78-.282l.086.242a.415.415,0,0,1-.392.552" transform="translate(-2.836 -6.881)"/>
      <path id="패스_10435" data-name="패스 10435" d="M31.489,35.5s1.352,2.444,2.191,2.621l-2.563.456" transform="translate(-5.178 -5.909)" fill="#fff"/>
      <path id="패스_10436" data-name="패스 10436" d="M31.032,38.912a.415.415,0,0,1-.072-.823l1.6-.286a11.608,11.608,0,0,1-1.52-2.182.414.414,0,1,1,.725-.4c.609,1.1,1.524,2.333,1.913,2.415a.415.415,0,0,1-.013.814l-2.564.456a.356.356,0,0,1-.073.007" transform="translate(-5.096 -5.826)"/>
      <path id="패스_10437" data-name="패스 10437" d="M25.349,35.893a.389.389,0,1,1-.389-.389.389.389,0,0,1,.389.389" transform="translate(-4.089 -5.909)"/>
      <path id="패스_10438" data-name="패스 10438" d="M24.876,36.614a.8.8,0,1,1,.8-.8.805.805,0,0,1-.8.8m0-.829-.026.026a.026.026,0,0,0,.026.025Z" transform="translate(-4.006 -5.826)"/>
      <path id="패스_10439" data-name="패스 10439" d="M36.2,33.234a.389.389,0,1,1-.389-.389.389.389,0,0,1,.389.389" transform="translate(-5.895 -5.466)"/>
      <path id="패스_10440" data-name="패스 10440" d="M35.729,33.956a.8.8,0,1,1,.8-.8.805.805,0,0,1-.8.8m0-.829-.026.026a.025.025,0,0,0,.026.025Z" transform="translate(-5.812 -5.383)"/>
      <path id="패스_10441" data-name="패스 10441" d="M26.585,42.551a5.553,5.553,0,0,0,3.776,1.072,5.237,5.237,0,0,0,4.2-2.191" transform="translate(-4.424 -6.895)" fill="#fff"/>
      <path id="패스_10442" data-name="패스 10442" d="M29.9,43.967a5.848,5.848,0,0,1-3.665-1.185.415.415,0,0,1,.542-.628,5.236,5.236,0,0,0,3.482.973,4.79,4.79,0,0,0,3.871-2,.415.415,0,0,1,.7.451,5.623,5.623,0,0,1-4.52,2.379c-.138.008-.274.013-.407.013" transform="translate(-4.341 -6.812)"/>
      <path id="패스_10443" data-name="패스 10443" d="M46.491,93.213a2.424,2.424,0,0,1-.775.54,1.27,1.27,0,0,1-1.377-.305c-.145-.141-.273-.3-.4-.456q-.939-1.1-1.876-2.21l-.121-.143c-.177.136-.339.264-.505.387A5.614,5.614,0,0,1,39,92.042c-.035.006-.071.009-.106.016a.216.216,0,0,0-.2.257.2.2,0,0,0,.263.166c.4-.091.805-.17,1.194-.3a5.344,5.344,0,0,0,1.565-.834c.044-.034.093-.063.157-.105l.1.113L47.6,97.987a.958.958,0,0,1,.007,1.337.974.974,0,0,1-1.509-.047c-.343-.394-.679-.8-1.018-1.2l-3.288-3.873-.059-.07c-.123-.143-.245-.169-.351-.074s-.093.219.028.361q2.642,3.112,5.282,6.225a1.617,1.617,0,0,1,.252.377.991.991,0,0,1-1.642,1.041c-.042-.044-.08-.092-.12-.138l-5.252-6.188c-.148-.175-.269-.213-.383-.119s-.1.218.048.394q2.389,2.815,4.778,5.63a.962.962,0,0,1,.105,1.257.979.979,0,0,1-1.521.128c-.053-.055-.1-.113-.152-.171l-4.7-5.537a.924.924,0,0,0-.137-.143.212.212,0,0,0-.315.269.939.939,0,0,0,.118.158l3.08,3.63a.951.951,0,0,1,.094,1.255.978.978,0,0,1-1.479.153,2.233,2.233,0,0,1-.168-.176q-2.657-3.128-5.314-6.257a5.735,5.735,0,0,1,8.1-8.071,6.179,6.179,0,0,1,.691.687q1.821,2.127,3.627,4.266l.1.116" transform="translate(-5.431 -14.441)" fill="#fff"/>
      <path id="패스_10444" data-name="패스 10444" d="M33.329,96.135c-.137-.218-.283-.432-.408-.657a6.127,6.127,0,0,1-.485-5.021,6,6,0,0,1,2.2-3.031,6.161,6.161,0,0,1,7.609.278,7.127,7.127,0,0,1,.785.785q1.9,2.213,3.774,4.44c.178.208.171.285-.04.464-.158.135-.317.271-.48.4a1.813,1.813,0,0,1-1.193.383l-.122,0s-.006.007-.022.028l.11.129q1.388,1.634,2.774,3.269a1.383,1.383,0,0,1,.183,1.69,1.408,1.408,0,0,1-1.1.7c-.058.007-.118.009-.215.016.128.15.238.273.34.4a1.339,1.339,0,0,1,.158,1.538.842.842,0,0,1-.216.249,2.577,2.577,0,0,1-.563.432,1.284,1.284,0,0,1-1.288-.149l-.114-.078a.205.205,0,0,0-.024.045,1.437,1.437,0,0,1-2.557.679c-.279-.323-.553-.651-.83-.977l-.12-.142c-.018.053-.031.084-.038.117a1.427,1.427,0,0,1-2.327.8.3.3,0,0,0-.066-.038l-5.727-6.747M46.4,93.125l-.1-.116q-1.812-2.134-3.627-4.266a6.179,6.179,0,0,0-.691-.687,5.735,5.735,0,0,0-8.1,8.071q2.656,3.13,5.314,6.257a2.233,2.233,0,0,0,.168.176.978.978,0,0,0,1.479-.153.951.951,0,0,0-.094-1.255l-3.08-3.63a.939.939,0,0,1-.118-.158.212.212,0,0,1,.315-.269.924.924,0,0,1,.137.143l4.7,5.537c.049.058.1.116.152.171a.979.979,0,0,0,1.521-.128.962.962,0,0,0-.105-1.257q-2.388-2.816-4.778-5.63c-.15-.177-.164-.3-.048-.394s.234-.056.383.119l5.252,6.188c.04.047.078.094.12.138a.991.991,0,0,0,1.642-1.041,1.617,1.617,0,0,0-.252-.377q-2.638-3.115-5.282-6.225c-.121-.142-.129-.269-.028-.361s.228-.069.351.074l.059.07,3.288,3.873c.339.4.674.8,1.018,1.2a.974.974,0,0,0,1.509.047A.958.958,0,0,0,47.51,97.9l-5.628-6.631-.1-.113c-.064.043-.113.071-.157.105a5.344,5.344,0,0,1-1.565.834c-.388.128-.794.208-1.194.3a.2.2,0,0,1-.263-.166.216.216,0,0,1,.2-.257c.035-.007.071-.01.106-.016a5.614,5.614,0,0,0,2.435-1.016c.166-.123.328-.251.505-.387l.121.143q.938,1.1,1.876,2.21c.132.154.259.315.4.456a1.27,1.27,0,0,0,1.377.305,2.424,2.424,0,0,0,.775-.54" transform="translate(-5.344 -14.353)"/>
      <path id="패스_10445" data-name="패스 10445" d="M43.5,103.815a1.576,1.576,0,0,1-1.214-.619q-.29-.338-.577-.678l-.187-.221a1.579,1.579,0,0,1-1.028,1.016,1.523,1.523,0,0,1-1.51-.311l-.079-.053-5.741-6.764-.128-.2c-.1-.152-.2-.3-.283-.462a6.293,6.293,0,0,1-.5-5.143,6.155,6.155,0,0,1,2.256-3.108,6.309,6.309,0,0,1,7.8.284,7.293,7.293,0,0,1,.8.8q1.434,1.673,2.857,3.357l.919,1.084a.4.4,0,0,1-.058.684l-.075.063c-.135.115-.27.23-.41.34a1.941,1.941,0,0,1-1.121.413l.744.875q.975,1.148,1.948,2.3a1.583,1.583,0,0,1-.938,2.635c.051.06.1.118.147.178a1.486,1.486,0,0,1,.176,1.7.988.988,0,0,1-.254.3c-.043.037-.086.075-.128.113a1.8,1.8,0,0,1-.473.342,1.419,1.419,0,0,1-1.369-.118,1.554,1.554,0,0,1-1.172,1.141,1.687,1.687,0,0,1-.408.053m-2.11-2.154.557.657c.191.226.382.451.575.675a1.281,1.281,0,0,0,2.286-.605l.005-.03.114-.188.26.149a1.125,1.125,0,0,0,1.138.134,1.555,1.555,0,0,0,.389-.288c.045-.041.09-.082.136-.12a.735.735,0,0,0,.178-.2,1.184,1.184,0,0,0-.142-1.372c-.067-.084-.138-.166-.214-.255l-.321-.378.393-.027c.047,0,.083-.005.12-.009a1.245,1.245,0,0,0,.985-.624,1.226,1.226,0,0,0-.167-1.512q-.973-1.149-1.948-2.3l-1.016-1.2.121-.163.1-.028.107,0a1.651,1.651,0,0,0,1.111-.348c.137-.108.269-.22.4-.333l.075-.063c.1-.082.109-.111.112-.118a.457.457,0,0,0-.09-.128l-.919-1.084q-1.425-1.68-2.855-3.356a6.9,6.9,0,0,0-.769-.769A6,6,0,0,0,34.7,87.52a5.854,5.854,0,0,0-2.146,2.954,5.993,5.993,0,0,0,.473,4.9c.084.152.178.3.272.443l.125.2,5.7,6.714a.324.324,0,0,1,.072.048,1.217,1.217,0,0,0,1.206.246,1.275,1.275,0,0,0,.864-.959c.006-.026.014-.051.025-.083Zm2.149,1.711a1.127,1.127,0,0,1-.819-.352c-.053-.056-.1-.114-.153-.173l-4.706-5.541a.774.774,0,0,0-.112-.119c-.029-.022-.043-.022-.07,0s-.03.041-.015.07a.759.759,0,0,0,.091.12l3.089,3.641a1.105,1.105,0,0,1,.1,1.445,1.133,1.133,0,0,1-1.712.177,2.4,2.4,0,0,1-.18-.188l-.771-.908q-2.273-2.673-4.543-5.349a5.944,5.944,0,0,1-.043-7.561,5.89,5.89,0,0,1,8.357-.729,6.35,6.35,0,0,1,.709.7q1.318,1.539,2.626,3.087l1.2,1.415-.232.2a2.108,2.108,0,0,1-.713.47,1.419,1.419,0,0,1-1.535-.341c-.12-.117-.228-.246-.337-.374L41.8,90.734l-.058.045c-.113.087-.222.171-.333.253a5.785,5.785,0,0,1-2.5,1.044l-.1.015c-.087.018-.08.056-.076.076a.061.061,0,0,0,.021.039.074.074,0,0,0,.054,0l.235-.053a9.615,9.615,0,0,0,.944-.242,5.2,5.2,0,0,0,1.52-.81c.032-.024.067-.047.107-.072l.173-.115.766.9L47.6,97.767a1.155,1.155,0,0,1-.854,1.928,1.191,1.191,0,0,1-.883-.434c-.239-.273-.473-.551-.707-.829L41.495,94.12c-.063-.072-.1-.076-.1-.076-.043.028-.075.057.013.16l1.158,1.364q2.062,2.429,4.124,4.861a1.787,1.787,0,0,1,.276.415,1.122,1.122,0,0,1-.453,1.388,1.111,1.111,0,0,1-1.445-.178c-.037-.038-.07-.078-.1-.118l-5.276-6.214c-.117-.138-.148-.112-.164-.1s-.024.067.067.173l4.778,5.63a1.117,1.117,0,0,1,.115,1.445,1.143,1.143,0,0,1-.852.5c-.03,0-.061,0-.092,0m-5.824-6.513a.373.373,0,0,1,.223.079.971.971,0,0,1,.146.148l4.716,5.555c.051.058.1.113.146.164a.823.823,0,0,0,.66.253.832.832,0,0,0,.62-.363.809.809,0,0,0-.1-1.068L39.353,96a.518.518,0,0,1-.16-.378.335.335,0,0,1,.133-.236c.105-.088.323-.187.6.138l5.253,6.188c.053.063.082.1.113.132a.8.8,0,0,0,1.051.131.813.813,0,0,0,.336-1,1.482,1.482,0,0,0-.228-.339Q44.39,98.2,42.327,95.769L41.17,94.406a.386.386,0,0,1-.013-.578.353.353,0,0,1,.257-.1.465.465,0,0,1,.316.183l3.662,4.315c.233.277.466.553.7.825a.89.89,0,0,0,.654.328.761.761,0,0,0,.624-.285.8.8,0,0,0-.013-1.131l-5.635-6.639a.322.322,0,0,0-.033.023,5.486,5.486,0,0,1-1.611.858c-.321.106-.653.179-.975.251l-.233.052a.38.38,0,0,1-.3-.048.362.362,0,0,1-.154-.243.371.371,0,0,1,.32-.437l.072-.011a5.524,5.524,0,0,0,2.407-.994c.108-.081.216-.163.326-.248l.294-.227,2.172,2.559a4.679,4.679,0,0,0,.315.351,1.112,1.112,0,0,0,1.219.269,1.817,1.817,0,0,0,.607-.408h0l-1-1.179q-1.31-1.545-2.625-3.086a6.085,6.085,0,0,0-.674-.669,5.578,5.578,0,0,0-7.917.691,5.631,5.631,0,0,0,.04,7.161q2.271,2.676,4.543,5.348l.771.908a2.23,2.23,0,0,0,.157.163.821.821,0,0,0,1.245-.129.8.8,0,0,0-.085-1.064l-3.08-3.629a1.059,1.059,0,0,1-.137-.185.352.352,0,0,1,.085-.453.362.362,0,0,1,.238-.094" transform="translate(-5.313 -14.321)"/>
      <path id="패스_10446" data-name="패스 10446" d="M10.407,93.213a2.424,2.424,0,0,0,.775.54,1.27,1.27,0,0,0,1.377-.305c.145-.141.273-.3.4-.456q.939-1.1,1.876-2.21l.121-.143c.177.136.339.264.505.387A5.614,5.614,0,0,0,17.9,92.042c.035.006.071.009.106.016a.216.216,0,0,1,.2.257.2.2,0,0,1-.263.166c-.4-.091-.805-.17-1.194-.3a5.344,5.344,0,0,1-1.565-.834c-.044-.034-.093-.063-.157-.105l-.1.113L9.3,97.987a.958.958,0,0,0-.008,1.337.974.974,0,0,0,1.509-.047c.343-.394.679-.8,1.018-1.2l3.288-3.873.06-.07c.123-.143.245-.169.351-.074s.093.219-.028.361q-2.642,3.112-5.282,6.225a1.617,1.617,0,0,0-.252.377.991.991,0,0,0,1.642,1.041c.042-.044.08-.092.12-.138l5.252-6.188c.148-.175.269-.213.383-.119s.1.218-.048.394q-2.389,2.815-4.778,5.63a.962.962,0,0,0-.105,1.257.979.979,0,0,0,1.521.128c.053-.055.1-.113.152-.171l4.7-5.537a.886.886,0,0,1,.137-.143.212.212,0,0,1,.315.269.94.94,0,0,1-.118.158l-3.08,3.63a.951.951,0,0,0-.094,1.255.978.978,0,0,0,1.479.153,2.234,2.234,0,0,0,.168-.176q2.657-3.128,5.314-6.257a5.735,5.735,0,0,0-8.1-8.071,6.18,6.18,0,0,0-.691.687q-1.821,2.127-3.627,4.266l-.1.116" transform="translate(-1.502 -14.441)" fill="#fff"/>
      <path id="패스_10447" data-name="패스 10447" d="M17.667,102.882a.32.32,0,0,0-.066.038,1.427,1.427,0,0,1-2.327-.8c-.007-.033-.02-.063-.038-.117l-.12.142c-.277.326-.551.654-.83.977a1.437,1.437,0,0,1-2.557-.679.205.205,0,0,0-.024-.045l-.114.078a1.282,1.282,0,0,1-1.288.148,2.547,2.547,0,0,1-.563-.431.842.842,0,0,1-.216-.249,1.339,1.339,0,0,1,.158-1.538c.1-.129.213-.252.34-.4-.1-.007-.156-.008-.215-.016a1.408,1.408,0,0,1-1.1-.7,1.383,1.383,0,0,1,.183-1.69q1.385-1.637,2.774-3.269l.11-.129c-.016-.021-.018-.028-.022-.028l-.122,0a1.813,1.813,0,0,1-1.193-.383c-.163-.128-.322-.265-.48-.4-.211-.179-.218-.256-.04-.464q1.886-2.222,3.774-4.44a7.126,7.126,0,0,1,.785-.785,6.161,6.161,0,0,1,7.609-.278,6,6,0,0,1,2.2,3.031,6.127,6.127,0,0,1-.485,5.021c-.124.225-.271.438-.408.657l-5.727,6.747m-6.573-9.218a1.27,1.27,0,0,0,1.377-.305c.145-.141.273-.3.4-.456q.939-1.1,1.876-2.21l.121-.143c.177.136.339.263.505.387a5.614,5.614,0,0,0,2.435,1.016c.035.006.071.009.106.016a.216.216,0,0,1,.2.257.2.2,0,0,1-.263.166c-.4-.091-.805-.17-1.194-.3a5.327,5.327,0,0,1-1.565-.834c-.044-.033-.093-.062-.157-.1l-.1.113Q12.027,94.584,9.213,97.9a.958.958,0,0,0-.008,1.337.975.975,0,0,0,1.509-.047c.343-.394.679-.8,1.018-1.2l3.288-3.873.059-.07c.123-.143.245-.169.351-.074s.093.218-.028.361q-2.642,3.112-5.282,6.225a1.6,1.6,0,0,0-.252.377.991.991,0,0,0,1.642,1.041c.042-.044.08-.092.12-.138l5.252-6.188c.148-.174.269-.212.383-.118s.1.218-.048.394q-2.389,2.815-4.778,5.63a.962.962,0,0,0-.105,1.257.979.979,0,0,0,1.521.128c.053-.055.1-.113.152-.172l4.7-5.536a.924.924,0,0,1,.137-.143.212.212,0,0,1,.315.269.94.94,0,0,1-.118.158l-3.08,3.63a.949.949,0,0,0-.094,1.254.977.977,0,0,0,1.479.153,2.234,2.234,0,0,0,.168-.176q2.657-3.128,5.314-6.257a5.735,5.735,0,0,0-8.1-8.071,6.18,6.18,0,0,0-.691.687q-1.821,2.127-3.627,4.266l-.1.116a2.424,2.424,0,0,0,.775.54" transform="translate(-1.414 -14.353)"/>
      <path id="패스_10448" data-name="패스 10448" d="M13.16,103.815a1.644,1.644,0,0,1-.408-.054,1.533,1.533,0,0,1-1.166-1.144,1.423,1.423,0,0,1-1.375.122,1.791,1.791,0,0,1-.472-.341c-.043-.039-.086-.078-.13-.114a.988.988,0,0,1-.254-.3,1.486,1.486,0,0,1,.175-1.7c.048-.06.1-.118.148-.178a1.583,1.583,0,0,1-.938-2.635q.973-1.15,1.948-2.3l.744-.876a1.943,1.943,0,0,1-1.121-.412c-.14-.11-.275-.225-.41-.34l-.075-.063a.518.518,0,0,1-.219-.327.512.512,0,0,1,.162-.357l.919-1.084q1.425-1.68,2.857-3.358a7.366,7.366,0,0,1,.8-.8,6.31,6.31,0,0,1,7.8-.283A6.155,6.155,0,0,1,24.4,90.379a6.294,6.294,0,0,1-.5,5.143c-.088.158-.185.309-.283.462l-.128.2L17.682,103a1.535,1.535,0,0,1-1.518.313,1.58,1.58,0,0,1-1.027-1.016l-.187.221q-.288.34-.577.677a1.577,1.577,0,0,1-1.214.619m-1.43-1.668.082.148a.251.251,0,0,1,.04.091,1.237,1.237,0,0,0,.977,1.074,1.224,1.224,0,0,0,1.31-.467q.29-.336.574-.675l.558-.657.1.316a.621.621,0,0,1,.024.083,1.277,1.277,0,0,0,.865.959,1.216,1.216,0,0,0,1.206-.246.313.313,0,0,1,.072-.047L23.244,96l.118-.188c.094-.146.188-.293.272-.443a5.994,5.994,0,0,0,.473-4.9,5.854,5.854,0,0,0-2.146-2.954,6,6,0,0,0-7.415.271,6.969,6.969,0,0,0-.769.769q-1.433,1.673-2.855,3.356L10,93c-.08.094-.088.124-.089.132a.455.455,0,0,0,.111.113l.075.063c.132.113.263.226.4.333a1.654,1.654,0,0,0,1.094.349l.125,0H11.8l.122.176-.064.109-.936,1.1q-.974,1.148-1.947,2.3a1.228,1.228,0,0,0-.168,1.512,1.247,1.247,0,0,0,.986.624c.037,0,.073.007.12.009l.393.027-.321.378c-.077.089-.148.171-.214.255a1.181,1.181,0,0,0-.142,1.371.739.739,0,0,0,.178.2c.046.038.092.08.137.121a1.562,1.562,0,0,0,.388.287,1.123,1.123,0,0,0,1.138-.135Zm1.391,1.225c-.031,0-.062,0-.093,0a1.143,1.143,0,0,1-.851-.5,1.118,1.118,0,0,1,.114-1.445L17.07,95.8c.091-.107.088-.148.088-.15-.037-.037-.068-.062-.185.076l-5.253,6.188c-.056.067-.09.107-.126.145a1.146,1.146,0,0,1-1.9-1.21,1.787,1.787,0,0,1,.276-.415Q12.033,98,14.1,95.568L15.254,94.2c.088-.1.056-.133.043-.145-.034-.016-.068-.011-.13.061l-3.659,4.312c-.234.278-.468.554-.706.829a1.2,1.2,0,0,1-.884.434,1.144,1.144,0,0,1-.857-.385,1.115,1.115,0,0,1,0-1.544l5.814-6.848.173.114c.04.026.075.048.107.073a5.2,5.2,0,0,0,1.52.81c.305.1.63.173.944.242l.235.053a.07.07,0,0,0,.054,0,.063.063,0,0,0,.021-.038c0-.022.011-.059-.075-.077l-.1-.015a5.794,5.794,0,0,1-2.5-1.044c-.111-.082-.22-.166-.333-.253l-.058-.044-1.979,2.332c-.108.128-.217.258-.337.374a1.419,1.419,0,0,1-1.535.341,2.133,2.133,0,0,1-.713-.47l-.232-.2,1.2-1.415q1.31-1.545,2.626-3.087a6.28,6.28,0,0,1,.709-.7,5.889,5.889,0,0,1,8.357.729,5.945,5.945,0,0,1-.043,7.561q-2.269,2.676-4.543,5.349l-.771.907a2.416,2.416,0,0,1-.18.189,1.132,1.132,0,0,1-1.712-.178,1.1,1.1,0,0,1,.1-1.444l3.08-3.63a.83.83,0,0,0,.1-.131c.016-.029.016-.044-.014-.071a.045.045,0,0,0-.07,0,.708.708,0,0,0-.1.1L14.1,102.842c-.054.063-.1.123-.158.178a1.127,1.127,0,0,1-.819.352M17.114,95.3a.352.352,0,0,1,.221.085.34.34,0,0,1,.133.237.519.519,0,0,1-.16.378l-4.779,5.63a.809.809,0,0,0-.1,1.069.823.823,0,0,0,1.28.109c.049-.052.1-.106.142-.16l4.7-5.541a1.02,1.02,0,0,1,.161-.166.368.368,0,0,1,.546.468.948.948,0,0,1-.126.173l-3.09,3.641a.8.8,0,0,0-.085,1.064.835.835,0,0,0,.6.353.82.82,0,0,0,.649-.223,2.085,2.085,0,0,0,.157-.164l.771-.907q2.272-2.673,4.543-5.349a5.63,5.63,0,0,0,.04-7.16,5.578,5.578,0,0,0-7.917-.691,6.085,6.085,0,0,0-.674.669Q12.814,90.35,11.507,91.9l-1,1.179h0a1.835,1.835,0,0,0,.606.408,1.114,1.114,0,0,0,1.22-.269,4.534,4.534,0,0,0,.315-.352l2.172-2.558.293.226c.111.086.218.168.327.248a5.478,5.478,0,0,0,2.368.989c.063.008.087.012.111.017a.371.371,0,0,1,.319.437.367.367,0,0,1-.154.243.381.381,0,0,1-.3.048l-.233-.053a9.791,9.791,0,0,1-.975-.25,5.525,5.525,0,0,1-1.611-.858l-.033-.024-1.923,2.266L9.3,97.968A.8.8,0,0,0,9.289,99.1a.78.78,0,0,0,.624.285.888.888,0,0,0,.654-.328c.238-.272.47-.549.7-.824l3.661-4.315a.465.465,0,0,1,.317-.183.349.349,0,0,1,.256.094.386.386,0,0,1-.013.578l-1.157,1.363Q12.27,98.2,10.21,100.63a1.481,1.481,0,0,0-.228.339.812.812,0,0,0,.336,1,.8.8,0,0,0,1.05-.13c.032-.033.062-.068.091-.1l5.277-6.216a.513.513,0,0,1,.378-.223" transform="translate(-1.383 -14.321)"/>
      <path id="패스_10457" data-name="패스 10457" d="M34.186,83.668h-12.1a1.433,1.433,0,0,1-1.433-1.433v-.358a1.433,1.433,0,0,1,1.433-1.433h12.1a1.433,1.433,0,0,1,1.433,1.433v.358a1.433,1.433,0,0,1-1.433,1.433" transform="translate(-3.437 -13.388)" fill="#cfeeff"/>
      <path id="패스_10458" data-name="패스 10458" d="M34.623,84H21.481a1.33,1.33,0,0,1-1.328-1.328v-1.4a1.329,1.329,0,0,1,1.328-1.328H34.623a1.329,1.329,0,0,1,1.327,1.328v1.4A1.33,1.33,0,0,1,34.623,84M21.481,80.777a.5.5,0,0,0-.5.5v1.4a.5.5,0,0,0,.5.5H34.623a.5.5,0,0,0,.5-.5v-1.4a.5.5,0,0,0-.5-.5Z" transform="translate(-3.354 -13.305)"/>
      <path id="패스_10459" data-name="패스 10459" d="M34.578,87.535h-12.1A1.433,1.433,0,0,1,21.042,86.1v-.358a1.433,1.433,0,0,1,1.433-1.433h12.1a1.433,1.433,0,0,1,1.433,1.433V86.1a1.433,1.433,0,0,1-1.433,1.433" transform="translate(-3.502 -14.031)" fill="#cfeeff"/>
      <path id="패스_10460" data-name="패스 10460" d="M35.015,87.868H21.873a1.33,1.33,0,0,1-1.328-1.328v-1.4a1.329,1.329,0,0,1,1.328-1.328H35.015a1.329,1.329,0,0,1,1.328,1.328v1.4a1.33,1.33,0,0,1-1.328,1.328M21.873,84.644a.5.5,0,0,0-.5.5v1.4a.5.5,0,0,0,.5.5H35.015a.5.5,0,0,0,.5-.5v-1.4a.5.5,0,0,0-.5-.5Z" transform="translate(-3.419 -13.949)"/>
      <path id="패스_10461" data-name="패스 10461" d="M34.84,91.4h-12.1A1.433,1.433,0,0,1,21.3,89.97v-.358a1.433,1.433,0,0,1,1.433-1.433h12.1a1.433,1.433,0,0,1,1.433,1.433v.358A1.433,1.433,0,0,1,34.84,91.4" transform="translate(-3.545 -14.675)" fill="#cfeeff"/>
      <path id="패스_10462" data-name="패스 10462" d="M35.277,91.735H22.134a1.33,1.33,0,0,1-1.328-1.328v-1.4a1.329,1.329,0,0,1,1.328-1.327H35.277A1.329,1.329,0,0,1,36.6,89.009v1.4a1.33,1.33,0,0,1-1.327,1.328M22.134,88.511a.5.5,0,0,0-.5.5v1.4a.5.5,0,0,0,.5.5H35.277a.5.5,0,0,0,.5-.5v-1.4a.5.5,0,0,0-.5-.5Z" transform="translate(-3.463 -14.592)"/>
      <path id="패스_10463" data-name="패스 10463" d="M34.186,95.269h-12.1a1.433,1.433,0,0,1-1.433-1.433v-.358a1.433,1.433,0,0,1,1.433-1.433h12.1a1.433,1.433,0,0,1,1.433,1.433v.358a1.433,1.433,0,0,1-1.433,1.433" transform="translate(-3.437 -15.318)" fill="#cfeeff"/>
      <path id="패스_10464" data-name="패스 10464" d="M34.623,95.6H21.481a1.33,1.33,0,0,1-1.328-1.328v-1.4a1.329,1.329,0,0,1,1.328-1.328H34.623a1.329,1.329,0,0,1,1.327,1.328v1.4A1.33,1.33,0,0,1,34.623,95.6M21.481,92.378a.5.5,0,0,0-.5.5v1.4a.5.5,0,0,0,.5.5H34.623a.5.5,0,0,0,.5-.5v-1.4a.5.5,0,0,0-.5-.5Z" transform="translate(-3.354 -15.236)"/>
    </g>
  </g>
</svg>
