<svg xmlns="http://www.w3.org/2000/svg" width="1030.123" height="211" viewBox="0 0 1030.123 211">
  <g id="그룹_7028" data-name="그룹 7028" transform="translate(-450 -1357)">
    <rect id="사각형_7198" data-name="사각형 7198" width="200" height="50" rx="5" transform="translate(450 1518)" fill="#e6e6e6"/>
    <text id="ELYLOAN_LLC" data-name="ELYLOAN LLC" transform="translate(546 1549)" fill="#333" font-size="15" font-family="SpoqaHanSansNeo-Bold, Spoqa Han Sans Neo" font-weight="700"><tspan x="-47" y="0">ELYLOAN LLC</tspan></text>
    <g id="패스_10564" data-name="패스 10564" transform="translate(864 1518)" fill="#e0f4ff">
      <path d="M 195.3271026611328 49.5 L 4.672900199890137 49.5 C 2.371949911117554 49.5 0.5 47.97197341918945 0.5 46.09375 L 0.5 3.90625 C 0.5 2.028024911880493 2.371949911117554 0.5 4.672900199890137 0.5 L 195.3271026611328 0.5 C 197.6280517578125 0.5 199.5 2.028024911880493 199.5 3.90625 L 199.5 46.09375 C 199.5 47.97197341918945 197.6280517578125 49.5 195.3271026611328 49.5 Z" stroke="none"/>
      <path d="M 4.672897338867188 1 C 2.647659301757812 1 1 2.303737640380859 1 3.906238555908203 L 1 46.0937385559082 C 1 47.69626235961914 2.647659301757812 49 4.672897338867188 49 L 195.3271026611328 49 C 197.3523406982422 49 199 47.69626235961914 199 46.0937385559082 L 199 3.906238555908203 C 199 2.303737640380859 197.3523406982422 1 195.3271026611328 1 L 4.672897338867188 1 M 4.672897338867188 0 L 195.3271026611328 0 C 197.9078674316406 0 200 1.748893737792969 200 3.906238555908203 L 200 46.0937385559082 C 200 48.25110626220703 197.9078674316406 50 195.3271026611328 50 L 4.672897338867188 50 C 2.092132568359375 50 0 48.25110626220703 0 46.0937385559082 L 0 3.906238555908203 C 0 1.748893737792969 2.092132568359375 0 4.672897338867188 0 Z" stroke="none" fill="#d3f0ff"/>
    </g>
    <text id="미국_부동산_상품" data-name="미국 부동산 상품" transform="translate(960 1549)" fill="#333" font-size="15" font-family="SpoqaHanSansNeo-Bold, Spoqa Han Sans Neo" font-weight="700"><tspan x="-51" y="0">미국 부동산 상품</tspan></text>
    <rect id="사각형_7199" data-name="사각형 7199" width="200" height="50" rx="5" transform="translate(860 1382)" fill="#3679b5"/>
    <rect id="사각형_7201" data-name="사각형 7201" width="200" height="50" rx="5" transform="translate(450 1382)" fill="#3679b5"/>
    <text id="_주_엘리파이대부" data-name="(주)엘리파이대부" transform="translate(960 1413)" fill="#fff" font-size="15" font-family="SpoqaHanSansNeo-Bold, Spoqa Han Sans Neo" font-weight="700"><tspan x="-53" y="0">(주)엘리파이대부</tspan></text>
    <rect id="사각형_7200" data-name="사각형 7200" width="200" height="50" rx="5" transform="translate(1269 1383)" fill="#00a6ff"/>
    <text id="엘리파이" transform="translate(1376 1413)" fill="#fff" font-size="15" font-family="SpoqaHanSansNeo-Bold, Spoqa Han Sans Neo" font-weight="700"><tspan x="-27" y="0">엘리파이</tspan></text>
    <g id="그룹_7021" data-name="그룹 7021" transform="translate(9 181)">
      <g id="사각형_7200-2" data-name="사각형 7200" transform="translate(1260 1337)" fill="#e0f4ff" stroke="#d3f0ff" stroke-width="1">
        <rect width="200" height="50" rx="5" stroke="none"/>
        <rect x="0.5" y="0.5" width="199" height="49" rx="4.5" fill="none"/>
      </g>
      <text id="구매자" transform="translate(1360 1367.844)" fill="#333" font-size="15" font-family="SpoqaHanSansNeo-Bold, Spoqa Han Sans Neo" font-weight="700"><tspan x="-20" y="0">구매자</tspan></text>
    </g>
    <g id="그룹_7016" data-name="그룹 7016" transform="translate(1060 1392.5)">
      <line id="선_10036" data-name="선 10036" x2="197.729" transform="translate(0 4)" fill="none" stroke="#707070" stroke-width="1"/>
      <g id="다각형_51" data-name="다각형 51" transform="translate(201.123) rotate(90)" fill="#707070">
        <path d="M 7.056450843811035 5.394535541534424 L 0.943548858165741 5.394535541534424 L 3.999999761581421 0.8904426097869873 L 7.056450843811035 5.394535541534424 Z" stroke="none"/>
        <path d="M 3.999999761581421 1.78089427947998 L 1.887101173400879 4.894535541534424 L 6.112898349761963 4.894535541534424 L 3.999999761581421 1.78089427947998 M 3.999999761581421 -4.291534423828125e-06 L 8 5.894535541534424 L -4.76837158203125e-07 5.894535541534424 L 3.999999761581421 -4.291534423828125e-06 Z" stroke="none" fill="#707070"/>
      </g>
    </g>
    <g id="그룹_7022" data-name="그룹 7022" transform="translate(1393.344 1306.438) rotate(90)">
      <line id="선_10036-2" data-name="선 10036" x2="70.667" transform="translate(127.062 4)" fill="none" stroke="#707070" stroke-width="1"/>
      <g id="다각형_51-2" data-name="다각형 51" transform="translate(201.123) rotate(90)" fill="#707070">
        <path d="M 7.056450843811035 5.394535541534424 L 0.943548858165741 5.394535541534424 L 3.999999761581421 0.8904426097869873 L 7.056450843811035 5.394535541534424 Z" stroke="none"/>
        <path d="M 3.999999761581421 1.78089427947998 L 1.887101173400879 4.894535541534424 L 6.112898349761963 4.894535541534424 L 3.999999761581421 1.78089427947998 M 3.999999761581421 -4.291534423828125e-06 L 8 5.894535541534424 L -4.76837158203125e-07 5.894535541534424 L 3.999999761581421 -4.291534423828125e-06 Z" stroke="none" fill="#707070"/>
      </g>
    </g>
    <g id="그룹_7025" data-name="그룹 7025" transform="translate(550 1304.438) rotate(90)">
      <line id="선_10036-3" data-name="선 10036" x2="70.667" transform="translate(127.062 4)" fill="none" stroke="#707070" stroke-width="1"/>
      <g id="다각형_51-3" data-name="다각형 51" transform="translate(201.123) rotate(90)" fill="#707070">
        <path d="M 7.056450843811035 5.394535541534424 L 0.943548858165741 5.394535541534424 L 3.999999761581421 0.8904426097869873 L 7.056450843811035 5.394535541534424 Z" stroke="none"/>
        <path d="M 3.999999761581421 1.78089427947998 L 1.887101173400879 4.894535541534424 L 6.112898349761963 4.894535541534424 L 3.999999761581421 1.78089427947998 M 3.999999761581421 -4.291534423828125e-06 L 8 5.894535541534424 L -4.76837158203125e-07 5.894535541534424 L 3.999999761581421 -4.291534423828125e-06 Z" stroke="none" fill="#707070"/>
      </g>
    </g>
    <g id="그룹_7023" data-name="그룹 7023" transform="translate(1359.906 1512) rotate(-90)">
      <line id="선_10036-4" data-name="선 10036" x2="70.667" transform="translate(-6.5 4)" fill="none" stroke="#707070" stroke-width="1"/>
      <g id="다각형_51-4" data-name="다각형 51" transform="translate(67.562) rotate(90)" fill="#707070">
        <path d="M 7.056450843811035 5.394535541534424 L 0.943548858165741 5.394535541534424 L 3.999999761581421 0.8904426097869873 L 7.056450843811035 5.394535541534424 Z" stroke="none"/>
        <path d="M 3.999999761581421 1.78089427947998 L 1.887101173400879 4.894535541534424 L 6.112898349761963 4.894535541534424 L 3.999999761581421 1.78089427947998 M 3.999999761581421 -4.291534423828125e-06 L 8 5.894535541534424 L -4.76837158203125e-07 5.894535541534424 L 3.999999761581421 -4.291534423828125e-06 Z" stroke="none" fill="#707070"/>
      </g>
    </g>
    <g id="그룹_7019" data-name="그룹 7019" transform="translate(650.125 1392.5)">
      <line id="선_10036-5" data-name="선 10036" x2="197.729" transform="translate(0 4)" fill="none" stroke="#707070" stroke-width="1"/>
      <g id="다각형_51-5" data-name="다각형 51" transform="translate(201.123) rotate(90)" fill="#707070">
        <path d="M 7.056450843811035 5.394535541534424 L 0.943548858165741 5.394535541534424 L 3.999999761581421 0.8904426097869873 L 7.056450843811035 5.394535541534424 Z" stroke="none"/>
        <path d="M 3.999999761581421 1.78089427947998 L 1.887101173400879 4.894535541534424 L 6.112898349761963 4.894535541534424 L 3.999999761581421 1.78089427947998 M 3.999999761581421 -4.291534423828125e-06 L 8 5.894535541534424 L -4.76837158203125e-07 5.894535541534424 L 3.999999761581421 -4.291534423828125e-06 Z" stroke="none" fill="#707070"/>
      </g>
    </g>
    <g id="그룹_7027" data-name="그룹 7027" transform="translate(650.125 1539.5)">
      <line id="선_10036-6" data-name="선 10036" x2="197.729" transform="translate(0 4)" fill="none" stroke="#707070" stroke-width="1"/>
      <g id="다각형_51-6" data-name="다각형 51" transform="translate(201.123) rotate(90)" fill="#707070">
        <path d="M 7.056450843811035 5.394535541534424 L 0.943548858165741 5.394535541534424 L 3.999999761581421 0.8904426097869873 L 7.056450843811035 5.394535541534424 Z" stroke="none"/>
        <path d="M 3.999999761581421 1.78089427947998 L 1.887101173400879 4.894535541534424 L 6.112898349761963 4.894535541534424 L 3.999999761581421 1.78089427947998 M 3.999999761581421 -4.291534423828125e-06 L 8 5.894535541534424 L -4.76837158203125e-07 5.894535541534424 L 3.999999761581421 -4.291534423828125e-06 Z" stroke="none" fill="#707070"/>
      </g>
    </g>
    <g id="그룹_7018" data-name="그룹 7018" transform="translate(1067.877 1414)">
      <line id="선_10036-7" data-name="선 10036" x1="197.729" transform="translate(3.395 4)" fill="none" stroke="#707070" stroke-width="1"/>
      <g id="다각형_51-7" data-name="다각형 51" transform="translate(0 8) rotate(-90)" fill="#707070">
        <path d="M 7.056450843811035 5.394535541534424 L 0.943548858165741 5.394535541534424 L 3.999999761581421 0.8904426097869873 L 7.056450843811035 5.394535541534424 Z" stroke="none"/>
        <path d="M 3.999999761581421 1.78089427947998 L 1.887101173400879 4.894535541534424 L 6.112898349761963 4.894535541534424 L 3.999999761581421 1.78089427947998 M 3.999999761581421 -4.291534423828125e-06 L 8 5.894535541534424 L -4.76837158203125e-07 5.894535541534424 L 3.999999761581421 -4.291534423828125e-06 Z" stroke="none" fill="#707070"/>
      </g>
    </g>
    <g id="그룹_7020" data-name="그룹 7020" transform="translate(659.002 1414)">
      <line id="선_10036-8" data-name="선 10036" x1="197.729" transform="translate(3.395 4)" fill="none" stroke="#707070" stroke-width="1"/>
      <g id="다각형_51-8" data-name="다각형 51" transform="translate(0 8) rotate(-90)" fill="#707070">
        <path d="M 7.056450843811035 5.394535541534424 L 0.943548858165741 5.394535541534424 L 3.999999761581421 0.8904426097869873 L 7.056450843811035 5.394535541534424 Z" stroke="none"/>
        <path d="M 3.999999761581421 1.78089427947998 L 1.887101173400879 4.894535541534424 L 6.112898349761963 4.894535541534424 L 3.999999761581421 1.78089427947998 M 3.999999761581421 -4.291534423828125e-06 L 8 5.894535541534424 L -4.76837158203125e-07 5.894535541534424 L 3.999999761581421 -4.291534423828125e-06 Z" stroke="none" fill="#707070"/>
      </g>
    </g>
    <text id="_6._원리금_상환_USDC_" data-name="6. 원리금 상환
(USDC)" transform="translate(747 1370)" fill="#333" font-size="13" font-family="SpoqaHanSansNeo-Bold, Spoqa Han Sans Neo" font-weight="700"><tspan x="-38" y="0">6.</tspan><tspan y="0" xml:space="preserve" font-family="SpoqaHanSansNeo-Regular, Spoqa Han Sans Neo" font-weight="400"> 원리금 상환</tspan><tspan font-family="SpoqaHanSansNeo-Regular, Spoqa Han Sans Neo" font-weight="400"><tspan x="-21" y="18">(</tspan><tspan y="18" fill="#3679b5">USDC</tspan><tspan y="18">)</tspan></tspan></text>
    <text id="_7._가상화폐_상환_USDC_" data-name="7. 가상화폐 상환
(USDC)" transform="translate(1158.438 1370)" fill="#333" font-size="13" font-family="SpoqaHanSansNeo-Bold, Spoqa Han Sans Neo" font-weight="700"><tspan x="-44" y="0">7.</tspan><tspan y="0" xml:space="preserve" font-family="SpoqaHanSansNeo-Regular, Spoqa Han Sans Neo" font-weight="400"> 가상화폐 상환</tspan><tspan font-family="SpoqaHanSansNeo-Regular, Spoqa Han Sans Neo" font-weight="400"><tspan x="-21" y="18">(</tspan><tspan y="18" fill="#3679b5">USDC</tspan><tspan y="18">)</tspan></tspan></text>
    <text id="_4._채권_NFT_구매_ETH_USDC_" data-name="4. 채권 NFT 구매
(ETH, USDC)" transform="translate(1305.123 1476.75)" fill="#333" font-size="13" font-family="SpoqaHanSansNeo-Bold, Spoqa Han Sans Neo" font-weight="700"><tspan x="-46" y="0">4.</tspan><tspan y="0" xml:space="preserve" font-family="SpoqaHanSansNeo-Regular, Spoqa Han Sans Neo" font-weight="400"> 채권 NFT 구매</tspan><tspan font-family="SpoqaHanSansNeo-Regular, Spoqa Han Sans Neo" font-weight="400"><tspan x="-36" y="18">(</tspan><tspan y="18" fill="#6284f5">ETH</tspan><tspan y="18">, </tspan><tspan y="18" fill="#3679b5">USDC</tspan><tspan y="18">)</tspan></tspan></text>
    <text id="_2._99_소유" data-name="2. 99% 소유" transform="translate(499.217 1473.031)" fill="#333" font-size="13" font-family="SpoqaHanSansNeo-Bold, Spoqa Han Sans Neo" font-weight="700"><tspan x="-34" y="0">2.</tspan><tspan y="0" xml:space="preserve" font-family="SpoqaHanSansNeo-Regular, Spoqa Han Sans Neo" font-weight="400"> 99% 소유</tspan></text>
    <text id="_1._100_소유" data-name="1. 100% 소유" transform="translate(750.687 1533.5)" fill="#333" font-size="13" font-family="SpoqaHanSansNeo-Bold, Spoqa Han Sans Neo" font-weight="700"><tspan x="-38" y="0">1.</tspan><tspan y="0" xml:space="preserve" font-family="SpoqaHanSansNeo-Regular, Spoqa Han Sans Neo" font-weight="400"> 100% 소유</tspan></text>
    <text id="_8._상환금_수령_ETH_USDC_" data-name="8. 상환금 수령
(ETH, USDC)" transform="translate(1441.123 1470.75)" fill="#333" font-size="13" font-family="SpoqaHanSansNeo-Bold, Spoqa Han Sans Neo" font-weight="700"><tspan x="-38" y="0">8.</tspan><tspan y="0" xml:space="preserve" font-family="SpoqaHanSansNeo-Regular, Spoqa Han Sans Neo" font-weight="400"> 상환금 수령</tspan><tspan font-family="SpoqaHanSansNeo-Regular, Spoqa Han Sans Neo" font-weight="400"><tspan x="-36" y="18">(</tspan><tspan y="18" fill="#6284f5">ETH</tspan><tspan y="18">, </tspan><tspan y="18" fill="#3679b5">USDC</tspan><tspan y="18">)</tspan></tspan></text>
    <text id="_3._대출계약_및_담보설정계약_USDC_" data-name="3. 대출계약 및 담보설정계약
(USDC)" transform="translate(763 1437)" fill="#333" font-size="13" font-family="SpoqaHanSansNeo-Bold, Spoqa Han Sans Neo" font-weight="700"><tspan x="-75" y="0">3.</tspan><tspan y="0" xml:space="preserve" font-family="SpoqaHanSansNeo-Regular, Spoqa Han Sans Neo" font-weight="400"> 대출계약 및 담보설정계약</tspan><tspan font-family="SpoqaHanSansNeo-Regular, Spoqa Han Sans Neo" font-weight="400"><tspan x="-21" y="18">(</tspan><tspan y="18" fill="#3679b5">USDC</tspan><tspan y="18">)</tspan></tspan></text>
    <text id="_5._대출채권_담보_및_가상화폐_대출_USDC_" data-name="5. 대출채권 담보 및 가상화폐 대출
(USDC)" transform="translate(1168.438 1437)" fill="#333" font-size="13" font-family="SpoqaHanSansNeo-Bold, Spoqa Han Sans Neo" font-weight="700"><tspan x="-90" y="0">5.</tspan><tspan y="0" xml:space="preserve" font-family="SpoqaHanSansNeo-Regular, Spoqa Han Sans Neo" font-weight="400"> 대출채권 담보 및 가상화폐 대출</tspan><tspan font-family="SpoqaHanSansNeo-Regular, Spoqa Han Sans Neo" font-weight="400"><tspan x="-21" y="18">(</tspan><tspan y="18" fill="#3679b5">USDC</tspan><tspan y="18">)</tspan></tspan></text>
    <text id="_주_엘리시아" data-name="(주)엘리시아" transform="translate(546 1413)" fill="#fff" font-size="15" font-family="SpoqaHanSansNeo-Bold, Spoqa Han Sans Neo" font-weight="700"><tspan x="-40" y="0">(주)엘리시아</tspan></text>
  </g>
</svg>
