<svg id="그룹_6963" data-name="그룹 6963" xmlns="http://www.w3.org/2000/svg" xmlns:xlink="http://www.w3.org/1999/xlink" width="100" height="74.917" viewBox="0 0 100 74.917">
  <defs>
    <clipPath id="clip-path">
      <rect id="사각형_7164" data-name="사각형 7164" width="100" height="74.917" fill="none"/>
    </clipPath>
    <clipPath id="clip-path-3">
      <rect id="사각형_7161" data-name="사각형 7161" width="10.816" height="14.555" fill="none"/>
    </clipPath>
    <clipPath id="clip-path-4">
      <rect id="사각형_7162" data-name="사각형 7162" width="21.522" height="21.523" fill="none"/>
    </clipPath>
  </defs>
  <g id="그룹_6962" data-name="그룹 6962" clip-path="url(#clip-path)">
    <rect id="사각형_7157" data-name="사각형 7157" width="8.805" height="36.757" transform="translate(5.541 0.398)" fill="#fff"/>
    <g id="그룹_6961" data-name="그룹 6961" transform="translate(0 0)">
      <g id="그룹_6960" data-name="그룹 6960" clip-path="url(#clip-path)">
        <path id="패스_10502" data-name="패스 10502" d="M15.63,37.553H6.825a.4.4,0,0,1-.4-.4V.4a.4.4,0,0,1,.4-.4H15.63a.4.4,0,0,1,.4.4V37.154a.4.4,0,0,1-.4.4m-8.407-.8h8.009V.8H7.223Z" transform="translate(-1.285 0)"/>
        <rect id="사각형_7158" data-name="사각형 7158" width="48.564" height="36.757" transform="translate(36.583 29.536)" fill="#fff"/>
        <path id="패스_10503" data-name="패스 10503" d="M94.189,73.972H45.624a.4.4,0,0,1-.4-.4V36.817a.4.4,0,0,1,.4-.4H94.189a.4.4,0,0,1,.4.4V73.573a.4.4,0,0,1-.4.4m-48.166-.8H93.791V37.216H46.023Z" transform="translate(-9.041 -7.281)"/>
        <path id="패스_10504" data-name="패스 10504" d="M98.687,29.636H37.035V.5h35.23Z" transform="translate(-7.404 -0.1)" fill="#00a6ff"/>
        <path id="패스_10505" data-name="패스 10505" d="M98.589,29.934H36.937a.4.4,0,0,1-.4-.4V.4a.4.4,0,0,1,.4-.4H72.166a.4.4,0,0,1,.3.13L98.883,29.269a.4.4,0,0,1-.294.666m-61.254-.8H97.69L71.99.8H37.335Z" transform="translate(-7.305 0)"/>
        <path id="패스_10506" data-name="패스 10506" d="M59.346,29.636H.5L29.922.5Z" transform="translate(-0.1 -0.1)" fill="#82d3ff"/>
        <path id="패스_10507" data-name="패스 10507" d="M59.246,29.934H.4a.4.4,0,0,1-.281-.681L29.541.115a.4.4,0,0,1,.561,0L59.526,29.253a.4.4,0,0,1-.28.681m-57.88-.8H58.279L29.822.958Z" transform="translate(0 0)"/>
        <path id="패스_10508" data-name="패스 10508" d="M31.194,6.8,6.864,30.9h.049V67.652H55.476V30.9h.049Z" transform="translate(-1.372 -1.36)" fill="#fff"/>
        <path id="패스_10509" data-name="패스 10509" d="M55.377,67.951H6.812a.4.4,0,0,1-.4-.4V30.987a.355.355,0,0,1-.019-.039.4.4,0,0,1,.088-.434L30.814,6.42a.4.4,0,0,1,.561,0L55.706,30.514a.4.4,0,0,1,.088.434.35.35,0,0,1-.018.039V67.554a.4.4,0,0,1-.4.4m-48.166-.8H54.979V30.915L31.095,7.263,7.211,30.915Z" transform="translate(-1.273 -1.26)"/>
        <rect id="사각형_7159" data-name="사각형 7159" width="28.849" height="32.125" transform="translate(15.208 34.168)" fill="#00a6ff"/>
        <path id="패스_10510" data-name="패스 10510" d="M47.756,75.129H18.908a.4.4,0,0,1-.4-.4V42.605a.4.4,0,0,1,.4-.4H47.756a.4.4,0,0,1,.4.4V74.73a.4.4,0,0,1-.4.4m-28.45-.8H47.359V43H19.306Z" transform="translate(-3.7 -8.438)"/>
        <line id="선_10030" data-name="선 10030" x2="28.849" transform="translate(15.207 38.764)" fill="#00a6ff"/>
        <path id="패스_10511" data-name="패스 10511" d="M47.756,48.749H18.907a.4.4,0,1,1,0-.8H47.756a.4.4,0,1,1,0,.8" transform="translate(-3.7 -9.587)"/>
        <line id="선_10031" data-name="선 10031" x2="28.849" transform="translate(15.207 43.361)" fill="#00a6ff"/>
        <path id="패스_10512" data-name="패스 10512" d="M47.756,54.494H18.907a.4.4,0,1,1,0-.8H47.756a.4.4,0,1,1,0,.8" transform="translate(-3.7 -10.735)"/>
        <line id="선_10032" data-name="선 10032" x2="28.849" transform="translate(15.207 47.957)" fill="#00a6ff"/>
        <path id="패스_10513" data-name="패스 10513" d="M47.756,60.239H18.907a.4.4,0,1,1,0-.8H47.756a.4.4,0,1,1,0,.8" transform="translate(-3.7 -11.884)"/>
        <line id="선_10033" data-name="선 10033" x2="28.849" transform="translate(15.207 52.554)" fill="#00a6ff"/>
        <path id="패스_10514" data-name="패스 10514" d="M47.756,65.984H18.907a.4.4,0,1,1,0-.8H47.756a.4.4,0,1,1,0,.8" transform="translate(-3.7 -13.032)"/>
        <line id="선_10034" data-name="선 10034" x2="28.849" transform="translate(15.207 57.15)" fill="#00a6ff"/>
        <path id="패스_10515" data-name="패스 10515" d="M47.756,71.729H18.907a.4.4,0,1,1,0-.8H47.756a.4.4,0,1,1,0,.8" transform="translate(-3.7 -14.181)"/>
        <line id="선_10035" data-name="선 10035" x2="28.849" transform="translate(15.207 61.747)" fill="#00a6ff"/>
        <path id="패스_10516" data-name="패스 10516" d="M47.756,77.474H18.907a.4.4,0,1,1,0-.8H47.756a.4.4,0,1,1,0,.8" transform="translate(-3.7 -15.329)"/>
        <rect id="사각형_7160" data-name="사각형 7160" width="17.083" height="13.45" transform="translate(60.866 35.373)" fill="#00a6ff"/>
        <path id="패스_10517" data-name="패스 10517" d="M93.058,57.961H75.974a.4.4,0,0,1-.4-.4V44.113a.4.4,0,0,1,.4-.4H93.058a.4.4,0,0,1,.4.4v13.45a.4.4,0,0,1-.4.4m-16.686-.8H92.66V44.51H76.372Z" transform="translate(-15.109 -8.739)"/>
        <path id="패스_10518" data-name="패스 10518" d="M90.962,70.461A15.121,15.121,0,1,1,75.84,55.34,15.121,15.121,0,0,1,90.962,70.461" transform="translate(-12.139 -11.063)" fill="#82d3ff"/>
        <path id="패스_10519" data-name="패스 10519" d="M75.74,85.881A15.519,15.519,0,1,1,91.259,70.362,15.536,15.536,0,0,1,75.74,85.881m0-30.242A14.723,14.723,0,1,0,90.463,70.362,14.74,14.74,0,0,0,75.74,55.639" transform="translate(-12.039 -10.964)"/>
        <path id="패스_10520" data-name="패스 10520" d="M88.873,71.156A12.337,12.337,0,1,1,76.536,58.82,12.337,12.337,0,0,1,88.873,71.156" transform="translate(-12.834 -11.759)" fill="#82d3ff"/>
        <path id="패스_10521" data-name="패스 10521" d="M76.436,83.792A12.735,12.735,0,1,1,89.171,71.057,12.749,12.749,0,0,1,76.436,83.792m0-24.674A11.939,11.939,0,1,0,88.375,71.057,11.952,11.952,0,0,0,76.436,59.118" transform="translate(-12.735 -11.66)"/>
        <g id="그룹_6956" data-name="그룹 6956" transform="translate(58.622 51.796)" style="mix-blend-mode: multiply;isolation: isolate">
          <g id="그룹_6955" data-name="그룹 6955">
            <g id="그룹_6954" data-name="그룹 6954" clip-path="url(#clip-path-3)">
              <path id="패스_10522" data-name="패스 10522" d="M76.379,76.909l-2.545.006c.083-.518.155-1,.246-1.471.01-.047.127-.1.2-.1.214-.017.429-.01.643-.014.415-.009.549-.142.546-.546q-.011-1.93-.025-3.861c0-.458,0-.917-.01-1.375-.007-.561-.194-.755-.757-.776-.224-.009-.449.007-.673.01-.15,0-.231-.047-.226-.223.01-.312.006-.625-.01-.936-.012-.223.084-.279.291-.278.653,0,1.307-.023,1.959,0,.274.01.306-.107.3-.322-.01-.5,0-.995-.018-1.491,0-.185.05-.275.241-.274.282,0,.566.013.848,0,.214-.011.264.076.261.276-.008.517,0,1.034.01,1.551a1.61,1.61,0,0,0,.029.2l.887-.023c0-.551,0-1.083,0-1.615,0-.39-.006-.392.369-.4.31,0,.62,0,.966,0,.009.7.018,1.367.026,2.026.466.1.919.163,1.355.289a2.125,2.125,0,0,1,1.551,1.266,2.168,2.168,0,0,1-.786,2.737c.074.031.13.061.19.08a2.063,2.063,0,0,1,1.534,2.019,2.647,2.647,0,0,1-1.523,2.761,5.506,5.506,0,0,1-1.99.441c-.226.015-.278.088-.271.3.015.526,0,1.053.009,1.579,0,.175-.038.248-.227.242-.358-.011-.718,0-1.111,0-.007-.614-.026-1.2-.016-1.777,0-.218-.043-.3-.274-.279a5.909,5.909,0,0,1-.643,0V78.99c-.416,0-.8.014-1.188-.007-.056,0-.145-.162-.147-.251-.018-.593-.015-1.187-.019-1.823m3.535-1.691c.3-.143.553-.237.776-.371a1.008,1.008,0,0,0,.466-1.108,1.166,1.166,0,0,0-1.081-.967c-.718-.1-1.452-.113-2.18-.148-.051,0-.155.11-.156.17q-.013,1.169.006,2.339c0,.064.1.183.158.182.69-.022,1.379-.062,2.011-.1M77.7,68.847c.007.83.014,1.622.022,2.43A5.41,5.41,0,0,0,79.9,71a1.042,1.042,0,0,0-.02-1.955,5.115,5.115,0,0,0-2.18-.2" transform="translate(-73.37 -64.838)" fill="#82d3ff"/>
              <path id="패스_10523" data-name="패스 10523" d="M76.965,79.294c-.181,0-.358,0-.539-.013-.338-.018-.518-.419-.524-.638-.014-.452-.015-.9-.018-1.375v-.059l-2.148,0h0a.4.4,0,0,1-.393-.462l.054-.34c.062-.394.122-.77.194-1.143a.6.6,0,0,1,.558-.427c.156-.012.314-.014.471-.014l.2,0a.713.713,0,0,0,.147-.014.637.637,0,0,0,.009-.131l-.027-4.27c0-.322,0-.642-.007-.963,0-.35-.026-.37-.374-.384-.139-.006-.278,0-.417,0l-.234.006a.627.627,0,0,1-.468-.17.606.606,0,0,1-.162-.465c.01-.294.006-.6-.01-.9a.655.655,0,0,1,.162-.509.711.711,0,0,1,.529-.188c.262,0,.52,0,.78,0,.353,0,.717-.009,1.079,0,0-.19,0-.38,0-.57,0-.277,0-.554-.011-.83a.679.679,0,0,1,.17-.508.64.64,0,0,1,.473-.175l.164,0c.219,0,.439.007.658,0a.642.642,0,0,1,.5.16.682.682,0,0,1,.18.52c-.006.4,0,.793.006,1.19l0,.142.122,0v-.118c0-.374,0-.74,0-1.107,0-.608.174-.791.764-.8.213,0,.426,0,.65,0l.321,0a.4.4,0,0,1,.4.394l.021,1.7.115.022c.314.059.64.121.957.212a2.494,2.494,0,0,1,1.815,1.51,2.632,2.632,0,0,1-.409,2.755,2.414,2.414,0,0,1,1.37,2.2,3.054,3.054,0,0,1-1.752,3.144,5.827,5.827,0,0,1-2.029.47c.006.257,0,.514,0,.772,0,.237,0,.473,0,.71a.644.644,0,0,1-.166.487.627.627,0,0,1-.472.16c-.246-.008-.493,0-.751,0l-.344,0a.4.4,0,0,1-.4-.394l-.008-.514c-.006-.386-.014-.763-.01-1.139-.042,0-.082,0-.12,0v1.656a.4.4,0,0,1-.4.4l-.3,0-.373,0M76.7,78.62Zm0-.126c.177,0,.357,0,.542,0V76.827a.4.4,0,0,1,.118-.282.43.43,0,0,1,.282-.116c.079,0,.154,0,.227,0a2.815,2.815,0,0,0,.372,0,.656.656,0,0,1,.526.14.686.686,0,0,1,.189.542c-.006.411,0,.823.008,1.247l0,.122c.186,0,.366,0,.546,0,0-.2,0-.378,0-.56,0-.282,0-.565-.006-.847a.62.62,0,0,1,.642-.709,5.23,5.23,0,0,0,1.848-.4,2.25,2.25,0,0,0,1.294-2.38,1.672,1.672,0,0,0-1.261-1.662c-.052-.018-.1-.039-.159-.065l-.061-.027a.4.4,0,0,1-.061-.7,1.767,1.767,0,0,0,.63-2.264,1.71,1.71,0,0,0-1.289-1.022c-.281-.082-.574-.137-.885-.2-.146-.028-.293-.056-.442-.087a.4.4,0,0,1-.317-.385l-.02-1.635c-.186,0-.365,0-.544,0,0,.373,0,.736,0,1.106v.506a.4.4,0,0,1-.388.4l-.887.023a.387.387,0,0,1-.4-.338l-.011-.065a1.1,1.1,0,0,1-.022-.186l0-.348c-.006-.36-.011-.72-.007-1.081-.188,0-.368,0-.548,0,0,.248.006.479.007.711,0,.214,0,.43.007.645a.632.632,0,0,1-.714.729c-.382-.013-.774-.008-1.154,0-.226,0-.455.006-.679,0,.008.219.01.43.007.636l.037,0c.158-.006.316-.01.474,0a1.03,1.03,0,0,1,1.14,1.17c0,.323.006.646.007.97l.027,4.269a.834.834,0,0,1-.937.946l-.207,0c-.1,0-.194,0-.29,0-.046.258-.089.518-.131.787l2.077,0h0a.4.4,0,0,1,.4.4l0,.457c0,.421,0,.826.014,1.231M77.8,75.612a.5.5,0,0,1-.35-.153.627.627,0,0,1-.2-.42c-.013-.767-.015-1.559-.006-2.35a.6.6,0,0,1,.2-.41.511.511,0,0,1,.373-.152l.478.021a16.532,16.532,0,0,1,1.739.131,1.549,1.549,0,0,1,1.415,1.288,1.408,1.408,0,0,1-.652,1.522,4.812,4.812,0,0,1-.538.266l-.273.124a.4.4,0,0,1-.15.038l-.4.02c-.522.028-1.072.056-1.623.074H77.8m2.013-.492h0Zm-1.771-.094h0Zm-.008-2.091c-.006.63,0,1.258,0,1.873.462-.018.92-.042,1.358-.064l.318-.017.217-.1a4.034,4.034,0,0,0,.451-.222.607.607,0,0,0,.28-.694.755.755,0,0,0-.746-.645,16.3,16.3,0,0,0-1.657-.124l-.226-.009m-.411-1.359a.4.4,0,0,1-.4-.4l-.022-2.43a.4.4,0,0,1,.379-.4l.058,0a5.333,5.333,0,0,1,2.288.229,1.44,1.44,0,0,1,.038,2.687,4.652,4.652,0,0,1-1.952.306c-.126,0-.252,0-.381.006h-.01M78,69.128l.014,1.645a3.9,3.9,0,0,0,1.619-.235.6.6,0,0,0,.436-.654.582.582,0,0,0-.438-.567A3.912,3.912,0,0,0,78,69.128" transform="translate(-73.27 -64.738)"/>
            </g>
          </g>
        </g>
        <path id="패스_10524" data-name="패스 10524" d="M116.99,69.84a15.031,15.031,0,1,1-15.031-15.031A15.031,15.031,0,0,1,116.99,69.84" transform="translate(-17.378 -10.957)" fill="#cfeeff"/>
        <path id="패스_10525" data-name="패스 10525" d="M101.862,85.162a15.419,15.419,0,1,1,15.419-15.419,15.436,15.436,0,0,1-15.419,15.419m0-30.062a14.643,14.643,0,1,0,14.643,14.643A14.659,14.659,0,0,0,101.862,55.1" transform="translate(-17.281 -10.86)"/>
        <path id="패스_10526" data-name="패스 10526" d="M114.914,70.532a12.264,12.264,0,1,1-12.264-12.264,12.264,12.264,0,0,1,12.264,12.264" transform="translate(-18.07 -11.649)" fill="#cfeeff"/>
        <path id="패스_10527" data-name="패스 10527" d="M102.554,83.086a12.652,12.652,0,1,1,12.652-12.652,12.666,12.666,0,0,1-12.652,12.652m0-24.527a11.876,11.876,0,1,0,11.876,11.876,11.89,11.89,0,0,0-11.876-11.876" transform="translate(-17.973 -11.552)"/>
        <g id="그룹_6959" data-name="그룹 6959" transform="translate(75.321 46.619)" style="mix-blend-mode: multiply;isolation: isolate">
          <g id="그룹_6958" data-name="그룹 6958">
            <g id="그룹_6957" data-name="그룹 6957" clip-path="url(#clip-path-4)">
              <path id="패스_10528" data-name="패스 10528" d="M103.4,58.268a12.233,12.233,0,0,0-9.259,4.227,12.26,12.26,0,0,1,17.3,17.3A12.261,12.261,0,0,0,103.4,58.268" transform="translate(-94.142 -58.268)" fill="#cfeeff"/>
            </g>
          </g>
        </g>
        <path id="패스_10529" data-name="패스 10529" d="M105.69,64.087v-.038h.036a5.818,5.818,0,0,0,.294.513c.164.278.332.553.5.829.142.234.288.467.43.7.164.272.326.546.488.819l.394.655c.171.284.342.569.514.852.144.238.292.473.435.711.27.45.535.9.8,1.351.166.278.339.55.506.827.1.165.192.334.287.5a2.358,2.358,0,0,1-.416-.178c-.319-.138-.633-.287-.95-.428s-.629-.284-.943-.426q-.4-.181-.8-.367-.574-.268-1.153-.525a2.065,2.065,0,0,0-.386-.161l-.018-.038q0-2.764,0-5.528c0-.025.012-.055-.019-.073" transform="translate(-21.129 -12.805)" fill="#82d3ff"/>
        <path id="패스_10530" data-name="패스 10530" d="M110.28,72.1a.384.384,0,0,1-.086-.009,1.575,1.575,0,0,1-.374-.147c-.037-.018-.074-.037-.112-.054-.186-.081-.372-.166-.558-.25l-.4-.179c-.213-.094-.424-.19-.636-.286l-.309-.14q-.4-.182-.807-.37-.571-.266-1.147-.522c-.04-.018-.079-.037-.118-.056a.965.965,0,0,0-.193-.08.388.388,0,0,1-.27-.217l-.018-.039a.394.394,0,0,1-.034-.16V64.112A.373.373,0,0,1,105.2,64l0-.038a.388.388,0,0,1,.11-.282.439.439,0,0,1,.666.106,3.266,3.266,0,0,0,.189.334l.088.146c.154.261.312.519.469.778l.219.358q.121.194.24.391l1.583,2.634c.083.134.166.269.247.4l.377.632q.214.36.429.718.126.209.254.417t.251.41c.07.116.136.234.2.352l.089.157a.387.387,0,0,1-.337.58M106,69.353l.082.039.092.044q.582.259,1.159.528c.266.124.532.245.8.366l.31.141c.21.1.42.19.63.284.086.038.17.076.255.115-.058-.094-.115-.188-.172-.283q-.216-.359-.43-.721l-.375-.63c-.079-.133-.161-.265-.242-.4L106.519,66.2c-.078-.129-.157-.258-.236-.386l-.221-.362c-.022-.034-.042-.069-.063-.1Z" transform="translate(-21.032 -12.71)"/>
        <path id="패스_10531" data-name="패스 10531" d="M109.2,75.922c-.094.166-.215.313-.322.469-.209.3-.422.6-.635.9s-.411.571-.616.857q-.254.355-.506.712c-.261.37-.52.742-.782,1.113q-.337.479-.677.956c-.23.323-.464.643-.69.969-.13.186-.274.362-.39.557-.021.035-.029.032-.053,0q-.34-.485-.683-.967c-.321-.45-.645-.9-.965-1.348-.3-.417-.588-.837-.883-1.255s-.6-.848-.9-1.271l-1.158-1.626c-.01-.015-.03-.032-.008-.066l.364.216c.226.134.454.266.682.4.316.184.628.374.943.56l1.044.614c.414.245.826.492,1.243.734.1.059.207.112.3.181a.08.08,0,0,0,.1,0c.27-.16.542-.317.813-.474.241-.141.478-.286.722-.423.291-.164.575-.342.863-.511s.575-.333.862-.5c.391-.231.78-.466,1.171-.7.054-.032.11-.059.164-.089Z" transform="translate(-19.976 -15.177)" fill="#82d3ff"/>
        <path id="패스_10532" data-name="패스 10532" d="M104.461,82.768a.415.415,0,0,1-.347-.194c-.225-.322-.453-.643-.681-.964l-.407-.568q-.28-.39-.558-.781-.256-.359-.508-.721l-.376-.534q-.449-.637-.9-1.271l-1.158-1.626a.43.43,0,0,1-.021-.5.389.389,0,0,1,.527-.127l.364.216c.18.107.361.213.542.318l.137.079c.178.1.354.21.53.315l1.873,1.106c.275.162.55.326.826.486l.081.046.085.048.445-.259.478-.281c.154-.09.307-.182.463-.27.181-.1.359-.21.538-.317l.717-.422c.154-.09.31-.179.463-.27l.71-.423.46-.274c.043-.026.087-.049.13-.072l.022-.011a.4.4,0,0,1,.174-.06.392.392,0,0,1,.334.138h0a.388.388,0,0,1,.082.322.38.38,0,0,1-.062.148c-.066.113-.142.218-.219.323-.035.047-.07.094-.1.143-.193.278-.39.554-.587.83l-.668.929q-.253.354-.5.71l-.782,1.113q-.338.48-.678.958l-.249.346c-.148.206-.3.411-.44.618-.046.067-.1.133-.143.2a4.025,4.025,0,0,0-.232.335.456.456,0,0,1-.343.215h-.014m0-.388h0Zm-3.32-5.34.175.246.9,1.273.377.536q.252.359.506.717.276.39.556.778l.408.57q.2.276.393.554l.1-.138c.146-.211.3-.419.446-.628l.246-.344q.34-.476.676-.954l.782-1.113q.252-.359.508-.714l.538-.749-.254.148-.706.416c-.184.111-.369.222-.556.328-.151.085-.3.174-.449.262l-.485.284c-.2.115-.4.23-.594.347a.466.466,0,0,1-.523-.02,1.885,1.885,0,0,0-.182-.11l-.091-.052c-.278-.161-.555-.326-.832-.49l-1.875-1.107-.066-.039m3.5,1.166h0m-.324-.015h0m-4.169-2.548.012.017-.012-.017" transform="translate(-19.879 -15.08)"/>
        <path id="패스_10533" data-name="패스 10533" d="M104.531,64.1c.031.018.019.048.019.073q0,2.764,0,5.528a1.057,1.057,0,0,1-.1.059c-.31.141-.619.279-.929.421-.338.155-.676.314-1.015.468-.252.115-.507.223-.759.338-.513.233-1.023.471-1.537.7a.894.894,0,0,1-.315.12c.132-.259.3-.5.443-.749.253-.429.512-.854.769-1.282q.49-.814.98-1.628c.326-.541.658-1.079.984-1.62.31-.512.614-1.027.922-1.54.178-.3.359-.593.539-.889" transform="translate(-19.97 -12.814)" fill="#82d3ff"/>
        <path id="패스_10534" data-name="패스 10534" d="M99.8,72.1a.387.387,0,0,1-.346-.564c.092-.181.2-.354.306-.526.05-.081.1-.162.149-.244.18-.3.363-.608.546-.911l.522-.87q.341-.566.682-1.133l.461-.758c.175-.287.35-.574.524-.862s.354-.59.53-.885l.391-.654q.19-.316.382-.63l.158-.261a.388.388,0,0,1,.522-.137.432.432,0,0,1,.215.434V69.6a.388.388,0,0,1-.191.334,1.251,1.251,0,0,1-.135.078l-1.376.628-.569.262c-.129.058-.258.115-.387.172s-.25.11-.373.166l-.573.262q-.482.222-.966.44l-.06.03a.914.914,0,0,1-.4.124H99.8m4.268-6.734-.227.38q-.265.445-.532.888t-.526.865l-.459.755q-.342.565-.681,1.131l-.524.87-.375.624.172-.079.575-.263c.127-.058.254-.114.382-.17s.253-.11.378-.168l.563-.259,1.254-.573Z" transform="translate(-19.873 -12.717)"/>
        <path id="패스_10535" data-name="패스 10535" d="M99.888,73.2a.868.868,0,0,0,.315-.12c.514-.23,1.024-.468,1.537-.7.252-.115.507-.223.76-.338.339-.154.676-.314,1.015-.469l.928-.421c.035-.016.067-.039.1-.058l.017.037c0,.006-.014.014-.014.02q0,2.351,0,4.7c0,.049-.02.1.011.147-.022.03-.038,0-.05-.009q-.965-.57-1.93-1.143-1.036-.611-2.075-1.219c-.2-.116-.393-.236-.59-.353-.031-.018-.074-.028-.03-.075" transform="translate(-19.966 -14.214)" fill="#82d3ff"/>
        <path id="패스_10536" data-name="패스 10536" d="M104.449,76.306a.406.406,0,0,1-.26-.094l-3.974-2.343-.345-.206-.246-.147a.42.42,0,0,1-.233-.306.426.426,0,0,1,.117-.368.4.4,0,0,1,.262-.123.807.807,0,0,0,.08-.038l.1-.049c.321-.143.641-.29.96-.437l.574-.263c.127-.058.254-.114.382-.17l.378-.168c.189-.086.376-.173.564-.26l1.379-.63.064-.039a.387.387,0,0,1,.55.174.492.492,0,0,1,.038.267q0,2.325.006,4.651c0,.016,0,.033,0,.049a.386.386,0,0,1-.061.326.436.436,0,0,1-.3.172l-.031,0m.341-.616h0m-4.194-2.5.013.008,3.458,2.038q0-1.81,0-3.624l-.93.425c-.19.088-.378.176-.569.262-.129.058-.258.115-.387.172s-.249.11-.373.166l-.572.262-.637.292m-.611-.364h0" transform="translate(-19.869 -14.116)"/>
        <path id="패스_10537" data-name="패스 10537" d="M105.732,76.011c-.031-.047-.011-.1-.011-.147q0-2.351,0-4.7c0-.007.01-.014.014-.02a2.042,2.042,0,0,1,.386.161q.578.258,1.153.525c.267.125.535.246.8.368.314.142.628.286.943.426s.631.29.95.428a2.384,2.384,0,0,0,.416.178c.026.044-.015.049-.037.062q-.542.323-1.086.642l-1.551.917-1.936,1.145a.37.37,0,0,1-.041.018" transform="translate(-21.134 -14.223)" fill="#82d3ff"/>
        <path id="패스_10538" data-name="패스 10538" d="M105.64,76.3a.394.394,0,0,1-.329-.17.529.529,0,0,1-.076-.365q0-2.345,0-4.7a.432.432,0,0,1,.11-.275.386.386,0,0,1,.376-.124,1.592,1.592,0,0,1,.37.142l.092.044q.582.259,1.159.527.4.186.8.366l.31.141c.21.1.42.19.63.284l.4.182c.181.083.362.166.544.245.05.022.1.046.15.072a.984.984,0,0,0,.2.083.387.387,0,0,1,.247.179.466.466,0,0,1,.044.347.418.418,0,0,1-.242.261l-4.547,2.691a.911.911,0,0,1-.085.04.416.416,0,0,1-.149.028m.367-4.672q0,1.811,0,3.623l3.46-2.047-.314-.142q-.2-.091-.4-.179c-.213-.094-.424-.191-.636-.286l-.309-.141c-.27-.122-.539-.244-.807-.37q-.5-.232-1-.457" transform="translate(-21.037 -14.126)"/>
      </g>
    </g>
  </g>
</svg>
