<svg id="그룹_6937" data-name="그룹 6937" xmlns="http://www.w3.org/2000/svg" xmlns:xlink="http://www.w3.org/1999/xlink" width="86" height="89.077" viewBox="0 0 86 89.077">
  <defs>
    <clipPath id="clip-path">
      <rect id="사각형_7134" data-name="사각형 7134" width="86" height="89.077" fill="none"/>
    </clipPath>
    <clipPath id="clip-path-3">
      <rect id="사각형_7131" data-name="사각형 7131" width="11.622" height="15.641" fill="none"/>
    </clipPath>
    <clipPath id="clip-path-4">
      <rect id="사각형_7132" data-name="사각형 7132" width="23.725" height="23.725" fill="none"/>
    </clipPath>
  </defs>
  <g id="그룹_6936" data-name="그룹 6936" clip-path="url(#clip-path)">
    <g id="그룹_6935" data-name="그룹 6935" transform="translate(0 0)">
      <g id="그룹_6934" data-name="그룹 6934" clip-path="url(#clip-path)">
        <path id="패스_10347" data-name="패스 10347" d="M32.995,65.87A16.248,16.248,0,1,1,16.746,49.622,16.248,16.248,0,0,1,32.995,65.87" transform="translate(-0.07 -6.96)" fill="#82d3ff"/>
        <path id="패스_10348" data-name="패스 10348" d="M16.676,82.476A16.676,16.676,0,1,1,33.353,65.8,16.695,16.695,0,0,1,16.676,82.476m0-32.5A15.821,15.821,0,1,0,32.5,65.8,15.839,15.839,0,0,0,16.676,49.979" transform="translate(0 -6.89)"/>
        <path id="패스_10349" data-name="패스 10349" d="M30.491,66.358A13.257,13.257,0,1,1,17.234,53.1,13.257,13.257,0,0,1,30.491,66.358" transform="translate(-0.558 -7.448)" fill="#82d3ff"/>
        <path id="패스_10350" data-name="패스 10350" d="M17.165,79.973A13.685,13.685,0,1,1,30.849,66.289,13.7,13.7,0,0,1,17.165,79.973m0-26.514A12.829,12.829,0,1,0,29.994,66.289,12.844,12.844,0,0,0,17.165,53.459" transform="translate(-0.488 -7.378)"/>
        <g id="그룹_6930" data-name="그룹 6930" transform="translate(11.219 50.741)" style="mix-blend-mode: multiply;isolation: isolate">
          <g id="그룹_6929" data-name="그룹 6929">
            <g id="그룹_6928" data-name="그룹 6928" clip-path="url(#clip-path-3)">
              <path id="패스_10351" data-name="패스 10351" d="M16.353,72.061l-2.735.006c.089-.556.167-1.07.264-1.581.01-.051.137-.107.213-.113.23-.018.461-.011.691-.015.446-.009.59-.152.587-.586q-.012-2.074-.027-4.149c0-.493,0-.985-.01-1.478-.008-.6-.208-.812-.813-.834-.241-.009-.482.008-.723.011-.161,0-.248-.051-.242-.24.011-.335.007-.671-.01-1.006-.013-.24.09-.3.313-.3.7.005,1.4-.025,2.106,0,.294.01.329-.115.325-.346-.011-.534,0-1.069-.02-1.6-.005-.2.054-.3.259-.294.3,0,.609.014.911,0,.23-.012.284.082.28.3-.009.555,0,1.111.011,1.666a1.732,1.732,0,0,0,.031.211l.953-.025c0-.592,0-1.164,0-1.736,0-.419-.007-.421.4-.425.334,0,.666,0,1.039,0,.009.751.019,1.468.028,2.177.5.1.988.175,1.456.31a2.283,2.283,0,0,1,1.667,1.36,2.33,2.33,0,0,1-.845,2.941c.079.034.139.065.2.086a2.217,2.217,0,0,1,1.648,2.17,2.845,2.845,0,0,1-1.637,2.967,5.916,5.916,0,0,1-2.138.474c-.243.016-.3.095-.291.323.016.565,0,1.131.009,1.7,0,.188-.04.267-.244.26-.385-.012-.771,0-1.193,0-.008-.659-.028-1.284-.017-1.909,0-.234-.046-.327-.295-.3a6.351,6.351,0,0,1-.691,0V74.3c-.447,0-.863.015-1.277-.008-.06,0-.156-.175-.158-.27-.019-.637-.016-1.275-.021-1.958m3.8-1.817c.328-.154.594-.254.834-.4a1.083,1.083,0,0,0,.5-1.191,1.253,1.253,0,0,0-1.162-1.039c-.772-.113-1.56-.121-2.343-.159-.055,0-.167.118-.168.182q-.014,1.256.006,2.513c0,.069.113.2.169.2.742-.024,1.482-.067,2.161-.1M17.775,63.4c.008.892.015,1.743.023,2.611a5.814,5.814,0,0,0,2.341-.3,1.12,1.12,0,0,0-.021-2.1,5.5,5.5,0,0,0-2.343-.213" transform="translate(-13.119 -59.089)" fill="#82d3ff"/>
              <path id="패스_10352" data-name="패스 10352" d="M17.019,74.66c-.2,0-.385,0-.579-.014-.364-.02-.557-.451-.564-.685-.015-.486-.016-.972-.019-1.478V72.42l-2.308.005h0a.429.429,0,0,1-.326-.15.424.424,0,0,1-.1-.346l.058-.365c.067-.424.132-.827.208-1.228a.648.648,0,0,1,.6-.459c.168-.013.337-.015.506-.015l.21,0a.765.765,0,0,0,.158-.015.683.683,0,0,0,.009-.141l-.029-4.588c0-.346,0-.69-.008-1.035-.005-.376-.028-.4-.4-.413-.15-.006-.3,0-.448.005l-.252.007a.673.673,0,0,1-.5-.183.648.648,0,0,1-.173-.5c.009-.316.006-.642-.011-.969a.7.7,0,0,1,.175-.547.764.764,0,0,1,.568-.2c.281,0,.559,0,.838-.005.379-.005.77-.009,1.16,0,0-.2,0-.408,0-.613,0-.3,0-.595-.012-.892a.724.724,0,0,1,.182-.546.687.687,0,0,1,.508-.188l.176,0c.236,0,.472.008.708,0a.69.69,0,0,1,.537.172.729.729,0,0,1,.193.559c-.007.426,0,.852.006,1.278l0,.153.132,0v-.126c0-.4,0-.8,0-1.189-.006-.653.187-.85.821-.855.229,0,.457,0,.7,0l.346,0a.427.427,0,0,1,.425.423l.023,1.83.122.023c.339.064.689.13,1.03.228a2.68,2.68,0,0,1,1.949,1.622,2.83,2.83,0,0,1-.438,2.961,2.6,2.6,0,0,1,1.471,2.362,3.281,3.281,0,0,1-1.883,3.378,6.262,6.262,0,0,1-2.18.506c.006.276.005.553,0,.83,0,.254,0,.508,0,.763a.692.692,0,0,1-.179.524.674.674,0,0,1-.507.172c-.265-.009-.53-.005-.807,0l-.369,0a.434.434,0,0,1-.43-.423l-.009-.553c-.007-.415-.015-.82-.01-1.224-.045,0-.088,0-.129,0v1.78a.429.429,0,0,1-.426.428l-.321,0-.4,0m-.288-.724Zm0-.135c.191,0,.383,0,.583,0V72.01a.423.423,0,0,1,.127-.3.46.46,0,0,1,.3-.125c.085,0,.166,0,.244.005a3.024,3.024,0,0,0,.4,0,.7.7,0,0,1,.566.15.737.737,0,0,1,.2.582c-.007.442,0,.885.009,1.339l0,.131c.2,0,.394-.005.586,0,0-.21,0-.406,0-.6,0-.3,0-.607-.007-.91a.667.667,0,0,1,.69-.762,5.616,5.616,0,0,0,1.986-.434,2.418,2.418,0,0,0,1.39-2.558,1.8,1.8,0,0,0-1.355-1.786c-.055-.019-.109-.042-.171-.07l-.065-.029a.428.428,0,0,1-.065-.752,1.9,1.9,0,0,0,.677-2.433,1.836,1.836,0,0,0-1.385-1.1c-.3-.088-.617-.147-.951-.21-.156-.03-.315-.06-.475-.094a.427.427,0,0,1-.34-.414l-.021-1.756c-.2,0-.392,0-.585,0,0,.4,0,.791,0,1.188v.543a.427.427,0,0,1-.417.428l-.953.025a.416.416,0,0,1-.433-.363l-.012-.07a1.28,1.28,0,0,1-.024-.2l-.005-.374c-.006-.387-.012-.774-.008-1.162-.2.005-.4,0-.588,0,0,.267.006.515.007.764,0,.23,0,.462.008.693a.679.679,0,0,1-.767.783c-.41-.014-.831-.009-1.24,0-.243,0-.489.007-.73.005.009.236.011.462.009.683l.039,0c.17-.006.34-.011.51-.005a1.107,1.107,0,0,1,1.225,1.257c.005.347.006.695.008,1.042l.029,4.588a.9.9,0,0,1-1.007,1.016l-.223,0c-.1,0-.208,0-.311,0-.05.277-.1.557-.141.846l2.232,0h0a.427.427,0,0,1,.428.425l0,.491c0,.452,0,.888.015,1.322m1.192-3.1a.54.54,0,0,1-.376-.164.669.669,0,0,1-.219-.451c-.015-.824-.017-1.675-.008-2.525a.642.642,0,0,1,.217-.441.549.549,0,0,1,.4-.163l.514.022a17.767,17.767,0,0,1,1.869.141,1.666,1.666,0,0,1,1.521,1.384,1.515,1.515,0,0,1-.7,1.635,5.174,5.174,0,0,1-.579.286l-.293.133a.432.432,0,0,1-.161.041l-.425.021c-.561.03-1.152.06-1.744.08h-.015m2.163-.529h0Zm-1.9-.1h0Zm-.009-2.247c-.006.677,0,1.352.005,2.013.5-.019.989-.045,1.459-.069l.342-.018.233-.106a4.263,4.263,0,0,0,.485-.238.653.653,0,0,0,.3-.746.813.813,0,0,0-.8-.693,17.511,17.511,0,0,0-1.781-.133l-.243-.009m-.442-1.46a.428.428,0,0,1-.427-.425l-.023-2.611a.427.427,0,0,1,.408-.431l.063,0a5.728,5.728,0,0,1,2.458.246,1.547,1.547,0,0,1,.04,2.887,5,5,0,0,1-2.1.329c-.135,0-.271,0-.409.006h-.011m.408-2.63.015,1.768a4.191,4.191,0,0,0,1.74-.253.642.642,0,0,0,.469-.7.625.625,0,0,0-.471-.61,4.2,4.2,0,0,0-1.753-.2" transform="translate(-13.049 -59.019)"/>
            </g>
          </g>
        </g>
        <path id="패스_10353" data-name="패스 10353" d="M8.681,21.787a13.195,13.195,0,1,1,26.39,0V32.063h8.184V21.876a21.379,21.379,0,0,0-42.758,0V32.063H8.681Z" transform="translate(-0.07 -0.07)" fill="#fff"/>
        <path id="패스_10354" data-name="패스 10354" d="M43.185,32.421H35a.428.428,0,0,1-.427-.427V21.716a12.767,12.767,0,0,0-25.534,0V31.993a.428.428,0,0,1-.428.427H.427A.428.428,0,0,1,0,31.993V21.805a21.806,21.806,0,0,1,43.613,0V31.993a.428.428,0,0,1-.428.427m-7.756-.855h7.328v-9.76a20.951,20.951,0,0,0-41.9,0v9.76H8.183V21.716a13.623,13.623,0,0,1,27.246,0Z" transform="translate(0 0)"/>
        <path id="패스_10355" data-name="패스 10355" d="M83.646,37.213H37.985a6.362,6.362,0,0,0-6.362,6.362V79.563a6.362,6.362,0,0,0,6.362,6.362H83.646a6.362,6.362,0,0,0,6.362-6.362V43.575a6.362,6.362,0,0,0-6.362-6.362" transform="translate(-4.435 -5.219)" fill="#00a6ff"/>
        <path id="패스_10356" data-name="패스 10356" d="M83.576,86.284H37.915a6.8,6.8,0,0,1-6.789-6.789V43.505a6.8,6.8,0,0,1,6.789-6.789H83.576a6.8,6.8,0,0,1,6.789,6.789V79.494a6.8,6.8,0,0,1-6.789,6.789M37.915,37.571a5.94,5.94,0,0,0-5.934,5.934V79.494a5.94,5.94,0,0,0,5.934,5.934H83.576a5.94,5.94,0,0,0,5.934-5.934V43.505a5.94,5.94,0,0,0-5.934-5.934Z" transform="translate(-4.366 -5.15)"/>
        <path id="패스_10357" data-name="패스 10357" d="M69.771,59.962a3.821,3.821,0,1,0-5.293,3.525V74.06h2.946V63.487a3.82,3.82,0,0,0,2.347-3.525" transform="translate(-8.714 -7.874)"/>
        <path id="패스_10358" data-name="패스 10358" d="M67.353,74.417H64.406a.428.428,0,0,1-.427-.427v-10.3a4.248,4.248,0,1,1,3.8,0v10.3a.428.428,0,0,1-.428.427m-2.518-.855h2.091V63.417a.441.441,0,0,1,.279-.4,3.4,3.4,0,1,0-4.3-1.435,3.57,3.57,0,0,0,1.7,1.456.427.427,0,0,1,.232.38Z" transform="translate(-8.644 -7.804)"/>
        <path id="패스_10359" data-name="패스 10359" d="M44.727,81.136A16.569,16.569,0,1,1,28.158,64.567,16.568,16.568,0,0,1,44.727,81.136" transform="translate(-1.626 -9.056)" fill="#cfeeff"/>
        <path id="패스_10360" data-name="패스 10360" d="M28.088,98.063a17,17,0,1,1,17-17,17.016,17.016,0,0,1-17,17m0-33.138A16.141,16.141,0,1,0,44.23,81.067,16.16,16.16,0,0,0,28.088,64.925" transform="translate(-1.556 -8.986)"/>
        <path id="패스_10361" data-name="패스 10361" d="M42.174,81.634A13.518,13.518,0,1,1,28.656,68.115,13.519,13.519,0,0,1,42.174,81.634" transform="translate(-2.123 -9.554)" fill="#cfeeff"/>
        <path id="패스_10362" data-name="패스 10362" d="M28.586,95.51A13.946,13.946,0,1,1,42.532,81.564,13.961,13.961,0,0,1,28.586,95.51m0-27.036a13.09,13.09,0,1,0,13.09,13.09,13.1,13.1,0,0,0-13.09-13.09" transform="translate(-2.053 -9.484)"/>
        <g id="그룹_6933" data-name="그룹 6933" transform="translate(16.326 58.562)" style="mix-blend-mode: multiply;isolation: isolate">
          <g id="그룹_6932" data-name="그룹 6932">
            <g id="그룹_6931" data-name="그룹 6931" clip-path="url(#clip-path-4)">
              <path id="패스_10363" data-name="패스 10363" d="M29.2,68.116a13.48,13.48,0,0,0-10.206,4.66A13.514,13.514,0,0,1,38.055,91.841,13.515,13.515,0,0,0,29.2,68.116" transform="translate(-18.99 -68.116)" fill="#cfeeff"/>
            </g>
          </g>
        </g>
        <path id="패스_10364" data-name="패스 10364" d="M30.836,74.088v-.041h.04c.092.2.214.378.324.565.181.306.366.61.551.914.157.259.317.515.474.775.181.3.359.6.539.9l.434.722c.188.314.376.628.566.94.158.262.322.521.479.784.3.5.591.994.888,1.489.183.305.374.606.557.911.109.181.211.368.316.552a2.7,2.7,0,0,1-.459-.2c-.351-.153-.7-.316-1.047-.473s-.693-.312-1.039-.469c-.3-.133-.592-.267-.886-.4-.422-.2-.846-.389-1.272-.579a2.247,2.247,0,0,0-.426-.177c-.007-.014-.013-.028-.019-.041q0-3.047,0-6.094c0-.028.014-.06-.021-.08" transform="translate(-4.325 -10.386)" fill="#82d3ff"/>
        <path id="패스_10365" data-name="패스 10365" d="M35.933,82.96a.443.443,0,0,1-.095-.01,1.78,1.78,0,0,1-.412-.162c-.04-.021-.082-.041-.123-.059-.206-.089-.41-.182-.615-.276l-.436-.2c-.235-.1-.468-.21-.7-.316l-.34-.155c-.3-.134-.594-.269-.89-.408q-.629-.293-1.265-.575c-.044-.02-.087-.041-.13-.062a1.068,1.068,0,0,0-.213-.089.429.429,0,0,1-.3-.239L30.4,80.37a.419.419,0,0,1-.039-.177V74.152a.458.458,0,0,1-.021-.119v-.042a.427.427,0,0,1,.12-.31.484.484,0,0,1,.734.117,3.9,3.9,0,0,0,.209.369l.1.159c.17.288.344.573.518.859l.242.395q.133.215.264.432l1.746,2.9c.091.149.182.3.273.446l.415.7c.157.264.314.528.472.792q.139.231.281.459t.276.452c.077.128.15.258.224.388l.1.173a.428.428,0,0,1-.371.64m-4.719-3.031.089.044.1.048q.641.285,1.278.581.438.205.88.4l.342.156c.231.1.463.21.695.313l.282.127c-.064-.1-.127-.207-.19-.312-.159-.264-.316-.53-.475-.8L33.8,79.8c-.088-.146-.177-.291-.267-.437l-1.751-2.911q-.128-.213-.26-.425l-.243-.4c-.024-.038-.047-.077-.07-.114Z" transform="translate(-4.255 -10.317)"/>
        <path id="패스_10366" data-name="패스 10366" d="M35.149,86.227c-.1.183-.237.345-.356.517-.23.332-.465.66-.7.99s-.453.628-.679.944q-.28.391-.558.785c-.288.408-.573.818-.861,1.227q-.371.527-.746,1.054c-.254.356-.512.708-.762,1.068-.143.2-.3.4-.43.614-.023.039-.032.035-.058,0q-.374-.535-.753-1.066c-.354-.5-.71-.99-1.063-1.486-.326-.46-.648-.923-.973-1.382s-.662-.935-.994-1.4q-.638-.9-1.277-1.792c-.012-.017-.033-.035-.009-.073l.4.238c.249.148.5.294.751.44.349.2.693.413,1.04.617q.575.338,1.15.677c.457.269.911.542,1.37.808.113.065.229.124.334.2a.089.089,0,0,0,.109,0c.3-.176.6-.349.9-.524.266-.155.528-.315.8-.466.322-.181.634-.377.952-.563s.634-.368.95-.555c.431-.254.86-.513,1.29-.769.058-.035.12-.065.181-.1Z" transform="translate(-3.495 -12.093)" fill="#82d3ff"/>
        <path id="패스_10367" data-name="패스 10367" d="M29.96,93.809a.457.457,0,0,1-.383-.214q-.373-.533-.751-1.062l-.449-.627q-.308-.429-.615-.861-.281-.4-.56-.794l-.414-.589q-.5-.7-.993-1.4L24.52,86.47a.472.472,0,0,1-.022-.549.428.428,0,0,1,.58-.14l.4.238c.2.119.4.235.6.351l.15.088c.2.114.39.23.585.346l2.064,1.219c.3.18.605.359.91.536l.089.05.094.053c.163-.1.328-.192.491-.286l.528-.31c.169-.1.338-.2.51-.3.2-.113.4-.231.593-.349l.79-.466c.17-.1.34-.2.511-.3l.782-.466.506-.3c.048-.028.1-.054.144-.079l.023-.012a.423.423,0,0,1,.193-.066.429.429,0,0,1,.368.152h0a.428.428,0,0,1,.022.518,4.185,4.185,0,0,1-.242.356c-.039.052-.077.1-.113.158-.212.308-.43.611-.647.916l-.736,1.024q-.28.389-.555.782l-.862,1.228q-.373.529-.747,1.056l-.274.382c-.163.227-.326.453-.485.682-.052.074-.1.146-.158.218-.089.12-.179.241-.255.37a.5.5,0,0,1-.379.236H29.96m0-.428h0ZM26.3,87.5l.193.271q.5.7.995,1.4l.415.591c.186.264.371.528.557.791q.306.429.613.857l.45.628q.218.3.433.61c.037-.05.074-.1.109-.152.162-.232.327-.462.493-.692l.272-.379q.374-.525.745-1.051l.862-1.228q.279-.395.56-.788l.593-.825-.28.163-.778.458c-.2.123-.407.245-.614.362-.166.094-.33.191-.494.289l-.534.312c-.218.127-.438.254-.654.383a.515.515,0,0,1-.578-.022,1.952,1.952,0,0,0-.2-.12l-.1-.058c-.307-.177-.612-.359-.917-.54l-2.067-1.221L26.3,87.5m3.855,1.285h0m-.358-.017h0m-4.6-2.809.013.018-.013-.018" transform="translate(-3.425 -12.023)"/>
        <path id="패스_10368" data-name="패스 10368" d="M30,74.1c.034.02.021.052.021.08q0,3.047,0,6.094a1.2,1.2,0,0,1-.111.064c-.34.156-.683.309-1.023.464-.374.171-.745.346-1.119.517-.279.126-.56.246-.837.372-.566.257-1.128.519-1.695.773a.969.969,0,0,1-.347.132c.145-.285.326-.549.488-.824.279-.473.565-.942.849-1.413q.539-.9,1.08-1.794c.36-.6.726-1.19,1.085-1.786.341-.565.677-1.132,1.016-1.7.2-.328.4-.653.594-.98" transform="translate(-3.491 -10.392)" fill="#82d3ff"/>
        <path id="패스_10369" data-name="패스 10369" d="M24.819,82.948a.428.428,0,0,1-.381-.622c.1-.2.219-.389.337-.579.056-.089.111-.179.164-.269q.3-.5.6-1l.576-.959.752-1.249.508-.835c.193-.316.386-.633.578-.95s.389-.65.584-.975l.432-.722c.138-.232.279-.463.42-.694l.175-.288a.427.427,0,0,1,.576-.15.476.476,0,0,1,.237.478l0,6.068a.428.428,0,0,1-.212.369,1.413,1.413,0,0,1-.15.085l-1.517.692q-.313.146-.628.289c-.142.064-.283.127-.426.19s-.274.12-.411.182l-.631.289c-.355.163-.709.326-1.066.485l-.065.034a1.015,1.015,0,0,1-.438.136h-.019m4.705-7.423-.251.42q-.291.49-.585.978t-.579.953l-.506.833q-.377.622-.751,1.247l-.578.959q-.208.343-.414.688l.19-.087.634-.291q.209-.1.422-.187c.138-.061.278-.123.415-.186.208-.095.414-.19.622-.286l1.382-.63Z" transform="translate(-3.421 -10.323)"/>
        <path id="패스_10370" data-name="패스 10370" d="M24.887,83.6a.948.948,0,0,0,.347-.132c.567-.253,1.13-.516,1.695-.773.278-.126.56-.245.837-.372.374-.17.745-.345,1.119-.516.34-.156.683-.309,1.023-.464.039-.018.074-.043.111-.064l.019.04c-.006.008-.016.015-.016.022q0,2.591.006,5.183c0,.053-.022.11.012.162-.025.034-.041,0-.056-.01-.709-.419-1.417-.841-2.127-1.26q-1.141-.673-2.287-1.344c-.218-.128-.433-.26-.65-.389-.034-.021-.082-.032-.034-.083" transform="translate(-3.488 -11.4)" fill="#82d3ff"/>
        <path id="패스_10371" data-name="패스 10371" d="M29.95,87.056a.453.453,0,0,1-.287-.1l-4.38-2.583c-.127-.075-.254-.151-.38-.228l-.272-.162a.464.464,0,0,1-.257-.337.472.472,0,0,1,.129-.406.427.427,0,0,1,.288-.135.763.763,0,0,0,.089-.042c.036-.019.072-.037.109-.053.353-.158.706-.32,1.058-.482l.634-.29c.139-.064.28-.126.42-.187s.279-.122.417-.185c.208-.095.414-.191.622-.286l1.521-.694.07-.044a.429.429,0,0,1,.607.191.542.542,0,0,1,.041.295q0,2.564.006,5.127,0,.027,0,.054a.428.428,0,0,1-.067.359.484.484,0,0,1-.331.191H29.95m.376-.678h0M25.7,83.624l.015.009,3.811,2.247q0-2,0-4l-1.024.469q-.313.146-.628.289-.213.1-.426.189l-.411.183L26.4,83.3l-.7.322m-.673-.4h0" transform="translate(-3.418 -11.33)"/>
        <path id="패스_10372" data-name="패스 10372" d="M30.88,86.691c-.034-.052-.012-.108-.012-.162q-.005-2.591-.006-5.183c0-.007.011-.015.016-.021a2.224,2.224,0,0,1,.426.177c.426.19.849.382,1.272.579.294.138.591.272.886.4.346.157.692.316,1.039.469s.7.32,1.049.473a2.585,2.585,0,0,0,.457.2c.029.048-.016.054-.04.069l-1.2.708-1.709,1.011-2.134,1.261a.426.426,0,0,1-.046.02" transform="translate(-4.328 -11.406)" fill="#82d3ff"/>
        <path id="패스_10373" data-name="패스 10373" d="M30.817,87.045a.433.433,0,0,1-.363-.187.58.58,0,0,1-.084-.4q0-2.586-.005-5.179a.473.473,0,0,1,.121-.3.424.424,0,0,1,.414-.138,1.8,1.8,0,0,1,.408.156l.1.049q.641.285,1.278.581.438.205.88.4l.342.156c.231.1.463.21.695.313q.223.1.444.2c.2.091.4.182.6.269.057.025.111.052.166.079a1.055,1.055,0,0,0,.217.092.428.428,0,0,1,.273.2.513.513,0,0,1,.049.383.465.465,0,0,1-.267.288l-5.012,2.965a1.02,1.02,0,0,1-.093.045.448.448,0,0,1-.163.031m.4-5.151q0,2,0,3.993l3.814-2.257-.346-.157-.436-.2c-.235-.1-.468-.21-.7-.316l-.341-.155c-.3-.134-.594-.27-.89-.408q-.549-.257-1.1-.5" transform="translate(-4.259 -11.337)"/>
      </g>
    </g>
  </g>
</svg>
