<svg xmlns="http://www.w3.org/2000/svg" xmlns:xlink="http://www.w3.org/1999/xlink" width="100" height="86.906" viewBox="0 0 100 86.906">
  <defs>
    <clipPath id="clip-path">
      <rect id="사각형_7127" data-name="사각형 7127" width="100" height="86.907" fill="none"/>
    </clipPath>
  </defs>
  <g id="그룹_6925" data-name="그룹 6925" transform="translate(0 0)">
    <g id="그룹_6924" data-name="그룹 6924" transform="translate(0 0.001)" clip-path="url(#clip-path)">
      <path id="패스_10304" data-name="패스 10304" d="M67.031,9.1h-32.3A3.824,3.824,0,0,1,30.9,5.276V4.322A3.825,3.825,0,0,1,34.729.5h32.3a3.825,3.825,0,0,1,3.825,3.825v.955A3.824,3.824,0,0,1,67.031,9.1" transform="translate(-3.858 -0.062)" fill="#cfeeff"/>
      <path id="패스_10305" data-name="패스 10305" d="M68.615,9.475h-35.6a2.616,2.616,0,0,1-2.613-2.613V2.612A2.616,2.616,0,0,1,33.019,0h35.6a2.615,2.615,0,0,1,2.613,2.612V6.861a2.616,2.616,0,0,1-2.613,2.613m-35.6-8.6a1.744,1.744,0,0,0-1.742,1.742V6.861A1.744,1.744,0,0,0,33.019,8.6h35.6a1.744,1.744,0,0,0,1.742-1.742V2.612A1.744,1.744,0,0,0,68.615.871Z" transform="translate(-3.795 0)"/>
      <path id="패스_10306" data-name="패스 10306" d="M68.847,18.932h-32.3a3.824,3.824,0,0,1-3.825-3.825v-.955a3.825,3.825,0,0,1,3.825-3.825h32.3a3.825,3.825,0,0,1,3.825,3.825v.955a3.824,3.824,0,0,1-3.825,3.825" transform="translate(-4.084 -1.29)" fill="#cfeeff"/>
      <path id="패스_10307" data-name="패스 10307" d="M70.431,19.306h-35.6a2.616,2.616,0,0,1-2.613-2.613V12.443a2.616,2.616,0,0,1,2.613-2.612h35.6a2.615,2.615,0,0,1,2.613,2.612v4.249a2.616,2.616,0,0,1-2.613,2.613m-35.6-8.6a1.744,1.744,0,0,0-1.742,1.742v4.249a1.744,1.744,0,0,0,1.742,1.742h35.6a1.744,1.744,0,0,0,1.742-1.742V12.443A1.744,1.744,0,0,0,70.431,10.7Z" transform="translate(-4.022 -1.228)"/>
      <path id="패스_10308" data-name="패스 10308" d="M66.366,28.763h-32.3a3.824,3.824,0,0,1-3.825-3.825v-.955a3.824,3.824,0,0,1,3.825-3.825h32.3a3.825,3.825,0,0,1,3.825,3.825v.955a3.824,3.824,0,0,1-3.825,3.825" transform="translate(-3.775 -2.517)" fill="#cfeeff"/>
      <path id="패스_10309" data-name="패스 10309" d="M67.95,29.137h-35.6a2.617,2.617,0,0,1-2.613-2.613V22.274a2.616,2.616,0,0,1,2.613-2.612h35.6a2.615,2.615,0,0,1,2.613,2.612v4.249a2.616,2.616,0,0,1-2.613,2.613m-35.6-8.6a1.744,1.744,0,0,0-1.742,1.742v4.249a1.743,1.743,0,0,0,1.742,1.742h35.6a1.744,1.744,0,0,0,1.742-1.742V22.274a1.744,1.744,0,0,0-1.742-1.742Z" transform="translate(-3.712 -2.455)"/>
      <path id="패스_10310" data-name="패스 10310" d="M66.366,38.594h-32.3a3.824,3.824,0,0,1-3.825-3.825v-.955a3.824,3.824,0,0,1,3.825-3.825h32.3a3.825,3.825,0,0,1,3.825,3.825v.955a3.824,3.824,0,0,1-3.825,3.825" transform="translate(-3.775 -3.744)" fill="#cfeeff"/>
      <path id="패스_10311" data-name="패스 10311" d="M67.95,38.967h-35.6a2.616,2.616,0,0,1-2.613-2.613V32.1a2.616,2.616,0,0,1,2.613-2.612h35.6A2.615,2.615,0,0,1,70.563,32.1v4.249a2.616,2.616,0,0,1-2.613,2.613m-35.6-8.6A1.744,1.744,0,0,0,30.613,32.1v4.249A1.744,1.744,0,0,0,32.354,38.1h35.6a1.744,1.744,0,0,0,1.742-1.742V32.1a1.744,1.744,0,0,0-1.742-1.742Z" transform="translate(-3.712 -3.682)"/>
      <path id="패스_10312" data-name="패스 10312" d="M66.366,48.424h-32.3A3.824,3.824,0,0,1,30.239,44.6v-.955a3.824,3.824,0,0,1,3.825-3.825h32.3a3.825,3.825,0,0,1,3.825,3.825V44.6a3.824,3.824,0,0,1-3.825,3.825" transform="translate(-3.775 -4.971)" fill="#cfeeff"/>
      <path id="패스_10313" data-name="패스 10313" d="M67.95,48.8h-35.6a2.617,2.617,0,0,1-2.613-2.613V41.935a2.616,2.616,0,0,1,2.613-2.612h35.6a2.615,2.615,0,0,1,2.613,2.612v4.249A2.616,2.616,0,0,1,67.95,48.8m-35.6-8.6a1.744,1.744,0,0,0-1.742,1.742v4.249a1.743,1.743,0,0,0,1.742,1.742h35.6a1.744,1.744,0,0,0,1.742-1.742V41.935a1.744,1.744,0,0,0-1.742-1.742Z" transform="translate(-3.712 -4.909)"/>
      <path id="패스_10314" data-name="패스 10314" d="M67.363,58.255h-32.3a3.824,3.824,0,0,1-3.825-3.825v-.955a3.825,3.825,0,0,1,3.825-3.825h32.3a3.825,3.825,0,0,1,3.825,3.825v.955a3.824,3.824,0,0,1-3.825,3.825" transform="translate(-3.899 -6.198)" fill="#cfeeff"/>
      <path id="패스_10315" data-name="패스 10315" d="M68.947,58.629h-35.6a2.616,2.616,0,0,1-2.613-2.613V51.766a2.616,2.616,0,0,1,2.613-2.612h35.6a2.615,2.615,0,0,1,2.613,2.612v4.249a2.616,2.616,0,0,1-2.613,2.613m-35.6-8.6a1.744,1.744,0,0,0-1.742,1.742v4.249a1.744,1.744,0,0,0,1.742,1.742h35.6a1.745,1.745,0,0,0,1.743-1.742V51.766a1.745,1.745,0,0,0-1.743-1.742Z" transform="translate(-3.837 -6.136)"/>
      <path id="패스_10316" data-name="패스 10316" d="M68.028,68.086h-32.3A3.824,3.824,0,0,1,31.9,64.261v-.955a3.825,3.825,0,0,1,3.825-3.825h32.3a3.825,3.825,0,0,1,3.825,3.825v.955a3.824,3.824,0,0,1-3.825,3.825" transform="translate(-3.982 -7.425)" fill="#cfeeff"/>
      <path id="패스_10317" data-name="패스 10317" d="M69.613,68.46h-35.6A2.616,2.616,0,0,1,31.4,65.846V61.6a2.616,2.616,0,0,1,2.613-2.612h35.6A2.615,2.615,0,0,1,72.226,61.6v4.249a2.616,2.616,0,0,1-2.613,2.613m-35.6-8.6A1.744,1.744,0,0,0,32.275,61.6v4.249a1.744,1.744,0,0,0,1.742,1.742h35.6a1.744,1.744,0,0,0,1.742-1.742V61.6a1.744,1.744,0,0,0-1.742-1.742Z" transform="translate(-3.92 -7.363)"/>
      <path id="패스_10318" data-name="패스 10318" d="M66.366,77.917h-32.3a3.824,3.824,0,0,1-3.825-3.825v-.955a3.824,3.824,0,0,1,3.825-3.825h32.3a3.825,3.825,0,0,1,3.825,3.825v.955a3.824,3.824,0,0,1-3.825,3.825" transform="translate(-3.775 -8.653)" fill="#cfeeff"/>
      <path id="패스_10319" data-name="패스 10319" d="M67.95,78.291h-35.6a2.617,2.617,0,0,1-2.613-2.613V71.428a2.616,2.616,0,0,1,2.613-2.612h35.6a2.615,2.615,0,0,1,2.613,2.612v4.249a2.616,2.616,0,0,1-2.613,2.613m-35.6-8.6a1.744,1.744,0,0,0-1.742,1.742v4.249a1.743,1.743,0,0,0,1.742,1.742h35.6a1.744,1.744,0,0,0,1.742-1.742V71.428a1.744,1.744,0,0,0-1.742-1.742Z" transform="translate(-3.712 -8.59)"/>
      <path id="패스_10320" data-name="패스 10320" d="M65.368,87.747h-32.3a3.824,3.824,0,0,1-3.825-3.825v-.955a3.825,3.825,0,0,1,3.825-3.825h32.3a3.825,3.825,0,0,1,3.825,3.825v.955a3.824,3.824,0,0,1-3.825,3.825" transform="translate(-3.65 -9.88)" fill="#cfeeff"/>
      <path id="패스_10321" data-name="패스 10321" d="M66.952,88.121h-35.6a2.616,2.616,0,0,1-2.613-2.613V81.258a2.616,2.616,0,0,1,2.613-2.612h35.6a2.615,2.615,0,0,1,2.613,2.612v4.249a2.616,2.616,0,0,1-2.613,2.613m-35.6-8.6a1.744,1.744,0,0,0-1.742,1.742v4.249a1.744,1.744,0,0,0,1.742,1.742h35.6a1.744,1.744,0,0,0,1.742-1.742V81.258a1.744,1.744,0,0,0-1.742-1.742Z" transform="translate(-3.588 -9.818)"/>
      <path id="패스_10322" data-name="패스 10322" d="M66.366,97.578h-32.3a3.824,3.824,0,0,1-3.825-3.825V92.8a3.824,3.824,0,0,1,3.825-3.825h32.3A3.825,3.825,0,0,1,70.191,92.8v.955a3.824,3.824,0,0,1-3.825,3.825" transform="translate(-3.775 -11.107)" fill="#cfeeff"/>
      <path id="패스_10323" data-name="패스 10323" d="M67.95,97.952h-35.6a2.617,2.617,0,0,1-2.613-2.613V91.089a2.616,2.616,0,0,1,2.613-2.612h35.6a2.615,2.615,0,0,1,2.613,2.612v4.249a2.616,2.616,0,0,1-2.613,2.613m-35.6-8.6a1.744,1.744,0,0,0-1.742,1.742v4.249a1.743,1.743,0,0,0,1.742,1.742h35.6a1.744,1.744,0,0,0,1.742-1.742V91.089a1.744,1.744,0,0,0-1.742-1.742Z" transform="translate(-3.712 -11.045)"/>
      <path id="패스_10324" data-name="패스 10324" d="M86.032,89.735,78.238,58.387a3.824,3.824,0,0,1,2.787-4.634l.928-.231a3.825,3.825,0,0,1,4.634,2.788l7.8,31.349a3.825,3.825,0,0,1-2.789,4.634l-.927.23a3.825,3.825,0,0,1-4.634-2.788" transform="translate(-9.752 -6.667)" fill="#cfeeff"/>
      <path id="패스_10325" data-name="패스 10325" d="M88.431,93.308a2.618,2.618,0,0,1-2.536-1.982L77.306,56.782a2.615,2.615,0,0,1,1.9-3.166l4.124-1.026A2.612,2.612,0,0,1,86.5,54.5l8.59,34.545a2.613,2.613,0,0,1-1.9,3.165l-4.124,1.026a2.6,2.6,0,0,1-.63.077M86.74,91.116a1.744,1.744,0,0,0,2.111,1.27l4.123-1.025a1.742,1.742,0,0,0,1.271-2.111l-8.59-34.545a1.743,1.743,0,0,0-2.111-1.27L79.42,54.461a1.743,1.743,0,0,0-1.27,2.11Z" transform="translate(-9.64 -6.555)"/>
      <path id="패스_10326" data-name="패스 10326" d="M96.331,89.735l-7.8-31.348a3.824,3.824,0,0,1,2.788-4.634l.928-.231a3.824,3.824,0,0,1,4.633,2.788l7.8,31.349a3.824,3.824,0,0,1-2.788,4.634l-.927.23a3.824,3.824,0,0,1-4.634-2.788" transform="translate(-11.037 -6.667)" fill="#cfeeff"/>
      <path id="패스_10327" data-name="패스 10327" d="M98.725,93.309a2.614,2.614,0,0,1-2.531-1.983L87.6,56.782a2.616,2.616,0,0,1,1.905-3.166l4.124-1.026A2.612,2.612,0,0,1,96.8,54.5l8.59,34.545a2.612,2.612,0,0,1-1.905,3.165L99.36,93.231a2.625,2.625,0,0,1-.635.078m-1.686-2.193a1.743,1.743,0,0,0,2.111,1.27l4.123-1.025a1.744,1.744,0,0,0,1.271-2.111l-8.59-34.545a1.743,1.743,0,0,0-2.111-1.27l-4.124,1.026a1.743,1.743,0,0,0-1.27,2.11Z" transform="translate(-10.926 -6.555)"/>
      <path id="패스_10328" data-name="패스 10328" d="M99.626,4.129l-23.824.7,5.774,7.267L41.567,43.876,26.852,25.353l-.024.018-.018-.024L.5,46.252,6.708,54.07,25.226,39.359,39.937,57.877l.028-.022.023.028,47.8-37.972,5.773,7.267Z" transform="translate(-0.062 -0.516)" fill="#00a6ff"/>
      <path id="패스_10329" data-name="패스 10329" d="M39.925,58.256a.446.446,0,0,1-.158-.03.4.4,0,0,1-.234-.141L25.094,39.909,6.916,54.348a.436.436,0,0,1-.612-.07L.094,46.46a.436.436,0,0,1,.071-.612l26.312-20.9a.434.434,0,0,1,.32-.092.465.465,0,0,1,.1.025.41.41,0,0,1,.23.142L41.574,43.2,80.9,11.96,75.4,5.034a.435.435,0,0,1,.328-.706l23.823-.7a.435.435,0,0,1,.434.546L93.918,27.226a.435.435,0,0,1-.762.16l-5.5-6.926L40.2,58.161a.432.432,0,0,1-.27.095M25.164,38.861l.05,0a.437.437,0,0,1,.291.162L39.967,57.231,87.453,19.507a.435.435,0,0,1,.612.07L93.3,26.163l5.7-21.645-22.372.655,5.232,6.586a.436.436,0,0,1-.07.613L41.775,44.155a.443.443,0,0,1-.321.091.433.433,0,0,1-.291-.162L26.7,25.88,1.047,46.259,6.716,53.4l18.176-14.44a.439.439,0,0,1,.271-.095" transform="translate(0 -0.454)"/>
    </g>
  </g>
</svg>
