<svg xmlns="http://www.w3.org/2000/svg" width="100.194" height="25.667" viewBox="0 0 100.194 25.667"><defs><style>.a{fill:#3679b5;}.b{fill:#fff;}</style></defs><g transform="translate(-358.84 -432.06)"><path class="a" d="M394.577,464.3l-.107-.04v0Z" transform="translate(-23.733 -21.448)"/><path class="b" d="M460.462,457.272a.815.815,0,0,0-.213-.423.732.732,0,0,0-.539-.167h-4.661v2.382h8.044a.344.344,0,0,0,.3-.141,1.528,1.528,0,0,0,.151-.627h.3v4.38h-.3a.681.681,0,0,0-.151-.41.491.491,0,0,0-.3-.077h-12.5v-.307a1.1,1.1,0,0,0,.589-.167.4.4,0,0,0,.113-.294V449.486a.4.4,0,0,0-.113-.294,1.107,1.107,0,0,0-.589-.167v-.307h12.5a.344.344,0,0,0,.3-.141,1.388,1.388,0,0,0,.151-.576h.3v4.457h-.3a1.39,1.39,0,0,0-.151-.576.345.345,0,0,0-.3-.141h-8.044v2.126h4.661a.731.731,0,0,0,.539-.166.813.813,0,0,0,.213-.422h.3v4Z" transform="translate(-61.114 -10.618)"/><path class="b" d="M514.4,460.5a.344.344,0,0,0,.3-.141,1.39,1.39,0,0,0,.151-.576h.3v4.431h-.3a.919.919,0,0,0-.151-.5.437.437,0,0,0-.3-.09h-13.08v-.307a1.1,1.1,0,0,0,.589-.167.4.4,0,0,0,.113-.294V450.916a.4.4,0,0,0-.113-.295,1.106,1.106,0,0,0-.589-.167v-.307h5.162v.307a1.1,1.1,0,0,0-.589.167.4.4,0,0,0-.113.295V460.5Z" transform="translate(-94.906 -12.048)"/><path class="b" d="M557.154,450.148v.307a.456.456,0,0,0-.339.141,2.59,2.59,0,0,0-.263.32l-4.811,6.941v4.994a.4.4,0,0,0,.113.294,1.1,1.1,0,0,0,.589.167v.307h-5.162v-.307a1.1,1.1,0,0,0,.589-.167.4.4,0,0,0,.113-.294v-4.508l-4.786-7.018q-.4-.589-.526-.73a.391.391,0,0,0-.3-.141v-.307h5.513v.307a1.735,1.735,0,0,0-.426.051.241.241,0,0,0-.2.256,2.2,2.2,0,0,0,.326.615q.326.512.764,1.178t.915,1.358q.475.691.777,1.178.075-.128.326-.474t.564-.807q.313-.461.676-.973t.652-.948q.287-.435.488-.756a1.545,1.545,0,0,0,.2-.371.239.239,0,0,0-.188-.256,1.4,1.4,0,0,0-.364-.051v-.307Z" transform="translate(-122.25 -12.048)"/><path class="b" d="M607.356,452.457a1.092,1.092,0,0,0-.151-.486.357.357,0,0,0-.3-.128h-8.269v2.28H604.2a.378.378,0,0,0,.3-.115.994.994,0,0,0,.151-.474h.3v4.3h-.3a1.279,1.279,0,0,0-.151-.563.359.359,0,0,0-.3-.128h-5.563v4.277a.4.4,0,0,0,.113.294,1.1,1.1,0,0,0,.589.167v.307h-5.263v-.307a1.1,1.1,0,0,0,.589-.167.4.4,0,0,0,.113-.294V449.486a.4.4,0,0,0-.113-.294,1.107,1.107,0,0,0-.589-.167v-.307h12.83a.343.343,0,0,0,.3-.141,1.387,1.387,0,0,0,.151-.576h.3v4.457Z" transform="translate(-156.69 -10.618)"/><path class="b" d="M643.455,463.313a1.1,1.1,0,0,0,.589-.167.4.4,0,0,0,.113-.294V450.916a.4.4,0,0,0-.113-.295,1.107,1.107,0,0,0-.589-.167v-.307h5.162v.307a1.106,1.106,0,0,0-.589.167.4.4,0,0,0-.113.295v11.935a.4.4,0,0,0,.113.294,1.1,1.1,0,0,0,.589.167v.307h-5.162Z" transform="translate(-189.583 -12.048)"/><g transform="translate(358.84 432.06)"><path class="b" d="M370.162,432.06l-11.319,4.434h0v16.2l12,5.029,11.316-5.326v-3.559l-11.316,5.322-8.441-3.536v-2.761l8.441,3.536,11.316-5.326v-3.559l-11.316,5.326-8.441-3.536v-2.765l8.441,3.536,11.316-5.322,0-3.085h0v-.477Zm.574,9.419v0l.107.043Z" transform="translate(-358.84 -432.06)"/><path class="b" d="M394.577,460.3l-.107-.04v0Z" transform="translate(-382.573 -450.844)"/></g></g></svg>